font.ufo
<glyph name="numbersign" format="2">
	<unicode hex="0023"/>
	<advance width="600"/>
	<outline>
		<contour>
			<point x="78" y="0" type="line"/>
			<point x="129" y="0" type="line"/>
			<point x="332" y="650" type="line"/>
			<point x="281" y="650" type="line"/>
		</contour>
		<contour>
			<point x="273" y="0" type="line"/>
			<point x="324" y="0" type="line"/>
			<point x="524" y="650" type="line"/>
			<point x="473" y="650" type="line"/>
		</contour>
		<contour>
			<point x="123" y="414" type="line"/>
			<point x="534" y="414" type="line"/>
			<point x="549" y="465" type="line"/>
			<point x="137" y="465" type="line"/>
		</contour>
		<contour>
			<point x="64" y="205" type="line"/>
			<point x="476" y="205" type="line"/>
			<point x="490" y="256" type="line"/>
			<point x="78" y="256" type="line"/>
		</contour>
	</outline>
</glyph>
<glyph name="ampersand" format="1">
	<unicode hex="0026"/>
	<advance width="600"/>
	<outline>
		<contour>
			<point x="182" y="-12" type="curve" smooth="yes"/>
			<point x="266" y="-12"/>
			<point x="345" y="26"/>
			<point x="406" y="89" type="curve" smooth="yes"/>
			<point x="476" y="161"/>
			<point x="531" y="249"/>
			<point x="577" y="349" type="curve"/>
			<point x="506" y="349" type="line"/>
			<point x="469" y="262"/>
			<point x="423" y="187"/>
			<point x="360" y="126" type="curve" smooth="yes"/>
			<point x="311" y="80"/>
			<point x="250" y="49"/>
			<point x="196" y="49" type="curve" smooth="yes"/>
			<point x="136" y="49"/>
			<point x="94" y="86"/>
			<point x="94" y="149" type="curve" smooth="yes"/>
			<point x="94" y="322"/>
			<point x="443" y="356"/>
			<point x="443" y="561" type="curve" smooth="yes"/>
			<point x="443" y="622"/>
			<point x="407" y="668"/>
			<point x="335" y="668" type="curve" smooth="yes"/>
			<point x="239" y="668"/>
			<point x="162" y="588"/>
			<point x="162" y="476" type="curve" smooth="yes"/>
			<point x="162" y="345"/>
			<point x="251" y="181"/>
			<point x="353" y="81" type="curve" smooth="yes"/>
			<point x="401" y="34"/>
			<point x="456" y="3"/>
			<point x="501" y="-12" type="curve"/>
			<point x="532" y="50" type="line"/>
			<point x="498" y="63"/>
			<point x="448" y="88"/>
			<point x="407" y="128" type="curve" smooth="yes"/>
			<point x="310" y="220"/>
			<point x="229" y="361"/>
			<point x="229" y="480" type="curve" smooth="yes"/>
			<point x="229" y="558"/>
			<point x="274" y="614"/>
			<point x="331" y="614" type="curve" smooth="yes"/>
			<point x="365" y="614"/>
			<point x="380" y="588"/>
			<point x="380" y="558" type="curve" smooth="yes"/>
			<point x="380" y="389"/>
			<point x="19" y="363"/>
			<point x="19" y="139" type="curve" smooth="yes"/>
			<point x="19" y="46"/>
			<point x="85" y="-12"/>
		</contour>
	</outline>
</glyph>
<glyph name="quotesingle" format="1">
	<unicode hex="0027"/>
	<advance width="600"/>
	<outline>
		<contour>
			<point x="286" y="358" type="line"/>
			<point x="338" y="358" type="line"/>
			<point x="408" y="581" type="line"/>
			<point x="430" y="687" type="line"/>
			<point x="327" y="687" type="line"/>
			<point x="307" y="581" type="line"/>
		</contour>
	</outline>
</glyph>
<glyph name="parenleft" format="1">
	<unicode hex="0028"/>
	<advance width="600"/>
	<outline>
		<contour>
			<point x="344" y="-176" type="curve"/>
			<point x="396" y="-135" type="line"/>
			<point x="309" y="-51"/>
			<point x="266" y="58"/>
			<point x="266" y="185" type="curve" smooth="yes"/>
			<point x="266" y="382"/>
			<point x="355" y="553"/>
			<point x="560" y="687" type="curve"/>
			<point x="524" y="734" type="line"/>
			<point x="321" y="611"/>
			<point x="197" y="422"/>
			<point x="197" y="183" type="curve" smooth="yes"/>
			<point x="197" y="36"/>
			<point x="252" y="-92"/>
		</contour>
	</outline>
</glyph>
<glyph name="plus" format="2">
	<unicode hex="002B"/>
	<advance width="600"/>
	<outline>
		<contour>
			<point x="269" y="105" type="line"/>
			<point x="331" y="105" type="line"/>
			<point x="331" y="301" type="line"/>
			<point x="513" y="301" type="line"/>
			<point x="513" y="359" type="line"/>
			<point x="331" y="359" type="line"/>
			<point x="331" y="555" type="line"/>
			<point x="269" y="555" type="line"/>
			<point x="269" y="359" type="line"/>
			<point x="87" y="359" type="line"/>
			<point x="87" y="301" type="line"/>
			<point x="269" y="301" type="line"/>
		</contour>
	</outline>
</glyph>
<glyph name="comma" format="1">
	<unicode hex="002C"/>
	<advance width="600"/>
	<outline>
		<contour>
			<point x="105" y="-203" type="line"/>
			<point x="242" y="-169"/>
			<point x="341" y="-69"/>
			<point x="341" y="60" type="curve" smooth="yes"/>
			<point x="341" y="118"/>
			<point x="315" y="150"/>
			<point x="273" y="150" type="curve" smooth="yes"/>
			<point x="225" y="150"/>
			<point x="185" y="111"/>
			<point x="185" y="63" type="curve" smooth="yes"/>
			<point x="185" y="24"/>
			<point x="211" y="-1"/>
			<point x="245" y="-1" type="curve" smooth="yes"/>
			<point x="266" y="-1"/>
			<point x="287" y="8"/>
			<point x="298" y="21" type="curve"/>
			<point x="272" y="65" type="line"/>
			<point x="261" y="7" type="line"/>
			<point x="250" y="-68"/>
			<point x="189" y="-130"/>
			<point x="94" y="-158" type="curve"/>
		</contour>
	</outline>
</glyph>
<glyph name="one" format="1">
	<unicode hex="0031"/>
	<advance width="600"/>
	<outline>
		<contour>
			<point x="39" y="0" type="line"/>
			<point x="471" y="0" type="line"/>
			<point x="483" y="64" type="line"/>
			<point x="312" y="64" type="line"/>
			<point x="428" y="638" type="line"/>
			<point x="370" y="638" type="line"/>
			<point x="329" y="615"/>
			<point x="271" y="600"/>
			<point x="201" y="592" type="curve"/>
			<point x="191" y="542" type="line"/>
			<point x="332" y="542" type="line"/>
			<point x="236" y="64" type="line"/>
			<point x="53" y="64" type="line"/>
		</contour>
	</outline>
</glyph>
<glyph name="two" format="1">
	<unicode hex="0032"/>
	<advance width="600"/>
	<outline>
		<contour>
			<point x="37" y="0" type="line"/>
			<point x="484" y="0" type="line"/>
			<point x="496" y="66" type="line"/>
			<point x="282" y="66" type="line" smooth="yes"/>
			<point x="242" y="66"/>
			<point x="209" y="66"/>
			<point x="162" y="62" type="curve"/>
			<point x="372" y="244"/>
			<point x="500" y="354"/>
			<point x="500" y="491" type="curve" smooth="yes"/>
			<point x="500" y="587"/>
			<point x="437" y="650"/>
			<point x="331" y="650" type="curve" smooth="yes"/>
			<point x="243" y="650"/>
			<point x="173" y="606"/>
			<point x="117" y="548" type="curve"/>
			<point x="158" y="502" type="line"/>
			<point x="205" y="552"/>
			<point x="260" y="587"/>
			<point x="319" y="587" type="curve" smooth="yes"/>
			<point x="392" y="587"/>
			<point x="425" y="547"/>
			<point x="425" y="484" type="curve" smooth="yes"/>
			<point x="425" y="363"/>
			<point x="297" y="257"/>
			<point x="44" y="46" type="curve"/>
		</contour>
	</outline>
</glyph>
<glyph name="three" format="1">
	<unicode hex="0033"/>
	<advance width="600"/>
	<outline>
		<contour>
			<point x="247" y="-12" type="curve" smooth="yes"/>
			<point x="382" y="-12"/>
			<point x="484" y="56"/>
			<point x="484" y="183" type="curve" smooth="yes"/>
			<point x="484" y="255"/>
			<point x="439" y="306"/>
			<point x="350" y="327" type="curve"/>
			<point x="350" y="330" type="line"/>
			<point x="466" y="357"/>
			<point x="516" y="419"/>
			<point x="516" y="508" type="curve" smooth="yes"/>
			<point x="516" y="598"/>
			<point x="442" y="650"/>
			<point x="339" y="650" type="curve" smooth="yes"/>
			<point x="260" y="650"/>
			<point x="192" y="619"/>
			<point x="138" y="574" type="curve"/>
			<point x="175" y="526" type="line"/>
			<point x="219" y="562"/>
			<point x="267" y="587"/>
			<point x="327" y="587" type="curve" smooth="yes"/>
			<point x="393" y="587"/>
			<point x="438" y="554"/>
			<point x="438" y="494" type="curve" smooth="yes"/>
			<point x="438" y="418"/>
			<point x="376" y="359"/>
			<point x="217" y="359" type="curve"/>
			<point x="207" y="301" type="line"/>
			<point x="355" y="299"/>
			<point x="408" y="253"/>
			<point x="408" y="180" type="curve" smooth="yes"/>
			<point x="408" y="98"/>
			<point x="337" y="52"/>
			<point x="248" y="52" type="curve" smooth="yes"/>
			<point x="168" y="52"/>
			<point x="113" y="93"/>
			<point x="80" y="137" type="curve"/>
			<point x="30" y="96" type="line"/>
			<point x="75" y="36"/>
			<point x="146" y="-12"/>
		</contour>
	</outline>
</glyph>
<glyph name="four" format="1">
	<unicode hex="0034"/>
	<advance width="600"/>
	<outline>
		<contour>
			<point x="318" y="0" type="line"/>
			<point x="389" y="0" type="line"/>
			<point x="516" y="638" type="line"/>
			<point x="434" y="638" type="line"/>
			<point x="30" y="229" type="line"/>
			<point x="20" y="178" type="line"/>
			<point x="524" y="178" type="line"/>
			<point x="537" y="240" type="line"/>
			<point x="122" y="240" type="line"/>
			<point x="348" y="466" type="line" smooth="yes"/>
			<point x="376" y="496"/>
			<point x="403" y="528"/>
			<point x="429" y="559" type="curve"/>
			<point x="432" y="559" type="line"/>
			<point x="423" y="525"/>
			<point x="414" y="485"/>
			<point x="406" y="448" type="curve" smooth="yes"/>
		</contour>
	</outline>
</glyph>
<glyph name="six" format="1">
	<unicode hex="0036"/>
	<advance width="600"/>
	<outline>
		<contour>
			<point x="273" y="-12" type="curve" smooth="yes"/>
			<point x="408" y="-12"/>
			<point x="508" y="96"/>
			<point x="508" y="228" type="curve" smooth="yes"/>
			<point x="508" y="347"/>
			<point x="428" y="396"/>
			<point x="338" y="396" type="curve" smooth="yes"/>
			<point x="258" y="396"/>
			<point x="181" y="351"/>
			<point x="136" y="292" type="curve"/>
			<point x="132" y="232" type="line"/>
			<point x="188" y="304"/>
			<point x="252" y="340"/>
			<point x="320" y="340" type="curve" smooth="yes"/>
			<point x="382" y="340"/>
			<point x="437" y="303"/>
			<point x="437" y="219" type="curve" smooth="yes"/>
			<point x="437" y="132"/>
			<point x="373" y="48"/>
			<point x="278" y="48" type="curve" smooth="yes"/>
			<point x="197" y="48"/>
			<point x="137" y="108"/>
			<point x="137" y="217" type="curve" smooth="yes"/>
			<point x="137" y="473"/>
			<point x="266" y="586"/>
			<point x="385" y="586" type="curve" smooth="yes"/>
			<point x="435" y="586"/>
			<point x="474" y="569"/>
			<point x="507" y="524" type="curve"/>
			<point x="557" y="565" type="line"/>
			<point x="525" y="614"/>
			<point x="466" y="650"/>
			<point x="390" y="650" type="curve" smooth="yes"/>
			<point x="221" y="650"/>
			<point x="65" y="503"/>
			<point x="65" y="219" type="curve" smooth="yes"/>
			<point x="65" y="78"/>
			<point x="151" y="-12"/>
		</contour>
	</outline>
</glyph>
<glyph name="nine" format="2">
	<unicode hex="0039"/>
	<advance width="600"/>
	<outline>
		<contour>
			<point x="212" y="-12" type="curve" smooth="yes"/>
			<point x="381" y="-12"/>
			<point x="536" y="135"/>
			<point x="536" y="419" type="curve" smooth="yes"/>
			<point x="536" y="560"/>
			<point x="451" y="650"/>
			<point x="328" y="650" type="curve" smooth="yes"/>
			<point x="193" y="650"/>
			<point x="93" y="542"/>
			<point x="93" y="410" type="curve" smooth="yes"/>
			<point x="93" y="291"/>
			<point x="174" y="242"/>
			<point x="263" y="242" type="curve" smooth="yes"/>
			<point x="343" y="242"/>
			<point x="420" y="287"/>
			<point x="466" y="346" type="curve"/>
			<point x="469" y="406" type="line"/>
			<point x="414" y="334"/>
			<point x="349" y="298"/>
			<point x="281" y="298" type="curve" smooth="yes"/>
			<point x="219" y="298"/>
			<point x="164" y="335"/>
			<point x="164" y="419" type="curve" smooth="yes"/>
			<point x="164" y="506"/>
			<point x="228" y="590"/>
			<point x="324" y="590" type="curve" smooth="yes"/>
			<point x="404" y="590"/>
			<point x="464" y="530"/>
			<point x="464" y="421" type="curve" smooth="yes"/>
			<point x="464" y="165"/>
			<point x="335" y="52"/>
			<point x="217" y="52" type="curve" smooth="yes"/>
			<point x="166" y="52"/>
			<point x="127" y="69"/>
			<point x="95" y="114" type="curve"/>
			<point x="44" y="73" type="line"/>
			<point x="77" y="24"/>
			<point x="135" y="-12"/>
		</contour>
	</outline>
</glyph>
<glyph name="less" format="1">
	<unicode hex="003C"/>
	<advance width="600"/>
	<outline>
		<contour>
			<point x="493" y="49" type="line"/>
			<point x="493" y="125" type="line"/>
			<point x="188" y="330" type="line"/>
			<point x="188" y="334" type="line"/>
			<point x="493" y="539" type="line"/>
			<point x="493" y="615" type="line"/>
			<point x="121" y="362" type="line"/>
			<point x="121" y="302" type="line"/>
		</contour>
	</outline>
</glyph>
<glyph name="A" format="1">
	<unicode hex="0041"/>
	<advance width="600"/>
	<outline>
		<contour>
			<point x="-23" y="0" type="line"/>
			<point x="62" y="0" type="line"/>
			<point x="256" y="379" type="line" smooth="yes"/>
			<point x="292" y="452"/>
			<point x="325" y="519"/>
			<point x="362" y="591" type="curve"/>
			<point x="366" y="591" type="line"/>
			<point x="373" y="521"/>
			<point x="379" y="447"/>
			<point x="386" y="377" type="curve" smooth="yes"/>
			<point x="423" y="0" type="line"/>
			<point x="503" y="0" type="line"/>
			<point x="422" y="656" type="line"/>
			<point x="333" y="656" type="line"/>
		</contour>
		<contour>
			<point x="137" y="205" type="line"/>
			<point x="429" y="205" type="line"/>
			<point x="440" y="265" type="line"/>
			<point x="152" y="265" type="line"/>
		</contour>
		<contour>
			<point name="aboveUC" x="373" y="676" type="move"/>
		</contour>
		<contour>
			<point name="ogonekCXT-ATH" x="254" y="0" type="move"/>
		</contour>
		<contour>
			<point name="ogonekUC" x="448" y="0" type="move"/>
		</contour>
		<contour>
			<point name="baseLC" x="465" y="0" type="move"/>
		</contour>
		<contour>
			<point name="belowLC" x="250" y="-20" type="move"/>
		</contour>
	</outline>
</glyph>
<glyph name="E" format="2">
	<unicode hex="0045"/>
	<advance width="600"/>
	<outline>
		<contour>
			<point x="60" y="0" type="line"/>
			<point x="473" y="0" type="line"/>
			<point x="486" y="66" type="line"/>
			<point x="150" y="66" type="line"/>
			<point x="201" y="312" type="line"/>
			<point x="473" y="312" type="line"/>
			<point x="486" y="378" type="line"/>
			<point x="213" y="378" type="line"/>
			<point x="255" y="591" type="line"/>
			<point x="582" y="591" type="line"/>
			<point x="595" y="656" type="line"/>
			<point x="192" y="656" type="line"/>
		</contour>
	</outline>
	<anchor name="aboveUC" x="406" y="676"/>
	<anchor name="baseLC" x="289" y="0"/>
	<anchor name="belowLC" x="279" y="-20"/>
	<anchor name="ogonekLC" x="283" y="0"/>
	<anchor name="ogonekUC" x="395" y="0"/>
</glyph>
<glyph name="F" format="1">
	<unicode hex="0046"/>
	<advance width="600"/>
	<outline>
		<contour>
			<point x="79" y="0" type="line"/>
			<point x="157" y="0" type="line"/>
			<point x="217" y="297" type="line"/>
			<point x="483" y="297" type="line"/>
			<point x="497" y="363" type="line"/>
			<point x="229" y="363" type="line"/>
			<point x="274" y="591" type="line"/>
			<point x="595" y="591" type="line"/>
			<point x="609" y="656" type="line"/>
			<point x="210" y="656" type="line"/>
		</contour>
		<contour>
			<point name="aboveUC" x="417" y="676" type="move"/>
		</contour>
		<contour>
			<point name="baseLC" x="120" y="0" type="move"/>
		</contour>
		<contour>
			<point name="belowLC" x="124" y="-20" type="move"/>
		</contour>
	</outline>
</glyph>
<glyph name="I" format="2">
	<unicode hex="0049"/>
	<advance width="600"/>
	<outline>
		<contour>
			<point x="35" y="0" type="line"/>
			<point x="439" y="0" type="line"/>
			<point x="454" y="66" type="line"/>
			<point x="288" y="66" type="line"/>
			<point x="394" y="591" type="line"/>
			<point x="559" y="591" type="line"/>
			<point x="573" y="656" type="line"/>
			<point x="167" y="656" type="line"/>
			<point x="152" y="591" type="line"/>
			<point x="316" y="591" type="line"/>
			<point x="211" y="66" type="line"/>
			<point x="49" y="66" type="line"/>
		</contour>
	</outline>
	<anchor name="aboveUC" x="373" y="676"/>
	<anchor name="baseLC" x="238" y="0"/>
	<anchor name="belowLC" x="234" y="-20"/>
	<anchor name="ogonekUC" x="238" y="0"/>
</glyph>
<glyph name="L" format="1">
	<unicode hex="004C"/>
	<advance width="600"/>
	<outline>
		<contour>
			<point x="99" y="0" type="line"/>
			<point x="502" y="0" type="line"/>
			<point x="515" y="66" type="line"/>
			<point x="190" y="66" type="line"/>
			<point x="308" y="656" type="line"/>
			<point x="230" y="656" type="line"/>
		</contour>
		<contour>
			<point name="aboveUC" x="275" y="676" type="move"/>
		</contour>
		<contour>
			<point name="center" x="204" y="337" type="move"/>
		</contour>
		<contour>
			<point name="baseLC" x="315" y="0" type="move"/>
		</contour>
		<contour>
			<point name="belowLC" x="305" y="-20" type="move"/>
		</contour>
	</outline>
</glyph>
<glyph name="M" format="1">
	<unicode hex="004D"/>
	<advance width="600"/>
	<outline>
		<contour>
			<point x="15" y="0" type="line"/>
			<point x="86" y="0" type="line"/>
			<point x="166" y="394" type="line" smooth="yes"/>
			<point x="174" y="432"/>
			<point x="182" y="510"/>
			<point x="188" y="568" type="curve"/>
			<point x="192" y="568" type="line"/>
			<point x="196" y="545"/>
			<point x="203" y="457"/>
			<point x="206" y="436" type="curve" smooth="yes"/>
			<point x="240" y="178" type="line"/>
			<point x="304" y="178" type="line"/>
			<point x="444" y="441" type="line" smooth="yes"/>
			<point x="464" y="478"/>
			<point x="498" y="546"/>
			<point x="509" y="568" type="curve"/>
			<point x="513" y="568" type="line"/>
			<point x="498" y="516"/>
			<point x="474" y="436"/>
			<point x="464" y="386" type="curve" smooth="yes"/>
			<point x="386" y="0" type="line"/>
			<point x="459" y="0" type="line"/>
			<point x="589" y="656" type="line"/>
			<point x="496" y="656" type="line"/>
			<point x="332" y="358" type="line"/>
			<point x="288" y="262" type="line"/>
			<point x="284" y="262" type="line"/>
			<point x="278" y="359" type="line"/>
			<point x="240" y="656" type="line"/>
			<point x="146" y="656" type="line"/>
		</contour>
		<contour>
			<point name="aboveUC" x="373" y="676" type="move"/>
		</contour>
		<contour>
			<point name="baseLC" x="425" y="0" type="move"/>
		</contour>
		<contour>
			<point name="belowLC" x="234" y="-20" type="move"/>
		</contour>
	</outline>
</glyph>
<glyph name="N" format="2">
	<unicode hex="004E"/>
	<advance width="600"/>
	<outline>
		<contour>
			<point x="25" y="0" type="line"/>
			<point x="99" y="0" type="line"/>
			<point x="168" y="351" type="line" smooth="yes"/>
			<point x="180" y="414"/>
			<point x="190" y="492"/>
			<point x="199" y="558" type="curve"/>
			<point x="203" y="558" type="line"/>
			<point x="240" y="422" type="line"/>
			<point x="375" y="0" type="line"/>
			<point x="453" y="0" type="line"/>
			<point x="584" y="656" type="line"/>
			<point x="510" y="656" type="line"/>
			<point x="440" y="301" type="line" smooth="yes"/>
			<point x="429" y="246"/>
			<point x="418" y="164"/>
			<point x="410" y="99" type="curve"/>
			<point x="406" y="99" type="line"/>
			<point x="369" y="234" type="line"/>
			<point x="235" y="656" type="line"/>
			<point x="156" y="656" type="line"/>
		</contour>
	</outline>
	<anchor name="aboveUC" x="373" y="676"/>
	<anchor name="baseLC" x="417" y="0"/>
	<anchor name="belowLC" x="249" y="-20"/>
</glyph>
<glyph name="P" format="2">
	<unicode hex="0050"/>
	<advance width="600"/>
	<outline>
		<contour>
			<point x="52" y="0" type="line"/>
			<point x="129" y="0" type="line"/>
			<point x="182" y="264" type="line"/>
			<point x="287" y="264" type="line" smooth="yes"/>
			<point x="454" y="264"/>
			<point x="573" y="335"/>
			<point x="573" y="496" type="curve" smooth="yes"/>
			<point x="573" y="610"/>
			<point x="490" y="656"/>
			<point x="366" y="656" type="curve" smooth="yes"/>
			<point x="183" y="656" type="line"/>
		</contour>
		<contour>
			<point x="195" y="327" type="line"/>
			<point x="247" y="594" type="line"/>
			<point x="346" y="594" type="line" smooth="yes"/>
			<point x="444" y="594"/>
			<point x="495" y="562"/>
			<point x="495" y="486" type="curve" smooth="yes"/>
			<point x="495" y="381"/>
			<point x="423" y="327"/>
			<point x="287" y="327" type="curve" smooth="yes"/>
		</contour>
	</outline>
	<anchor name="aboveUC" x="384" y="676"/>
	<anchor name="belowLC" x="97" y="-20"/>
</glyph>
<glyph name="T" format="1">
	<unicode hex="0054"/>
	<advance width="600"/>
	<outline>
		<contour>
			<point x="198" y="0" type="line"/>
			<point x="276" y="0" type="line"/>
			<point x="393" y="589" type="line"/>
			<point x="611" y="589" type="line"/>
			<point x="625" y="656" type="line"/>
			<point x="111" y="656" type="line"/>
			<point x="98" y="589" type="line"/>
			<point x="316" y="589" type="line"/>
		</contour>
		<contour>
			<point name="aboveUC" x="373" y="676" type="move"/>
		</contour>
		<contour>
			<point name="baseLC" x="239" y="0" type="move"/>
		</contour>
		<contour>
			<point name="belowLC" x="235" y="-20" type="move"/>
		</contour>
	</outline>
</glyph>
<glyph name="U" format="1">
	<unicode hex="0055"/>
	<advance width="600"/>
	<outline>
		<contour>
			<point x="255" y="-12" type="curve" smooth="yes"/>
			<point x="375" y="-12"/>
			<point x="468" y="53"/>
			<point x="506" y="244" type="curve" smooth="yes"/>
			<point x="588" y="656" type="line"/>
			<point x="512" y="656" type="line"/>
			<point x="432" y="252" type="line" smooth="yes"/>
			<point x="403" y="105"/>
			<point x="340" y="55"/>
			<point x="265" y="55" type="curve" smooth="yes"/>
			<point x="183" y="55"/>
			<point x="141" y="106"/>
			<point x="141" y="195" type="curve" smooth="yes"/>
			<point x="141" y="220"/>
			<point x="145" y="246"/>
			<point x="152" y="277" type="curve" smooth="yes"/>
			<point x="227" y="656" type="line"/>
			<point x="149" y="656" type="line"/>
			<point x="74" y="279" type="line" smooth="yes"/>
			<point x="67" y="245"/>
			<point x="64" y="217"/>
			<point x="64" y="186" type="curve" smooth="yes"/>
			<point x="64" y="64"/>
			<point x="132" y="-12"/>
		</contour>
		<contour>
			<point name="aboveUC" x="373" y="676" type="move"/>
		</contour>
		<contour>
			<point name="hornLC" x="455" y="666" type="move"/>
		</contour>
		<contour>
			<point name="ogonekUC" x="238" y="0" type="move"/>
		</contour>
		<contour>
			<point name="baseLC" x="238" y="0" type="move"/>
		</contour>
		<contour>
			<point name="belowLC" x="233" y="-20" type="move"/>
		</contour>
	</outline>
</glyph>
<glyph name="V" format="2">
	<unicode hex="0056"/>
	<advance width="600"/>
	<outline>
		<contour>
			<point x="188" y="0" type="line"/>
			<point x="281" y="0" type="line"/>
			<point x="632" y="656" type="line"/>
			<point x="547" y="656" type="line"/>
			<point x="361" y="292" type="line" smooth="yes"/>
			<point x="329" y="230"/>
			<point x="287" y="145"/>
			<point x="254" y="76" type="curve"/>
			<point x="250" y="76" type="line"/>
			<point x="244" y="148"/>
			<point x="239" y="221"/>
			<point x="233" y="292" type="curve" smooth="yes"/>
			<point x="202" y="656" type="line"/>
			<point x="122" y="656" type="line"/>
		</contour>
	</outline>
	<anchor name="aboveUC" x="369" y="676"/>
	<anchor name="belowLC" x="233" y="-20"/>
</glyph>
<glyph name="X" format="1">
	<unicode hex="0058"/>
	<advance width="600"/>
	<outline>
		<contour>
			<point x="-4" y="0" type="line"/>
			<point x="82" y="0" type="line"/>
			<point x="219" y="181" type="line" smooth="yes"/>
			<point x="240" y="209"/>
			<point x="265" y="247"/>
			<point x="290" y="283" type="curve"/>
			<point x="294" y="283" type="line"/>
			<point x="304" y="254"/>
			<point x="321" y="205"/>
			<point x="331" y="182" type="curve" smooth="yes"/>
			<point x="403" y="0" type="line"/>
			<point x="487" y="0" type="line"/>
			<point x="351" y="332" type="line"/>
			<point x="602" y="657" type="line"/>
			<point x="516" y="657" type="line"/>
			<point x="384" y="484" type="line" smooth="yes"/>
			<point x="370" y="464"/>
			<point x="340" y="418"/>
			<point x="319" y="386" type="curve"/>
			<point x="315" y="386" type="line"/>
			<point x="306" y="415"/>
			<point x="293" y="456"/>
			<point x="282" y="485" type="curve" smooth="yes"/>
			<point x="214" y="657" type="line"/>
			<point x="130" y="657" type="line"/>
			<point x="257" y="344" type="line"/>
		</contour>
		<contour>
			<point name="aboveUC" x="369" y="676" type="move"/>
		</contour>
		<contour>
			<point name="baseLC" x="448" y="0" type="move"/>
		</contour>
		<contour>
			<point name="belowLC" x="240" y="-20" type="move"/>
		</contour>
	</outline>
</glyph>
<glyph name="Z" format="1">
	<unicode hex="005A"/>
	<advance width="600"/>
	<outline>
		<contour>
			<point x="115" y="43" type="line"/>
			<point x="576" y="610" type="line"/>
			<point x="586" y="657" type="line"/>
			<point x="140" y="657" type="line"/>
			<point x="127" y="592" type="line"/>
			<point x="521" y="592" type="line"/>
			<point x="493" y="621" type="line"/>
			<point x="26" y="46" type="line"/>
			<point x="17" y="0" type="line"/>
			<point x="484" y="0" type="line"/>
			<point x="498" y="65" type="line"/>
			<point x="93" y="65" type="line"/>
		</contour>
		<contour>
			<point name="aboveUC" x="360" y="676" type="move"/>
		</contour>
		<contour>
			<point name="baseLC" x="283" y="0" type="move"/>
		</contour>
		<contour>
			<point name="belowLC" x="266" y="-20" type="move"/>
		</contour>
	</outline>
</glyph>
<glyph name="bracketleft" format="2">
	<unicode hex="005B"/>
	<advance width="600"/>
	<outline>
		<contour>
			<point x="127" y="-152" type="line"/>
			<point x="400" y="-152" type="line"/>
			<point x="408" y="-107" type="line"/>
			<point x="196" y="-107" type="line"/>
			<point x="350" y="663" type="line"/>
			<point x="563" y="663" type="line"/>
			<point x="571" y="708" type="line"/>
			<point x="300" y="708" type="line"/>
		</contour>
	</outline>
</glyph>
<glyph name="asciicircum" format="1">
	<unicode hex="005E"/>
	<advance width="600"/>
	<outline>
		<contour>
			<point x="113" y="285" type="line"/>
			<point x="181" y="285" type="line"/>
			<point x="249" y="465" type="line"/>
			<point x="298" y="597" type="line"/>
			<point x="302" y="597" type="line"/>
			<point x="351" y="465" type="line"/>
			<point x="419" y="285" type="line"/>
			<point x="487" y="285" type="line"/>
			<point x="334" y="670" type="line"/>
			<point x="266" y="670" type="line"/>
		</contour>
	</outline>
</glyph>
<glyph name="a" format="2">
	<unicode hex="0061"/>
	<advance width="600"/>
	<outline>
		<contour>
			<point x="219" y="-12" type="curve" smooth="yes"/>
			<point x="281" y="-12"/>
			<point x="346" y="22"/>
			<point x="397" y="74" type="curve"/>
			<point x="401" y="74" type="line"/>
			<point x="393" y="0" type="line"/>
			<point x="456" y="0" type="line"/>
			<point x="553" y="486" type="line"/>
			<point x="491" y="486" type="line"/>
			<point x="472" y="425" type="line"/>
			<point x="468" y="425" type="line"/>
			<point x="441" y="469"/>
			<point x="388" y="498"/>
			<point x="319" y="498" type="curve" smooth="yes"/>
			<point x="171" y="498"/>
			<point x="52" y="348"/>
			<point x="52" y="174" type="curve" smooth="yes"/>
			<point x="52" y="53"/>
			<point x="118" y="-12"/>
		</contour>
		<contour>
			<point x="242" y="52" type="curve" smooth="yes"/>
			<point x="174" y="52"/>
			<point x="131" y="94"/>
			<point x="131" y="186" type="curve" smooth="yes"/>
			<point x="131" y="316"/>
			<point x="218" y="434"/>
			<point x="329" y="434" type="curve" smooth="yes"/>
			<point x="375" y="434"/>
			<point x="421" y="413"/>
			<point x="454" y="362" type="curve"/>
			<point x="409" y="146" type="line"/>
			<point x="356" y="85"/>
			<point x="295" y="52"/>
		</contour>
	</outline>
	<anchor name="aboveLC" x="354" y="507"/>
	<anchor name="baseLC" x="423" y="0"/>
	<anchor name="belowLC" x="249" y="-20"/>
	<anchor name="ogonekCXT-ATH" x="242" y="0"/>
	<anchor name="ogonekLC" x="399" y="0"/>
</glyph>
<glyph name="c" format="2">
	<unicode hex="0063"/>
	<advance width="600"/>
	<outline>
		<contour>
			<point x="291" y="-12" type="curve" smooth="yes"/>
			<point x="364" y="-12"/>
			<point x="436" y="20"/>
			<point x="487" y="67" type="curve"/>
			<point x="456" y="119" type="line"/>
			<point x="411" y="80"/>
			<point x="358" y="52"/>
			<point x="301" y="52" type="curve" smooth="yes"/>
			<point x="211" y="52"/>
			<point x="144" y="104"/>
			<point x="144" y="211" type="curve" smooth="yes"/>
			<point x="144" y="335"/>
			<point x="249" y="434"/>
			<point x="350" y="434" type="curve" smooth="yes"/>
			<point x="413" y="434"/>
			<point x="458" y="412"/>
			<point x="494" y="367" type="curve"/>
			<point x="543" y="411" type="line"/>
			<point x="508" y="457"/>
			<point x="445" y="498"/>
			<point x="360" y="498" type="curve" smooth="yes"/>
			<point x="208" y="498"/>
			<point x="67" y="379"/>
			<point x="67" y="202" type="curve" smooth="yes"/>
			<point x="67" y="60"/>
			<point x="164" y="-12"/>
		</contour>
	</outline>
	<anchor name="aboveLC" x="364" y="507"/>
	<anchor name="baseLC" x="274" y="0"/>
	<anchor name="belowLC" x="271" y="-20"/>
</glyph>
<glyph name="k" format="2">
	<unicode hex="006B"/>
	<advance width="600"/>
	<outline>
		<contour>
			<point x="49" y="0" type="line"/>
			<point x="126" y="0" type="line"/>
			<point x="152" y="128" type="line"/>
			<point x="331" y="270" type="line"/>
			<point x="585" y="486" type="line"/>
			<point x="492" y="486" type="line"/>
			<point x="175" y="228" type="line"/>
			<point x="171" y="228" type="line"/>
			<point x="268" y="712" type="line"/>
			<point x="192" y="712" type="line"/>
		</contour>
		<contour>
			<point x="296" y="257" type="line"/>
			<point x="429" y="0" type="line"/>
			<point x="509" y="0" type="line"/>
			<point x="348" y="308" type="line"/>
		</contour>
	</outline>
	<anchor name="aboveUC" x="229" y="733"/>
	<anchor name="belowLC" x="279" y="-20"/>
</glyph>
<glyph name="l" format="1">
	<unicode hex="006C"/>
	<advance width="600"/>
	<outline>
		<contour>
			<point x="325" y="-12" type="curve" smooth="yes"/>
			<point x="373" y="-12"/>
			<point x="417" y="-1"/>
			<point x="460" y="20" type="curve"/>
			<point x="441" y="79" type="line"/>
			<point x="406" y="61"/>
			<point x="378" y="52"/>
			<point x="346" y="52" type="curve" smooth="yes"/>
			<point x="301" y="52"/>
			<point x="272" y="74"/>
			<point x="272" y="124" type="curve" smooth="yes"/>
			<point x="272" y="138"/>
			<point x="274" y="153"/>
			<point x="277" y="168" type="curve" smooth="yes"/>
			<point x="391" y="712" type="line"/>
			<point x="154" y="712" type="line"/>
			<point x="141" y="650" type="line"/>
			<point x="303" y="650" type="line"/>
			<point x="202" y="171" type="line" smooth="yes"/>
			<point x="197" y="150"/>
			<point x="195" y="134"/>
			<point x="195" y="117" type="curve" smooth="yes"/>
			<point x="195" y="32"/>
			<point x="250" y="-12"/>
		</contour>
		<contour>
			<point name="aboveUC" x="350" y="736" type="move"/>
		</contour>
		<contour>
			<point name="center" x="285" y="385" type="move"/>
		</contour>
		<contour>
			<point name="baseLC" x="326" y="0" type="move"/>
		</contour>
		<contour>
			<point name="belowLC" x="323" y="-20" type="move"/>
		</contour>
	</outline>
</glyph>
<glyph name="o" format="1">
	<unicode hex="006F"/>
	<advance width="600"/>
	<outline>
		<contour>
			<point x="250" y="-12" type="curve" smooth="yes"/>
			<point x="398" y="-12"/>
			<point x="529" y="115"/>
			<point x="529" y="285" type="curve" smooth="yes"/>
			<point x="529" y="411"/>
			<point x="453" y="498"/>
			<point x="326" y="498" type="curve" smooth="yes"/>
			<point x="177" y="498"/>
			<point x="46" y="371"/>
			<point x="46" y="201" type="curve" smooth="yes"/>
			<point x="46" y="75"/>
			<point x="122" y="-12"/>
		</contour>
		<contour>
			<point x="255" y="52" type="curve" smooth="yes"/>
			<point x="173" y="52"/>
			<point x="124" y="112"/>
			<point x="124" y="206" type="curve" smooth="yes"/>
			<point x="124" y="332"/>
			<point x="217" y="434"/>
			<point x="320" y="434" type="curve" smooth="yes"/>
			<point x="403" y="434"/>
			<point x="452" y="375"/>
			<point x="452" y="280" type="curve" smooth="yes"/>
			<point x="452" y="154"/>
			<point x="358" y="52"/>
		</contour>
		<contour>
			<point name="hornLC" x="351" y="486" type="move"/>
		</contour>
		<contour>
			<point name="aboveLC" x="339" y="507" type="move"/>
		</contour>
		<contour>
			<point name="ogonekLC" x="239" y="0" type="move"/>
		</contour>
		<contour>
			<point name="baseLC" x="239" y="0" type="move"/>
		</contour>
		<contour>
			<point name="belowLC" x="234" y="-20" type="move"/>
		</contour>
	</outline>
</glyph>
<glyph name="q" format="1">
	<unicode hex="0071"/>
	<advance width="600"/>
	<outline>
		<contour>
			<point x="339" y="-205" type="line"/>
			<point x="415" y="-205" type="line"/>
			<point x="553" y="486" type="line"/>
			<point x="492" y="486" type="line"/>
			<point x="472" y="425" type="line"/>
			<point x="468" y="425" type="line"/>
			<point x="441" y="469"/>
			<point x="388" y="498"/>
			<point x="319" y="498" type="curve" smooth="yes"/>
			<point x="171" y="498"/>
			<point x="52" y="348"/>
			<point x="52" y="174" type="curve" smooth="yes"/>
			<point x="52" y="53"/>
			<point x="118" y="-12"/>
			<point x="218" y="-12" type="curve" smooth="yes"/>
			<point x="280" y="-12"/>
			<point x="347" y="22"/>
			<point x="398" y="74" type="curve"/>
			<point x="402" y="74" type="line"/>
			<point x="394" y="54"/>
			<point x="374" y="-36"/>
			<point x="372" y="-44" type="curve"/>
		</contour>
		<contour>
			<point x="242" y="52" type="curve" smooth="yes"/>
			<point x="174" y="52"/>
			<point x="131" y="95"/>
			<point x="131" y="186" type="curve" smooth="yes"/>
			<point x="131" y="316"/>
			<point x="218" y="434"/>
			<point x="329" y="434" type="curve" smooth="yes"/>
			<point x="375" y="434"/>
			<point x="420" y="413"/>
			<point x="453" y="362" type="curve"/>
			<point x="409" y="146" type="line"/>
			<point x="356" y="85"/>
			<point x="295" y="52"/>
		</contour>
		<contour>
			<point name="aboveLC" x="355" y="507" type="move"/>
		</contour>
		<contour>
			<point name="belowLC" x="373" y="-219" type="move"/>
		</contour>
	</outline>
</glyph>
<glyph name="r" format="2">
	<unicode hex="0072"/>
	<advance width="600"/>
	<outline>
		<contour>
			<point x="97" y="0" type="line"/>
			<point x="173" y="0" type="line"/>
			<point x="224" y="253" type="line"/>
			<point x="291" y="357"/>
			<point x="369" y="428"/>
			<point x="444" y="428" type="curve" smooth="yes"/>
			<point x="476" y="428"/>
			<point x="500" y="423"/>
			<point x="525" y="407" type="curve"/>
			<point x="555" y="473" type="line"/>
			<point x="532" y="489"/>
			<point x="500" y="498"/>
			<point x="457" y="498" type="curve" smooth="yes"/>
			<point x="373" y="498"/>
			<point x="294" y="430"/>
			<point x="240" y="347" type="curve"/>
			<point x="236" y="347" type="line"/>
			<point x="257" y="486" type="line"/>
			<point x="194" y="486" type="line"/>
		</contour>
	</outline>
	<anchor name="aboveLC" x="376" y="507"/>
	<anchor name="baseLC" x="137" y="0"/>
	<anchor name="belowLC" x="137" y="-20"/>
</glyph>
<glyph name="x" format="2">
	<unicode hex="0078"/>
	<advance width="600"/>
	<outline>
		<contour>
			<point x="10" y="0" type="line"/>
			<point x="100" y="0" type="line"/>
			<point x="208" y="121" type="line" smooth="yes"/>
			<point x="226" y="142"/>
			<point x="256" y="178"/>
			<point x="275" y="201" type="curve"/>
			<point x="280" y="201" type="line"/>
			<point x="293" y="177"/>
			<point x="311" y="141"/>
			<point x="324" y="117" type="curve" smooth="yes"/>
			<point x="388" y="0" type="line"/>
			<point x="470" y="0" type="line"/>
			<point x="331" y="246" type="line"/>
			<point x="554" y="486" type="line"/>
			<point x="464" y="486" type="line"/>
			<point x="365" y="375" type="line" smooth="yes"/>
			<point x="347" y="355"/>
			<point x="317" y="313"/>
			<point x="300" y="292" type="curve"/>
			<point x="296" y="292" type="line"/>
			<point x="286" y="314"/>
			<point x="269" y="352"/>
			<point x="257" y="375" type="curve" smooth="yes"/>
			<point x="199" y="486" type="line"/>
			<point x="119" y="486" type="line"/>
			<point x="244" y="253" type="line"/>
		</contour>
	</outline>
	<anchor name="aboveLC" x="330" y="507"/>
	<anchor name="baseLC" x="426" y="0"/>
	<anchor name="belowLC" x="242" y="-20"/>
</glyph>
<glyph name="y" format="1">
	<unicode hex="0079"/>
	<advance width="600"/>
	<outline>
		<contour>
			<point x="33" y="-209" type="curve" smooth="yes"/>
			<point x="132" y="-209"/>
			<point x="187" y="-159"/>
			<point x="252" y="-52" type="curve" smooth="yes"/>
			<point x="583" y="486" type="line"/>
			<point x="503" y="486" type="line"/>
			<point x="340" y="214" type="line" smooth="yes"/>
			<point x="315" y="171"/>
			<point x="281" y="110"/>
			<point x="258" y="66" type="curve"/>
			<point x="254" y="66" type="line"/>
			<point x="246" y="110"/>
			<point x="234" y="171"/>
			<point x="225" y="214" type="curve" smooth="yes"/>
			<point x="161" y="486" type="line"/>
			<point x="87" y="486" type="line"/>
			<point x="208" y="-2" type="line"/>
			<point x="178" y="-50" type="line" smooth="yes"/>
			<point x="131" y="-123"/>
			<point x="98" y="-150"/>
			<point x="38" y="-150" type="curve" smooth="yes"/>
			<point x="17" y="-150"/>
			<point x="-4" y="-144"/>
			<point x="-20" y="-136" type="curve"/>
			<point x="-44" y="-191" type="line"/>
			<point x="-24" y="-203"/>
			<point x="2" y="-209"/>
		</contour>
		<contour>
			<point name="ogonekLC" x="137" y="-141" type="move"/>
		</contour>
		<contour>
			<point name="aboveLC" x="330" y="507" type="move"/>
		</contour>
		<contour>
			<point name="belowLC" x="190" y="-219" type="move"/>
		</contour>
	</outline>
</glyph>
<glyph name="braceright" format="1">
	<unicode hex="007D"/>
	<advance width="600"/>
	<outline>
		<contour>
			<point x="9" y="-152" type="line"/>
			<point x="111" y="-152" type="line" smooth="yes"/>
			<point x="197" y="-152"/>
			<point x="256" y="-121"/>
			<point x="278" y="-17" type="curve" smooth="yes"/>
			<point x="292" y="51"/>
			<point x="296" y="110"/>
			<point x="309" y="174" type="curve" smooth="yes"/>
			<point x="317" y="212"/>
			<point x="346" y="253"/>
			<point x="469" y="253" type="curve"/>
			<point x="481" y="303" type="line"/>
			<point x="367" y="303"/>
			<point x="348" y="336"/>
			<point x="348" y="369" type="curve" smooth="yes"/>
			<point x="348" y="423"/>
			<point x="403" y="549"/>
			<point x="403" y="618" type="curve" smooth="yes"/>
			<point x="403" y="680"/>
			<point x="357" y="708"/>
			<point x="282" y="708" type="curve" smooth="yes"/>
			<point x="181" y="708" type="line"/>
			<point x="171" y="663" type="line"/>
			<point x="252" y="663" type="line" smooth="yes"/>
			<point x="307" y="663"/>
			<point x="339" y="644"/>
			<point x="339" y="604" type="curve" smooth="yes"/>
			<point x="339" y="545"/>
			<point x="288" y="419"/>
			<point x="288" y="354" type="curve" smooth="yes"/>
			<point x="288" y="320"/>
			<point x="306" y="290"/>
			<point x="351" y="283" type="curve"/>
			<point x="350" y="279" type="line"/>
			<point x="291" y="269"/>
			<point x="261" y="232"/>
			<point x="247" y="167" type="curve" smooth="yes"/>
			<point x="236" y="106"/>
			<point x="229" y="44"/>
			<point x="217" y="-13" type="curve" smooth="yes"/>
			<point x="204" y="-77"/>
			<point x="159" y="-107"/>
			<point x="101" y="-107" type="curve" smooth="yes"/>
			<point x="18" y="-107" type="line"/>
		</contour>
	</outline>
</glyph>
<glyph name="cent" format="2">
	<unicode hex="00A2"/>
	<advance width="600"/>
	<outline>
		<contour>
			<point x="284" y="71" type="curve" smooth="yes"/>
			<point x="356" y="71"/>
			<point x="419" y="100"/>
			<point x="467" y="141" type="curve"/>
			<point x="436" y="190" type="line"/>
			<point x="400" y="161"/>
			<point x="356" y="136"/>
			<point x="301" y="136" type="curve" smooth="yes"/>
			<point x="223" y="136"/>
			<point x="176" y="185"/>
			<point x="176" y="271" type="curve" smooth="yes"/>
			<point x="176" y="393"/>
			<point x="263" y="486"/>
			<point x="372" y="486" type="curve" smooth="yes"/>
			<point x="420" y="486"/>
			<point x="450" y="466"/>
			<point x="476" y="438" type="curve"/>
			<point x="521" y="482" type="line"/>
			<point x="492" y="516"/>
			<point x="444" y="549"/>
			<point x="380" y="549" type="curve" smooth="yes"/>
			<point x="231" y="549"/>
			<point x="99" y="442"/>
			<point x="99" y="262" type="curve" smooth="yes"/>
			<point x="99" y="143"/>
			<point x="176" y="71"/>
		</contour>
		<contour>
			<point x="231" y="-36" type="line"/>
			<point x="280" y="-36" type="line"/>
			<point x="420" y="653" type="line"/>
			<point x="373" y="653" type="line"/>
		</contour>
	</outline>
</glyph>
<glyph name="sterling" format="2">
	<unicode hex="00A3"/>
	<advance width="600"/>
	<outline>
		<contour>
			<point x="22" y="0" type="line"/>
			<point x="456" y="0" type="line"/>
			<point x="469" y="65" type="line"/>
			<point x="154" y="65" type="line"/>
			<point x="154" y="70" type="line"/>
			<point x="228" y="119"/>
			<point x="264" y="181"/>
			<point x="264" y="273" type="curve" smooth="yes"/>
			<point x="263" y="324"/>
			<point x="252" y="386"/>
			<point x="252" y="433" type="curve" smooth="yes"/>
			<point x="252" y="539"/>
			<point x="308" y="588"/>
			<point x="389" y="588" type="curve" smooth="yes"/>
			<point x="442" y="588"/>
			<point x="477" y="561"/>
			<point x="503" y="521" type="curve"/>
			<point x="555" y="561" type="line"/>
			<point x="521" y="611"/>
			<point x="467" y="650"/>
			<point x="390" y="650" type="curve" smooth="yes"/>
			<point x="266" y="650"/>
			<point x="180" y="575"/>
			<point x="180" y="439" type="curve" smooth="yes"/>
			<point x="180" y="387"/>
			<point x="194" y="316"/>
			<point x="194" y="262" type="curve" smooth="yes"/>
			<point x="194" y="173"/>
			<point x="144" y="95"/>
			<point x="31" y="46" type="curve"/>
		</contour>
		<contour>
			<point x="75" y="289" type="line"/>
			<point x="438" y="289" type="line"/>
			<point x="448" y="338" type="line"/>
			<point x="190" y="338" type="line"/>
			<point x="85" y="334" type="line"/>
		</contour>
	</outline>
</glyph>
<glyph name="currency" format="2">
	<unicode hex="00A4"/>
	<advance width="600"/>
	<outline>
		<contour>
			<point x="65" y="84" type="line"/>
			<point x="162" y="169" type="line"/>
			<point x="188" y="146"/>
			<point x="225" y="135"/>
			<point x="263" y="135" type="curve" smooth="yes"/>
			<point x="308" y="135"/>
			<point x="350" y="148"/>
			<point x="385" y="170" type="curve"/>
			<point x="455" y="78" type="line"/>
			<point x="505" y="120" type="line"/>
			<point x="437" y="208" type="line"/>
			<point x="475" y="248"/>
			<point x="498" y="304"/>
			<point x="498" y="364" type="curve" smooth="yes"/>
			<point x="498" y="394"/>
			<point x="492" y="420"/>
			<point x="482" y="442" type="curve"/>
			<point x="584" y="527" type="line"/>
			<point x="546" y="574" type="line"/>
			<point x="444" y="488" type="line"/>
			<point x="417" y="512"/>
			<point x="380" y="524"/>
			<point x="341" y="524" type="curve" smooth="yes"/>
			<point x="297" y="524"/>
			<point x="255" y="511"/>
			<point x="220" y="488" type="curve"/>
			<point x="152" y="575" type="line"/>
			<point x="101" y="531" type="line"/>
			<point x="167" y="448" type="line"/>
			<point x="129" y="408"/>
			<point x="106" y="354"/>
			<point x="106" y="293" type="curve" smooth="yes"/>
			<point x="106" y="261"/>
			<point x="112" y="234"/>
			<point x="123" y="211" type="curve"/>
			<point x="24" y="128" type="line"/>
		</contour>
		<contour>
			<point x="274" y="193" type="curve" smooth="yes"/>
			<point x="211" y="193"/>
			<point x="177" y="236"/>
			<point x="177" y="302" type="curve" smooth="yes"/>
			<point x="177" y="397"/>
			<point x="253" y="468"/>
			<point x="331" y="468" type="curve" smooth="yes"/>
			<point x="390" y="468"/>
			<point x="427" y="425"/>
			<point x="427" y="357" type="curve" smooth="yes"/>
			<point x="427" y="261"/>
			<point x="352" y="193"/>
		</contour>
	</outline>
</glyph>
<glyph name="copyright" format="1">
	<unicode hex="00A9"/>
	<advance width="600"/>
	<outline>
		<contour>
			<point x="235" y="-11" type="curve" smooth="yes"/>
			<point x="434" y="-11"/>
			<point x="581" y="161"/>
			<point x="581" y="400" type="curve" smooth="yes"/>
			<point x="581" y="555"/>
			<point x="498" y="653"/>
			<point x="370" y="653" type="curve" smooth="yes"/>
			<point x="176" y="655"/>
			<point x="25" y="486"/>
			<point x="25" y="246" type="curve" smooth="yes"/>
			<point x="25" y="89"/>
			<point x="107" y="-11"/>
		</contour>
		<contour>
			<point x="243" y="30" type="curve" smooth="yes"/>
			<point x="133" y="30"/>
			<point x="70" y="116"/>
			<point x="70" y="250" type="curve" smooth="yes"/>
			<point x="70" y="459"/>
			<point x="198" y="613"/>
			<point x="361" y="613" type="curve" smooth="yes"/>
			<point x="472" y="613"/>
			<point x="536" y="527"/>
			<point x="536" y="395" type="curve" smooth="yes"/>
			<point x="536" y="188"/>
			<point x="407" y="30"/>
		</contour>
		<contour>
			<point x="280" y="129" type="curve" smooth="yes"/>
			<point x="329" y="129"/>
			<point x="373" y="151"/>
			<point x="405" y="180" type="curve"/>
			<point x="380" y="220" type="line"/>
			<point x="354" y="197"/>
			<point x="328" y="181"/>
			<point x="291" y="182" type="curve" smooth="yes"/>
			<point x="242" y="182"/>
			<point x="216" y="220"/>
			<point x="216" y="283" type="curve" smooth="yes"/>
			<point x="216" y="387"/>
			<point x="282" y="464"/>
			<point x="351" y="464" type="curve" smooth="yes"/>
			<point x="381" y="464"/>
			<point x="399" y="453"/>
			<point x="418" y="427" type="curve"/>
			<point x="455" y="459" type="line"/>
			<point x="434" y="491"/>
			<point x="404" y="514"/>
			<point x="356" y="514" type="curve" smooth="yes"/>
			<point x="253" y="514"/>
			<point x="154" y="425"/>
			<point x="154" y="280" type="curve" smooth="yes"/>
			<point x="154" y="186"/>
			<point x="204" y="129"/>
		</contour>
	</outline>
</glyph>
<glyph name="logicalnot" format="1">
	<unicode hex="00AC"/>
	<advance width="600"/>
	<outline>
		<contour>
			<point x="451" y="105" type="line"/>
			<point x="513" y="105" type="line"/>
			<point x="513" y="359" type="line"/>
			<point x="87" y="359" type="line"/>
			<point x="87" y="301" type="line"/>
			<point x="451" y="301" type="line"/>
		</contour>
	</outline>
</glyph>
<glyph name="registered" format="2">
	<unicode hex="00AE"/>
	<advance width="600"/>
	<outline>
		<contour>
			<point x="311" y="320" type="curve" smooth="yes"/>
			<point x="446" y="320"/>
			<point x="541" y="417"/>
			<point x="541" y="552" type="curve" smooth="yes"/>
			<point x="541" y="648"/>
			<point x="477" y="713"/>
			<point x="389" y="713" type="curve" smooth="yes"/>
			<point x="257" y="713"/>
			<point x="158" y="615"/>
			<point x="158" y="480" type="curve" smooth="yes"/>
			<point x="158" y="385"/>
			<point x="221" y="320"/>
		</contour>
		<contour>
			<point x="318" y="354" type="curve" smooth="yes"/>
			<point x="244" y="354"/>
			<point x="195" y="404"/>
			<point x="195" y="485" type="curve" smooth="yes"/>
			<point x="195" y="595"/>
			<point x="279" y="680"/>
			<point x="382" y="680" type="curve" smooth="yes"/>
			<point x="454" y="680"/>
			<point x="503" y="630"/>
			<point x="503" y="547" type="curve" smooth="yes"/>
			<point x="503" y="437"/>
			<point x="423" y="354"/>
		</contour>
		<contour>
			<point x="258" y="417" type="line"/>
			<point x="297" y="417" type="line"/>
			<point x="332" y="596" type="line"/>
			<point x="324" y="590" type="line"/>
			<point x="361" y="590" type="line" smooth="yes"/>
			<point x="387" y="590"/>
			<point x="397" y="578"/>
			<point x="397" y="561" type="curve" smooth="yes"/>
			<point x="397" y="533"/>
			<point x="377" y="517"/>
			<point x="344" y="517" type="curve" smooth="yes"/>
			<point x="305" y="517" type="line"/>
			<point x="298" y="488" type="line"/>
			<point x="343" y="488" type="line" smooth="yes"/>
			<point x="402" y="488"/>
			<point x="439" y="519"/>
			<point x="439" y="564" type="curve" smooth="yes"/>
			<point x="439" y="607"/>
			<point x="409" y="621"/>
			<point x="373" y="621" type="curve" smooth="yes"/>
			<point x="298" y="621" type="line"/>
		</contour>
		<contour>
			<point x="346" y="492" type="line"/>
			<point x="377" y="417" type="line"/>
			<point x="419" y="417" type="line"/>
			<point x="382" y="500" type="line"/>
		</contour>
	</outline>
</glyph>
<glyph name="paragraph" format="2">
	<unicode hex="00B6"/>
	<advance width="600"/>
	<outline>
		<contour>
			<point x="311" y="227" type="curve" smooth="yes"/>
			<point x="330" y="227" type="line"/>
			<point x="417" y="656" type="line"/>
			<point x="364" y="656" type="line" smooth="yes"/>
			<point x="224" y="656"/>
			<point x="90" y="575"/>
			<point x="90" y="403" type="curve" smooth="yes"/>
			<point x="90" y="288"/>
			<point x="191" y="227"/>
		</contour>
		<contour>
			<point x="321" y="-80" type="line"/>
			<point x="398" y="-80" type="line"/>
			<point x="544" y="656" type="line"/>
			<point x="468" y="656" type="line"/>
		</contour>
	</outline>
</glyph>
<glyph name="AE" format="2">
	<unicode hex="00C6"/>
	<advance width="600"/>
	<outline>
		<contour>
			<point x="-62" y="0" type="line"/>
			<point x="19" y="0" type="line"/>
			<point x="243" y="380" type="line" smooth="yes"/>
			<point x="286" y="452"/>
			<point x="329" y="523"/>
			<point x="371" y="596" type="curve"/>
			<point x="376" y="596" type="line"/>
			<point x="257" y="0" type="line"/>
			<point x="528" y="0" type="line"/>
			<point x="541" y="66" type="line"/>
			<point x="340" y="66" type="line"/>
			<point x="389" y="314" type="line"/>
			<point x="543" y="314" type="line"/>
			<point x="556" y="379" type="line"/>
			<point x="402" y="379" type="line"/>
			<point x="445" y="591" type="line"/>
			<point x="636" y="591" type="line"/>
			<point x="649" y="656" type="line"/>
			<point x="337" y="656" type="line"/>
		</contour>
		<contour>
			<point x="108" y="197" type="line"/>
			<point x="333" y="197" type="line"/>
			<point x="345" y="258" type="line"/>
			<point x="121" y="258" type="line"/>
		</contour>
	</outline>
	<anchor name="aboveUC" x="485" y="676"/>
	<anchor name="baseLC" x="411" y="0"/>
	<anchor name="belowLC" x="293" y="-20"/>
</glyph>
<glyph name="Eth" format="2">
	<unicode hex="00D0"/>
	<advance width="600"/>
	<outline>
		<contour>
			<point x="320" y="318" type="line"/>
			<point x="334" y="374" type="line"/>
			<point x="116" y="374" type="line"/>
			<point x="38" y="370" type="line"/>
			<point x="24" y="318" type="line"/>
		</contour>
		<component base="D" xOffset="15"/>
	</outline>
</glyph>
<glyph name="multiply" format="2">
	<unicode hex="00D7"/>
	<advance width="600"/>
	<outline>
		<contour>
			<point x="145" y="127" type="line"/>
			<point x="300" y="288" type="line"/>
			<point x="455" y="127" type="line"/>
			<point x="497" y="171" type="line"/>
			<point x="341" y="330" type="line"/>
			<point x="497" y="489" type="line"/>
			<point x="455" y="532" type="line"/>
			<point x="300" y="371" type="line"/>
			<point x="145" y="532" type="line"/>
			<point x="103" y="489" type="line"/>
			<point x="259" y="330" type="line"/>
			<point x="103" y="171" type="line"/>
		</contour>
	</outline>
</glyph>
<glyph name="germandbls" format="1">
	<unicode hex="00DF"/>
	<advance width="600"/>
	<outline>
		<contour>
			<point x="353" y="-12" type="curve" smooth="yes"/>
			<point x="461" y="-12"/>
			<point x="532" y="55"/>
			<point x="532" y="141" type="curve"/>
			<point x="532" y="268"/>
			<point x="376" y="289"/>
			<point x="376" y="363" type="curve" smooth="yes"/>
			<point x="376" y="442"/>
			<point x="512" y="468"/>
			<point x="512" y="592" type="curve" smooth="yes"/>
			<point x="512" y="681"/>
			<point x="446" y="724"/>
			<point x="359" y="724" type="curve" smooth="yes"/>
			<point x="241" y="724"/>
			<point x="161" y="643"/>
			<point x="136" y="518" type="curve" smooth="yes"/>
			<point x="32" y="0" type="line"/>
			<point x="109" y="0" type="line"/>
			<point x="208" y="501" type="line" smooth="yes"/>
			<point x="229" y="604"/>
			<point x="283" y="662"/>
			<point x="356" y="662" type="curve" smooth="yes"/>
			<point x="413" y="662"/>
			<point x="437" y="630"/>
			<point x="437" y="584" type="curve" smooth="yes"/>
			<point x="437" y="478"/>
			<point x="300" y="454"/>
			<point x="300" y="350" type="curve"/>
			<point x="300" y="247"/>
			<point x="459" y="230"/>
			<point x="459" y="133" type="curve"/>
			<point x="459" y="84"/>
			<point x="411" y="48"/>
			<point x="353" y="48" type="curve" smooth="yes"/>
			<point x="308" y="48"/>
			<point x="276" y="64"/>
			<point x="242" y="93" type="curve"/>
			<point x="208" y="39" type="line"/>
			<point x="251" y="3"/>
			<point x="303" y="-12"/>
		</contour>
	</outline>
</glyph>
<glyph name="Iogonek" format="1">
	<unicode hex="012E"/>
	<advance width="600"/>
	<outline>
		<contour>
			<point x="213" y="-225" type="curve" smooth="yes"/>
			<point x="248" y="-225"/>
			<point x="281" y="-213"/>
			<point x="304" y="-195" type="curve"/>
			<point x="286" y="-156" type="line"/>
			<point x="271" y="-166"/>
			<point x="257" y="-172"/>
			<point x="239" y="-172" type="curve" smooth="yes"/>
			<point x="208" y="-172"/>
			<point x="184" y="-157"/>
			<point x="184" y="-126" type="curve" smooth="yes"/>
			<point x="184" y="-86"/>
			<point x="221" y="-33"/>
			<point x="282" y="0" type="curve"/>
			<point x="439" y="0" type="line"/>
			<point x="454" y="66" type="line"/>
			<point x="288" y="66" type="line"/>
			<point x="394" y="591" type="line"/>
			<point x="559" y="591" type="line"/>
			<point x="573" y="656" type="line"/>
			<point x="167" y="656" type="line"/>
			<point x="152" y="591" type="line"/>
			<point x="316" y="591" type="line"/>
			<point x="211" y="66" type="line"/>
			<point x="49" y="66" type="line"/>
			<point x="35" y="0" type="line"/>
			<point x="219" y="0" type="line"/>
			<point x="177" y="-30"/>
			<point x="121" y="-86"/>
			<point x="121" y="-150" type="curve" smooth="yes"/>
			<point x="121" y="-202"/>
			<point x="163" y="-225"/>
		</contour>
		<contour>
			<point name="aboveUC" x="373" y="676" type="move"/>
		</contour>
	</outline>
</glyph>
<glyph name="IJ" format="2">
	<unicode hex="0132"/>
	<advance width="600"/>
	<outline>
		<contour>
			<point x="43" y="0" type="line"/>
			<point x="121" y="0" type="line"/>
			<point x="252" y="656" type="line"/>
			<point x="174" y="656" type="line"/>
		</contour>
		<contour>
			<point x="288" y="-162" type="curve" smooth="yes"/>
			<point x="372" y="-162"/>
			<point x="415" y="-97"/>
			<point x="434" y="-5" type="curve" smooth="yes"/>
			<point x="566" y="656" type="line"/>
			<point x="488" y="656" type="line"/>
			<point x="355" y="-7" type="line"/>
			<point x="342" y="-65"/>
			<point x="321" y="-98"/>
			<point x="284" y="-98" type="curve" smooth="yes"/>
			<point x="263" y="-98"/>
			<point x="251" y="-92"/>
			<point x="238" y="-84" type="curve"/>
			<point x="213" y="-143" type="line"/>
			<point x="235" y="-155"/>
			<point x="257" y="-162"/>
		</contour>
	</outline>
</glyph>
<glyph name="Lslash" format="2">
	<unicode hex="0141"/>
	<advance width="600"/>
	<outline>
		<contour>
			<point x="63" y="198" type="line"/>
			<point x="166" y="247" type="line"/>
			<point x="218" y="270" type="line"/>
			<point x="487" y="399" type="line"/>
			<point x="466" y="451" type="line"/>
			<point x="231" y="337" type="line"/>
			<point x="179" y="315" type="line"/>
			<point x="42" y="251" type="line"/>
		</contour>
		<component base="L"/>
	</outline>
	<anchor name="aboveUC" x="275" y="676"/>
	<anchor name="belowLC" x="305" y="-20"/>
</glyph>
<glyph name="lslash" format="2">
	<unicode hex="0142"/>
	<advance width="600"/>
	<outline>
		<contour>
			<point x="118" y="275" type="line"/>
			<point x="248" y="342" type="line"/>
			<point x="308" y="367" type="line"/>
			<point x="520" y="476" type="line"/>
			<point x="499" y="524" type="line"/>
			<point x="323" y="433" type="line"/>
			<point x="261" y="407" type="line"/>
			<point x="99" y="324" type="line"/>
		</contour>
		<component base="l"/>
	</outline>
	<anchor name="aboveUC" x="350" y="736"/>
	<anchor name="belowLC" x="323" y="-20"/>
</glyph>
<glyph name="Eng" format="1">
	<unicode hex="014A"/>
	<advance width="600"/>
	<outline>
		<contour>
			<point x="321" y="-12" type="curve" smooth="yes"/>
			<point x="461" y="-12"/>
			<point x="557" y="206"/>
			<point x="557" y="445" type="curve" smooth="yes"/>
			<point x="557" y="604"/>
			<point x="489" y="668"/>
			<point x="389" y="668" type="curve" smooth="yes"/>
			<point x="334" y="668"/>
			<point x="259" y="633"/>
			<point x="210" y="584" type="curve"/>
			<point x="225" y="656" type="line"/>
			<point x="150" y="656" type="line"/>
			<point x="19" y="0" type="line"/>
			<point x="97" y="0" type="line"/>
			<point x="198" y="511" type="line"/>
			<point x="254" y="570"/>
			<point x="321" y="601"/>
			<point x="364" y="601" type="curve" smooth="yes"/>
			<point x="432" y="601"/>
			<point x="478" y="559"/>
			<point x="478" y="437" type="curve" smooth="yes"/>
			<point x="478" y="249"/>
			<point x="402" y="55"/>
			<point x="315" y="55" type="curve" smooth="yes"/>
			<point x="296" y="55"/>
			<point x="282" y="60"/>
			<point x="269" y="68" type="curve"/>
			<point x="238" y="6" type="line"/>
			<point x="257" y="-5"/>
			<point x="293" y="-12"/>
		</contour>
		<contour>
			<point name="aboveUC" x="380" y="676" type="move"/>
		</contour>
		<contour>
			<point name="belowLC" x="244" y="-20" type="move"/>
		</contour>
	</outline>
</glyph>
<glyph name="eng" format="1">
	<unicode hex="014B"/>
	<advance width="600"/>
	<outline>
		<contour>
			<point x="310" y="-183" type="curve" smooth="yes"/>
			<point x="396" y="-183"/>
			<point x="435" y="-124"/>
			<point x="455" y="-30" type="curve" smooth="yes"/>
			<point x="521" y="297" type="line" smooth="yes"/>
			<point x="526" y="324"/>
			<point x="530" y="349"/>
			<point x="530" y="377" type="curve" smooth="yes"/>
			<point x="530" y="450"/>
			<point x="491" y="498"/>
			<point x="405" y="498" type="curve" smooth="yes"/>
			<point x="318" y="498"/>
			<point x="245" y="445"/>
			<point x="187" y="387" type="curve"/>
			<point x="183" y="387" type="line"/>
			<point x="195" y="486" type="line"/>
			<point x="133" y="486" type="line"/>
			<point x="36" y="0" type="line"/>
			<point x="112" y="0" type="line"/>
			<point x="175" y="314" type="line"/>
			<point x="242" y="388"/>
			<point x="309" y="432"/>
			<point x="374" y="432" type="curve" smooth="yes"/>
			<point x="424" y="432"/>
			<point x="451" y="405"/>
			<point x="451" y="357" type="curve" smooth="yes"/>
			<point x="451" y="335"/>
			<point x="448" y="314"/>
			<point x="442" y="289" type="curve" smooth="yes"/>
			<point x="379" y="-29" type="line" smooth="yes"/>
			<point x="366" y="-91"/>
			<point x="346" y="-120"/>
			<point x="306" y="-120" type="curve" smooth="yes"/>
			<point x="285" y="-120"/>
			<point x="273" y="-115"/>
			<point x="261" y="-107" type="curve"/>
			<point x="235" y="-164" type="line"/>
			<point x="258" y="-176"/>
			<point x="279" y="-183"/>
		</contour>
		<contour>
			<point name="aboveLC" x="351" y="507" type="move"/>
		</contour>
	</outline>
</glyph>
<glyph name="tbar" format="1">
	<unicode hex="0167"/>
	<advance width="600"/>
	<outline>
		<contour>
			<point x="38" y="224" type="line"/>
			<point x="478" y="224" type="line"/>
			<point x="490" y="284" type="line"/>
			<point x="190" y="284" type="line"/>
			<point x="50" y="280" type="line"/>
		</contour>
		<component base="t"/>
		<contour>
			<point name="aboveLC" x="297" y="635" type="move"/>
		</contour>
		<contour>
			<point name="belowLC" x="308" y="-20" type="move"/>
		</contour>
	</outline>
</glyph>
<glyph name="Uogonek" format="2">
	<unicode hex="0172"/>
	<advance width="600"/>
	<outline>
		<contour>
			<point x="212" y="-225" type="curve" smooth="yes"/>
			<point x="246" y="-225"/>
			<point x="280" y="-213"/>
			<point x="303" y="-195" type="curve"/>
			<point x="285" y="-156" type="line"/>
			<point x="270" y="-166"/>
			<point x="256" y="-172"/>
			<point x="238" y="-172" type="curve" smooth="yes"/>
			<point x="207" y="-172"/>
			<point x="183" y="-157"/>
			<point x="183" y="-126" type="curve" smooth="yes"/>
			<point x="183" y="-86"/>
			<point x="227" y="-30"/>
			<point x="315" y="-7" type="curve" smooth="yes"/>
			<point x="416" y="23"/>
			<point x="476" y="94"/>
			<point x="506" y="244" type="curve" smooth="yes"/>
			<point x="588" y="656" type="line"/>
			<point x="512" y="656" type="line"/>
			<point x="432" y="252" type="line" smooth="yes"/>
			<point x="403" y="105"/>
			<point x="340" y="55"/>
			<point x="265" y="55" type="curve" smooth="yes"/>
			<point x="183" y="55"/>
			<point x="141" y="106"/>
			<point x="141" y="195" type="curve" smooth="yes"/>
			<point x="141" y="220"/>
			<point x="145" y="246"/>
			<point x="152" y="277" type="curve" smooth="yes"/>
			<point x="227" y="656" type="line"/>
			<point x="149" y="656" type="line"/>
			<point x="74" y="279" type="line" smooth="yes"/>
			<point x="67" y="245"/>
			<point x="64" y="217"/>
			<point x="64" y="186" type="curve" smooth="yes"/>
			<point x="64" y="67"/>
			<point x="127" y="5"/>
			<point x="215" y="-9" type="curve"/>
			<point x="170" y="-38"/>
			<point x="120" y="-92"/>
			<point x="120" y="-150" type="curve" smooth="yes"/>
			<point x="120" y="-202"/>
			<point x="162" y="-225"/>
		</contour>
	</outline>
	<anchor name="aboveUC" x="373" y="678"/>
</glyph>
<glyph name="Ohorn" format="1">
	<unicode hex="01A0"/>
	<advance width="600"/>
	<outline>
		<contour>
			<point x="494" y="604" type="line"/>
			<point x="577" y="617"/>
			<point x="635" y="662"/>
			<point x="635" y="747" type="curve" smooth="yes"/>
			<point x="635" y="767"/>
			<point x="631" y="788"/>
			<point x="622" y="812" type="curve"/>
			<point x="559" y="790" type="line"/>
			<point x="566" y="772"/>
			<point x="569" y="753"/>
			<point x="569" y="738" type="curve" smooth="yes"/>
			<point x="569" y="680"/>
			<point x="528" y="644"/>
			<point x="458" y="640" type="curve"/>
		</contour>
		<component base="O"/>
		<contour>
			<point name="aboveUC" x="373" y="676" type="move"/>
		</contour>
		<contour>
			<point name="belowLC" x="233" y="-20" type="move"/>
		</contour>
	</outline>
</glyph>
<glyph name="ohorn" format="1">
	<unicode hex="01A1"/>
	<advance width="600"/>
	<outline>
		<contour>
			<point x="457" y="439" type="line"/>
			<point x="530" y="455"/>
			<point x="595" y="495"/>
			<point x="595" y="586" type="curve" smooth="yes"/>
			<point x="595" y="608"/>
			<point x="593" y="627"/>
			<point x="584" y="651" type="curve"/>
			<point x="523" y="629" type="line"/>
			<point x="529" y="612"/>
			<point x="531" y="597"/>
			<point x="531" y="582" type="curve" smooth="yes"/>
			<point x="531" y="517"/>
			<point x="486" y="480"/>
			<point x="417" y="474" type="curve"/>
		</contour>
		<component base="o"/>
		<contour>
			<point name="aboveLC" x="339" y="507" type="move"/>
		</contour>
		<contour>
			<point name="belowLC" x="234" y="-20" type="move"/>
		</contour>
	</outline>
</glyph>
<glyph name="Uhorn" format="2">
	<unicode hex="01AF"/>
	<advance width="600"/>
	<outline>
		<contour>
			<point x="577" y="620" type="line"/>
			<point x="657" y="633"/>
			<point x="713" y="676"/>
			<point x="713" y="757" type="curve" smooth="yes"/>
			<point x="713" y="777"/>
			<point x="709" y="798"/>
			<point x="700" y="822" type="curve"/>
			<point x="638" y="800" type="line"/>
			<point x="645" y="783"/>
			<point x="647" y="763"/>
			<point x="647" y="748" type="curve" smooth="yes"/>
			<point x="647" y="694"/>
			<point x="611" y="659"/>
			<point x="544" y="656" type="curve"/>
		</contour>
		<component base="U"/>
	</outline>
	<anchor name="aboveUC" x="373" y="676"/>
	<anchor name="belowLC" x="233" y="-20"/>
</glyph>
<glyph name="uhorn" format="1">
	<unicode hex="01B0"/>
	<advance width="600"/>
	<outline>
		<contour>
			<point x="537" y="451" type="line"/>
			<point x="592" y="465"/>
			<point x="657" y="513"/>
			<point x="657" y="597" type="curve" smooth="yes"/>
			<point x="657" y="618"/>
			<point x="654" y="637"/>
			<point x="646" y="661" type="curve"/>
			<point x="585" y="639" type="line"/>
			<point x="590" y="622"/>
			<point x="592" y="607"/>
			<point x="592" y="592" type="curve" smooth="yes"/>
			<point x="592" y="533"/>
			<point x="549" y="491"/>
			<point x="501" y="486" type="curve"/>
		</contour>
		<component base="u"/>
		<contour>
			<point name="aboveLC" x="337" y="507" type="move"/>
		</contour>
		<contour>
			<point name="belowLC" x="249" y="-20" type="move"/>
		</contour>
	</outline>
</glyph>
<glyph name="oogonek" format="1">
	<unicode hex="01EB"/>
	<advance width="600"/>
	<outline>
		<contour>
			<point x="213" y="-225" type="curve" smooth="yes"/>
			<point x="251" y="-225"/>
			<point x="283" y="-212"/>
			<point x="306" y="-193" type="curve"/>
			<point x="289" y="-158" type="line"/>
			<point x="273" y="-169"/>
			<point x="258" y="-174"/>
			<point x="239" y="-174" type="curve" smooth="yes"/>
			<point x="207" y="-174"/>
			<point x="181" y="-159"/>
			<point x="181" y="-126" type="curve" smooth="yes"/>
			<point x="181" y="-89"/>
			<point x="221" y="-27"/>
			<point x="310" y="-6" type="curve" smooth="yes"/>
			<point x="426" y="22"/>
			<point x="529" y="128"/>
			<point x="529" y="285" type="curve" smooth="yes"/>
			<point x="529" y="411"/>
			<point x="453" y="498"/>
			<point x="326" y="498" type="curve" smooth="yes"/>
			<point x="177" y="498"/>
			<point x="46" y="371"/>
			<point x="46" y="201" type="curve" smooth="yes"/>
			<point x="46" y="80"/>
			<point x="116" y="2"/>
			<point x="214" y="-9" type="curve"/>
			<point x="170" y="-37"/>
			<point x="122" y="-90"/>
			<point x="122" y="-148" type="curve" smooth="yes"/>
			<point x="122" y="-202"/>
			<point x="164" y="-225"/>
		</contour>
		<contour>
			<point x="255" y="51" type="curve" smooth="yes"/>
			<point x="173" y="51"/>
			<point x="124" y="110"/>
			<point x="124" y="206" type="curve" smooth="yes"/>
			<point x="124" y="332"/>
			<point x="217" y="434"/>
			<point x="320" y="434" type="curve" smooth="yes"/>
			<point x="403" y="434"/>
			<point x="452" y="375"/>
			<point x="452" y="280" type="curve" smooth="yes"/>
			<point x="452" y="153"/>
			<point x="358" y="51"/>
		</contour>
		<contour>
			<point name="aboveLC" x="340" y="507" type="move"/>
		</contour>
	</outline>
</glyph>
<glyph name="Aringacute" format="1">
	<unicode hex="01FA"/>
	<advance width="600"/>
	<outline>
		<contour>
			<point x="381" y="839" type="line"/>
			<point x="529" y="920" type="line"/>
			<point x="493" y="966" type="line"/>
			<point x="347" y="861" type="line"/>
		</contour>
		<component base="Aring"/>
	</outline>
</glyph>
<glyph name="alphalatinturned" format="2">
	<unicode hex="0252"/>
	<advance width="600"/>
	<outline>
		<contour>
			<point x="270" y="-12" type="curve" smooth="yes"/>
			<point x="421" y="-12"/>
			<point x="537" y="129"/>
			<point x="537" y="305" type="curve" smooth="yes"/>
			<point x="537" y="429"/>
			<point x="471" y="498"/>
			<point x="371" y="498" type="curve" smooth="yes"/>
			<point x="306" y="498"/>
			<point x="241" y="459"/>
			<point x="191" y="411" type="curve"/>
			<point x="187" y="411" type="line"/>
			<point x="196" y="486" type="line"/>
			<point x="133" y="486" type="line"/>
			<point x="36" y="0" type="line"/>
			<point x="98" y="0" type="line"/>
			<point x="116" y="61" type="line"/>
			<point x="120" y="61" type="line"/>
			<point x="150" y="18"/>
			<point x="207" y="-12"/>
		</contour>
		<contour>
			<point x="260" y="52" type="curve" smooth="yes"/>
			<point x="216" y="52"/>
			<point x="170" y="71"/>
			<point x="136" y="122" type="curve"/>
			<point x="181" y="342" type="line"/>
			<point x="232" y="399"/>
			<point x="297" y="434"/>
			<point x="347" y="434" type="curve" smooth="yes"/>
			<point x="415" y="434"/>
			<point x="458" y="388"/>
			<point x="458" y="294" type="curve" smooth="yes"/>
			<point x="458" y="163"/>
			<point x="374" y="52"/>
		</contour>
	</outline>
	<anchor name="aboveLC" x="356" y="507"/>
	<anchor name="belowLC" x="253" y="-20"/>
</glyph>
<glyph name="schwa" format="2">
	<unicode hex="0259"/>
	<advance width="600"/>
	<outline>
		<contour>
			<point x="244" y="-12" type="curve" smooth="yes"/>
			<point x="408" y="-12"/>
			<point x="531" y="112"/>
			<point x="531" y="292" type="curve" smooth="yes"/>
			<point x="531" y="428"/>
			<point x="457" y="498"/>
			<point x="333" y="498" type="curve" smooth="yes"/>
			<point x="249" y="498"/>
			<point x="178" y="472"/>
			<point x="127" y="437" type="curve"/>
			<point x="155" y="384" type="line"/>
			<point x="204" y="416"/>
			<point x="253" y="437"/>
			<point x="318" y="437" type="curve" smooth="yes"/>
			<point x="406" y="437"/>
			<point x="454" y="386"/>
			<point x="454" y="291" type="curve" smooth="yes"/>
			<point x="454" y="144"/>
			<point x="364" y="49"/>
			<point x="249" y="49" type="curve" smooth="yes"/>
			<point x="175" y="49"/>
			<point x="125" y="91"/>
			<point x="124" y="174" type="curve" smooth="yes"/>
			<point x="124" y="190"/>
			<point x="126" y="208"/>
			<point x="131" y="226" type="curve"/>
			<point x="106" y="212" type="line"/>
			<point x="467" y="212" type="line"/>
			<point x="474" y="272" type="line"/>
			<point x="68" y="272" type="line"/>
			<point x="63" y="257"/>
			<point x="53" y="217"/>
			<point x="53" y="175" type="curve" smooth="yes"/>
			<point x="53" y="57"/>
			<point x="129" y="-12"/>
		</contour>
	</outline>
	<anchor name="aboveLC" x="346" y="507"/>
	<anchor name="baseLC" x="246" y="0"/>
	<anchor name="belowLC" x="241" y="-20"/>
	<anchor name="ogonekLC" x="246" y="0"/>
</glyph>
<glyph name="gscript" format="1">
	<unicode hex="0261"/>
	<advance width="600"/>
	<outline>
		<component base="g"/>
		<contour>
			<point name="aboveLC" x="354" y="507" type="move"/>
		</contour>
		<contour>
			<point name="belowLC" x="219" y="-219" type="move"/>
		</contour>
	</outline>
</glyph>
<glyph name="ramshorn" format="2">
	<unicode hex="0264"/>
	<advance width="600"/>
	<outline>
		<contour>
			<point x="238" y="-12" type="curve" smooth="yes"/>
			<point x="364" y="-12"/>
			<point x="442" y="78"/>
			<point x="442" y="188" type="curve" smooth="yes"/>
			<point x="442" y="250"/>
			<point x="409" y="310"/>
			<point x="366" y="363" type="curve"/>
			<point x="411" y="407"/>
			<point x="450" y="435"/>
			<point x="488" y="435" type="curve" smooth="yes"/>
			<point x="506" y="435"/>
			<point x="521" y="429"/>
			<point x="532" y="419" type="curve"/>
			<point x="569" y="475" type="line"/>
			<point x="552" y="489"/>
			<point x="520" y="498"/>
			<point x="491" y="498" type="curve" smooth="yes"/>
			<point x="438" y="498"/>
			<point x="376" y="464"/>
			<point x="320" y="411" type="curve"/>
			<point x="284" y="464"/>
			<point x="236" y="498"/>
			<point x="184" y="498" type="curve" smooth="yes"/>
			<point x="154" y="498"/>
			<point x="121" y="491"/>
			<point x="98" y="476" type="curve"/>
			<point x="112" y="420" type="line"/>
			<point x="127" y="429"/>
			<point x="143" y="435"/>
			<point x="161" y="435" type="curve" smooth="yes"/>
			<point x="198" y="435"/>
			<point x="230" y="409"/>
			<point x="259" y="365" type="curve"/>
			<point x="167" y="289"/>
			<point x="97" y="207"/>
			<point x="97" y="114" type="curve" smooth="yes"/>
			<point x="97" y="36"/>
			<point x="150" y="-12"/>
		</contour>
		<contour>
			<point x="248" y="52" type="curve" smooth="yes"/>
			<point x="197" y="52"/>
			<point x="172" y="86"/>
			<point x="172" y="128" type="curve" smooth="yes"/>
			<point x="172" y="197"/>
			<point x="232" y="267"/>
			<point x="305" y="324" type="curve"/>
			<point x="340" y="282"/>
			<point x="368" y="231"/>
			<point x="368" y="180" type="curve" smooth="yes"/>
			<point x="368" y="113"/>
			<point x="323" y="52"/>
		</contour>
	</outline>
	<anchor name="aboveLC" x="338" y="507"/>
	<anchor name="belowLC" x="235" y="-20"/>
</glyph>
<glyph name="hhook" format="1">
	<unicode hex="0266"/>
	<advance width="600"/>
	<outline>
		<contour>
			<point x="36" y="0" type="line"/>
			<point x="112" y="0" type="line"/>
			<point x="174" y="307" type="line"/>
			<point x="240" y="381"/>
			<point x="308" y="424"/>
			<point x="373" y="424" type="curve" smooth="yes"/>
			<point x="423" y="424"/>
			<point x="450" y="398"/>
			<point x="450" y="350" type="curve" smooth="yes"/>
			<point x="450" y="328"/>
			<point x="446" y="307"/>
			<point x="441" y="281" type="curve" smooth="yes"/>
			<point x="384" y="0" type="line"/>
			<point x="461" y="0" type="line"/>
			<point x="519" y="290" type="line" smooth="yes"/>
			<point x="525" y="317"/>
			<point x="528" y="341"/>
			<point x="528" y="370" type="curve" smooth="yes"/>
			<point x="528" y="443"/>
			<point x="489" y="491"/>
			<point x="403" y="491" type="curve" smooth="yes"/>
			<point x="318" y="491"/>
			<point x="248" y="440"/>
			<point x="188" y="381" type="curve"/>
			<point x="184" y="381" type="line"/>
			<point x="219" y="531" type="line"/>
			<point x="240" y="624"/>
			<point x="283" y="659"/>
			<point x="348" y="659" type="curve" smooth="yes"/>
			<point x="372" y="659"/>
			<point x="396" y="652"/>
			<point x="416" y="640" type="curve"/>
			<point x="444" y="700" type="line"/>
			<point x="420" y="714"/>
			<point x="387" y="724"/>
			<point x="349" y="724" type="curve" smooth="yes"/>
			<point x="234" y="724"/>
			<point x="168" y="657"/>
			<point x="143" y="532" type="curve"/>
		</contour>
		<contour>
			<point name="aboveUC" x="318" y="736" type="move"/>
		</contour>
		<contour>
			<point name="belowLC" x="261" y="-20" type="move"/>
		</contour>
	</outline>
</glyph>
<glyph name="ismall" format="1">
	<unicode hex="026A"/>
	<advance width="600"/>
	<outline>
		<contour>
			<point x="40" y="0" type="line"/>
			<point x="438" y="0" type="line"/>
			<point x="451" y="66" type="line"/>
			<point x="291" y="66" type="line"/>
			<point x="362" y="420" type="line"/>
			<point x="523" y="420" type="line"/>
			<point x="536" y="486" type="line"/>
			<point x="136" y="486" type="line"/>
			<point x="123" y="420" type="line"/>
			<point x="282" y="420" type="line"/>
			<point x="211" y="66" type="line"/>
			<point x="53" y="66" type="line"/>
		</contour>
		<contour>
			<point name="aboveLC" x="339" y="507" type="move"/>
		</contour>
		<contour>
			<point name="belowLC" x="234" y="-20" type="move"/>
		</contour>
	</outline>
</glyph>
<glyph name="nretroflex" format="2">
	<unicode hex="0273"/>
	<advance width="600"/>
	<outline>
		<contour>
			<point x="452" y="-183" type="curve" smooth="yes"/>
			<point x="484" y="-183"/>
			<point x="506" y="-177"/>
			<point x="520" y="-171" type="curve"/>
			<point x="519" y="-113" type="line"/>
			<point x="508" y="-117"/>
			<point x="497" y="-119"/>
			<point x="485" y="-119" type="curve" smooth="yes"/>
			<point x="461" y="-119"/>
			<point x="449" y="-105"/>
			<point x="449" y="-81" type="curve" smooth="yes"/>
			<point x="449" y="-67"/>
			<point x="450" y="-56"/>
			<point x="452" y="-45" type="curve" smooth="yes"/>
			<point x="521" y="297" type="line" smooth="yes"/>
			<point x="526" y="324"/>
			<point x="530" y="349"/>
			<point x="530" y="377" type="curve" smooth="yes"/>
			<point x="530" y="450"/>
			<point x="491" y="498"/>
			<point x="405" y="498" type="curve" smooth="yes"/>
			<point x="318" y="498"/>
			<point x="245" y="445"/>
			<point x="187" y="387" type="curve"/>
			<point x="183" y="387" type="line"/>
			<point x="195" y="486" type="line"/>
			<point x="133" y="486" type="line"/>
			<point x="36" y="0" type="line"/>
			<point x="112" y="0" type="line"/>
			<point x="175" y="314" type="line"/>
			<point x="242" y="388"/>
			<point x="309" y="432"/>
			<point x="374" y="432" type="curve" smooth="yes"/>
			<point x="424" y="432"/>
			<point x="451" y="405"/>
			<point x="451" y="357" type="curve" smooth="yes"/>
			<point x="451" y="335"/>
			<point x="448" y="314"/>
			<point x="442" y="289" type="curve" smooth="yes"/>
			<point x="376" y="-42" type="line" smooth="yes"/>
			<point x="373" y="-59"/>
			<point x="371" y="-78"/>
			<point x="371" y="-99" type="curve" smooth="yes"/>
			<point x="371" y="-154"/>
			<point x="400" y="-183"/>
		</contour>
	</outline>
	<anchor name="aboveLC" x="358" y="507"/>
</glyph>
<glyph name="nsmall" format="1">
	<unicode hex="0274"/>
	<advance width="600"/>
	<outline>
		<contour>
			<point x="51" y="0" type="line"/>
			<point x="126" y="0" type="line"/>
			<point x="165" y="202" type="line" smooth="yes"/>
			<point x="176" y="254"/>
			<point x="185" y="316"/>
			<point x="192" y="379" type="curve"/>
			<point x="196" y="379" type="line"/>
			<point x="208" y="349"/>
			<point x="223" y="304"/>
			<point x="236" y="275" type="curve" smooth="yes"/>
			<point x="353" y="0" type="line"/>
			<point x="428" y="0" type="line"/>
			<point x="523" y="486" type="line"/>
			<point x="448" y="486" type="line"/>
			<point x="409" y="284" type="line" smooth="yes"/>
			<point x="398" y="232"/>
			<point x="390" y="170"/>
			<point x="382" y="107" type="curve"/>
			<point x="378" y="107" type="line"/>
			<point x="366" y="137"/>
			<point x="350" y="182"/>
			<point x="338" y="211" type="curve" smooth="yes"/>
			<point x="222" y="486" type="line"/>
			<point x="146" y="486" type="line"/>
		</contour>
		<contour>
			<point name="aboveLC" x="330" y="507" type="move"/>
		</contour>
		<contour>
			<point name="belowLC" x="244" y="-20" type="move"/>
		</contour>
	</outline>
</glyph>
<glyph name="rtail" format="2">
	<unicode hex="027D"/>
	<advance width="600"/>
	<outline>
		<contour>
			<point x="234" y="-183" type="curve" smooth="yes"/>
			<point x="294" y="-183"/>
			<point x="348" y="-163"/>
			<point x="386" y="-139" type="curve"/>
			<point x="360" y="-84" type="line"/>
			<point x="330" y="-101"/>
			<point x="294" y="-119"/>
			<point x="254" y="-119" type="curve" smooth="yes"/>
			<point x="202" y="-119"/>
			<point x="171" y="-89"/>
			<point x="171" y="-28" type="curve" smooth="yes"/>
			<point x="171" y="-14"/>
			<point x="172" y="-1"/>
			<point x="176" y="17" type="curve"/>
			<point x="224" y="253" type="line"/>
			<point x="291" y="357"/>
			<point x="369" y="428"/>
			<point x="444" y="428" type="curve" smooth="yes"/>
			<point x="476" y="428"/>
			<point x="499" y="423"/>
			<point x="524" y="407" type="curve"/>
			<point x="555" y="473" type="line"/>
			<point x="534" y="488"/>
			<point x="500" y="498"/>
			<point x="457" y="498" type="curve" smooth="yes"/>
			<point x="373" y="498"/>
			<point x="294" y="430"/>
			<point x="240" y="347" type="curve"/>
			<point x="236" y="347" type="line"/>
			<point x="257" y="486" type="line"/>
			<point x="194" y="486" type="line"/>
			<point x="100" y="19" type="line"/>
			<point x="96" y="-4"/>
			<point x="92" y="-23"/>
			<point x="92" y="-44" type="curve" smooth="yes"/>
			<point x="92" y="-127"/>
			<point x="136" y="-183"/>
		</contour>
	</outline>
	<anchor name="aboveLC" x="382" y="507"/>
	<anchor name="belowLC" x="221" y="-187"/>
</glyph>
<glyph name="rsmall" format="2">
	<unicode hex="0280"/>
	<advance width="600"/>
	<outline>
		<contour>
			<point x="71" y="0" type="line"/>
			<point x="147" y="0" type="line"/>
			<point x="186" y="192" type="line"/>
			<point x="318" y="192" type="line"/>
			<point x="438" y="192"/>
			<point x="525" y="264"/>
			<point x="525" y="366" type="curve" smooth="yes"/>
			<point x="525" y="452"/>
			<point x="463" y="486"/>
			<point x="372" y="486" type="curve" smooth="yes"/>
			<point x="167" y="486" type="line"/>
		</contour>
		<contour>
			<point x="198" y="250" type="line"/>
			<point x="231" y="425" type="line"/>
			<point x="346" y="425" type="line" smooth="yes"/>
			<point x="408" y="425"/>
			<point x="446" y="404"/>
			<point x="446" y="351" type="curve" smooth="yes"/>
			<point x="446" y="296"/>
			<point x="398" y="250"/>
			<point x="312" y="250" type="curve" smooth="yes"/>
		</contour>
		<contour>
			<point x="394" y="0" type="line"/>
			<point x="474" y="0" type="line"/>
			<point x="370" y="234" type="line"/>
			<point x="307" y="210" type="line"/>
		</contour>
	</outline>
	<anchor name="aboveLC" x="356" y="507"/>
	<anchor name="belowLC" x="276" y="-20"/>
</glyph>
<glyph name="rsmallinverted" format="2">
	<unicode hex="0281"/>
	<advance width="600"/>
	<outline>
		<contour>
			<point x="71" y="0" type="line"/>
			<point x="280" y="0" type="line" smooth="yes"/>
			<point x="402" y="0"/>
			<point x="488" y="72"/>
			<point x="488" y="175" type="curve" smooth="yes"/>
			<point x="488" y="260"/>
			<point x="426" y="294"/>
			<point x="335" y="294" type="curve" smooth="yes"/>
			<point x="207" y="294" type="line"/>
			<point x="244" y="486" type="line"/>
			<point x="167" y="486" type="line"/>
		</contour>
		<contour>
			<point x="160" y="61" type="line"/>
			<point x="194" y="236" type="line"/>
			<point x="309" y="236" type="line" smooth="yes"/>
			<point x="372" y="236"/>
			<point x="409" y="215"/>
			<point x="409" y="162" type="curve" smooth="yes"/>
			<point x="409" y="107"/>
			<point x="361" y="61"/>
			<point x="276" y="61" type="curve" smooth="yes"/>
		</contour>
		<contour>
			<point x="374" y="252" type="line"/>
			<point x="571" y="486" type="line"/>
			<point x="491" y="486" type="line"/>
			<point x="320" y="276" type="line"/>
		</contour>
	</outline>
	<anchor name="aboveLC" x="373" y="507"/>
	<anchor name="belowLC" x="256" y="-20"/>
</glyph>
<glyph name="dotlessjstrokehook" format="1">
	<unicode hex="0284"/>
	<advance width="600"/>
	<outline>
		<contour>
			<point x="82" y="226" type="line"/>
			<point x="506" y="226" type="line"/>
			<point x="518" y="286" type="line"/>
			<point x="266" y="286" type="line"/>
			<point x="92" y="280" type="line"/>
		</contour>
		<component base="esh"/>
		<contour>
			<point name="aboveUC" x="483" y="730" type="move"/>
		</contour>
		<contour>
			<point name="belowLC" x="127" y="-219" type="move"/>
		</contour>
	</outline>
</glyph>
<glyph name="yturned" format="1">
	<unicode hex="028E"/>
	<advance width="600"/>
	<outline>
		<contour>
			<point x="-3" y="0" type="line"/>
			<point x="77" y="0" type="line"/>
			<point x="240" y="272" type="line" smooth="yes"/>
			<point x="265" y="315"/>
			<point x="299" y="376"/>
			<point x="322" y="420" type="curve"/>
			<point x="326" y="420" type="line"/>
			<point x="334" y="376"/>
			<point x="346" y="315"/>
			<point x="355" y="272" type="curve" smooth="yes"/>
			<point x="419" y="0" type="line"/>
			<point x="493" y="0" type="line"/>
			<point x="372" y="488" type="line"/>
			<point x="421" y="565" type="line" smooth="yes"/>
			<point x="468" y="638"/>
			<point x="495" y="665"/>
			<point x="551" y="665" type="curve" smooth="yes"/>
			<point x="573" y="665"/>
			<point x="593" y="659"/>
			<point x="609" y="651" type="curve"/>
			<point x="633" y="706" type="line"/>
			<point x="613" y="717"/>
			<point x="587" y="724"/>
			<point x="556" y="724" type="curve" smooth="yes"/>
			<point x="461" y="724"/>
			<point x="412" y="674"/>
			<point x="347" y="567" type="curve" smooth="yes"/>
		</contour>
		<contour>
			<point name="aboveUC" x="457" y="736" type="move"/>
		</contour>
		<contour>
			<point name="belowLC" x="240" y="-20" type="move"/>
		</contour>
	</outline>
</glyph>
<glyph name="glottalstop" format="2">
	<unicode hex="0294"/>
	<advance width="600"/>
	<outline>
		<contour>
			<point x="173" y="0" type="line"/>
			<point x="250" y="0" type="line"/>
			<point x="306" y="280" type="line"/>
			<point x="464" y="357"/>
			<point x="547" y="438"/>
			<point x="547" y="564" type="curve" smooth="yes"/>
			<point x="547" y="667"/>
			<point x="459" y="724"/>
			<point x="353" y="724" type="curve" smooth="yes"/>
			<point x="254" y="724"/>
			<point x="191" y="689"/>
			<point x="134" y="643" type="curve"/>
			<point x="168" y="591" type="line"/>
			<point x="217" y="631"/>
			<point x="269" y="662"/>
			<point x="342" y="662" type="curve" smooth="yes"/>
			<point x="417" y="662"/>
			<point x="468" y="621"/>
			<point x="468" y="554" type="curve" smooth="yes"/>
			<point x="468" y="464"/>
			<point x="410" y="391"/>
			<point x="236" y="314" type="curve"/>
		</contour>
	</outline>
	<anchor name="aboveUC" x="374" y="736"/>
	<anchor name="belowLC" x="214" y="-20"/>
</glyph>
<glyph name="glottalstopreversed" format="1">
	<unicode hex="0295"/>
	<advance width="600"/>
	<outline>
		<contour>
			<point x="222" y="0" type="line"/>
			<point x="299" y="0" type="line"/>
			<point x="362" y="314" type="line"/>
			<point x="263" y="377"/>
			<point x="224" y="432"/>
			<point x="224" y="513" type="curve" smooth="yes"/>
			<point x="224" y="597"/>
			<point x="284" y="662"/>
			<point x="379" y="662" type="curve" smooth="yes"/>
			<point x="447" y="662"/>
			<point x="494" y="630"/>
			<point x="533" y="578" type="curve"/>
			<point x="579" y="620" type="line"/>
			<point x="539" y="679"/>
			<point x="475" y="724"/>
			<point x="379" y="724" type="curve" smooth="yes"/>
			<point x="244" y="724"/>
			<point x="145" y="635"/>
			<point x="145" y="502" type="curve" smooth="yes"/>
			<point x="145" y="409"/>
			<point x="199" y="343"/>
			<point x="279" y="281" type="curve"/>
		</contour>
		<contour>
			<point name="aboveUC" x="393" y="736" type="move"/>
		</contour>
		<contour>
			<point name="belowLC" x="260" y="-20" type="move"/>
		</contour>
	</outline>
</glyph>
<glyph name="bsmall" format="2">
	<unicode hex="0299"/>
	<advance width="600"/>
	<outline>
		<contour>
			<point x="66" y="0" type="line"/>
			<point x="272" y="0" type="line" smooth="yes"/>
			<point x="419" y="0"/>
			<point x="489" y="71"/>
			<point x="489" y="166" type="curve" smooth="yes"/>
			<point x="489" y="219"/>
			<point x="453" y="243"/>
			<point x="410" y="256" type="curve"/>
			<point x="411" y="259" type="line"/>
			<point x="469" y="275"/>
			<point x="512" y="318"/>
			<point x="512" y="388" type="curve" smooth="yes"/>
			<point x="512" y="459"/>
			<point x="446" y="486"/>
			<point x="359" y="486" type="curve" smooth="yes"/>
			<point x="162" y="486" type="line"/>
		</contour>
		<contour>
			<point x="154" y="58" type="line"/>
			<point x="189" y="228" type="line"/>
			<point x="302" y="228" type="line" smooth="yes"/>
			<point x="375" y="228"/>
			<point x="413" y="202"/>
			<point x="413" y="160" type="curve" smooth="yes"/>
			<point x="413" y="102"/>
			<point x="371" y="58"/>
			<point x="274" y="58" type="curve" smooth="yes"/>
		</contour>
		<contour>
			<point x="198" y="281" type="line"/>
			<point x="228" y="428" type="line"/>
			<point x="338" y="428" type="line" smooth="yes"/>
			<point x="404" y="428"/>
			<point x="435" y="406"/>
			<point x="435" y="371" type="curve" smooth="yes"/>
			<point x="435" y="321"/>
			<point x="399" y="281"/>
			<point x="305" y="281" type="curve" smooth="yes"/>
		</contour>
	</outline>
	<anchor name="aboveLC" x="344" y="507"/>
	<anchor name="belowLC" x="263" y="-20"/>
</glyph>
<glyph name="hsmall" format="1">
	<unicode hex="029C"/>
	<advance width="600"/>
	<outline>
		<contour>
			<point x="35" y="0" type="line"/>
			<point x="112" y="0" type="line"/>
			<point x="155" y="218" type="line"/>
			<point x="411" y="218" type="line"/>
			<point x="367" y="0" type="line"/>
			<point x="444" y="0" type="line"/>
			<point x="541" y="486" type="line"/>
			<point x="464" y="486" type="line"/>
			<point x="425" y="286" type="line"/>
			<point x="170" y="286" type="line"/>
			<point x="209" y="486" type="line"/>
			<point x="132" y="486" type="line"/>
		</contour>
		<contour>
			<point name="aboveLC" x="336" y="507" type="move"/>
		</contour>
		<contour>
			<point name="belowLC" x="234" y="-20" type="move"/>
		</contour>
	</outline>
</glyph>
<glyph name="lsmall" format="1">
	<unicode hex="029F"/>
	<advance width="600"/>
	<outline>
		<contour>
			<point x="105" y="0" type="line"/>
			<point x="481" y="0" type="line"/>
			<point x="494" y="62" type="line"/>
			<point x="194" y="62" type="line"/>
			<point x="278" y="486" type="line"/>
			<point x="202" y="486" type="line"/>
		</contour>
		<contour>
			<point name="aboveLC" x="240" y="507" type="move"/>
		</contour>
		<contour>
			<point name="belowLC" x="303" y="-20" type="move"/>
		</contour>
	</outline>
</glyph>
<glyph name="dezh" format="1">
	<unicode hex="02A4"/>
	<advance width="600"/>
	<outline>
		<contour>
			<point x="97" y="-12" type="curve" smooth="yes"/>
			<point x="146" y="-12"/>
			<point x="182" y="16"/>
			<point x="221" y="63" type="curve"/>
			<point x="225" y="63" type="line"/>
			<point x="219" y="0" type="line"/>
			<point x="276" y="0" type="line"/>
			<point x="420" y="712" type="line"/>
			<point x="347" y="712" type="line"/>
			<point x="310" y="526" type="line"/>
			<point x="296" y="432" type="line"/>
			<point x="292" y="432" type="line"/>
			<point x="277" y="477"/>
			<point x="238" y="498"/>
			<point x="199" y="498" type="curve" smooth="yes"/>
			<point x="84" y="498"/>
			<point x="-16" y="345"/>
			<point x="-16" y="172" type="curve" smooth="yes"/>
			<point x="-16" y="53"/>
			<point x="29" y="-12"/>
		</contour>
		<contour>
			<point x="123" y="52" type="curve" smooth="yes"/>
			<point x="84" y="52"/>
			<point x="60" y="92"/>
			<point x="60" y="177" type="curve" smooth="yes"/>
			<point x="60" y="312"/>
			<point x="130" y="434"/>
			<point x="204" y="434" type="curve" smooth="yes"/>
			<point x="233" y="434"/>
			<point x="257" y="421"/>
			<point x="277" y="363" type="curve"/>
			<point x="232" y="140" type="line"/>
			<point x="194" y="83"/>
			<point x="159" y="52"/>
		</contour>
		<contour>
			<point x="362" y="-217" type="curve" smooth="yes"/>
			<point x="488" y="-217"/>
			<point x="582" y="-97"/>
			<point x="582" y="48" type="curve" smooth="yes"/>
			<point x="582" y="141"/>
			<point x="526" y="212"/>
			<point x="410" y="180" type="curve"/>
			<point x="424" y="160" type="line"/>
			<point x="644" y="441" type="line"/>
			<point x="652" y="486" type="line"/>
			<point x="347" y="486" type="line"/>
			<point x="334" y="424" type="line"/>
			<point x="558" y="424" type="line"/>
			<point x="355" y="166" type="line"/>
			<point x="375" y="118" type="line"/>
			<point x="397" y="128"/>
			<point x="411" y="133"/>
			<point x="433" y="133" type="curve" smooth="yes"/>
			<point x="480" y="133"/>
			<point x="506" y="101"/>
			<point x="506" y="33" type="curve" smooth="yes"/>
			<point x="506" y="-71"/>
			<point x="438" y="-154"/>
			<point x="364" y="-154" type="curve" smooth="yes"/>
			<point x="319" y="-154"/>
			<point x="283" y="-127"/>
			<point x="259" y="-102" type="curve"/>
			<point x="216" y="-147" type="line"/>
			<point x="245" y="-181"/>
			<point x="292" y="-217"/>
		</contour>
		<contour>
			<point name="aboveUC" x="382" y="736" type="move"/>
		</contour>
		<contour>
			<point name="belowLC" x="246" y="-219" type="move"/>
		</contour>
	</outline>
</glyph>
<glyph name="h.sups" format="2">
	<unicode hex="02B0"/>
	<advance width="600"/>
	<outline>
		<contour>
			<point x="189" y="395" type="line"/>
			<point x="248" y="395" type="line"/>
			<point x="294" y="621" type="line"/>
			<point x="335" y="654"/>
			<point x="365" y="672"/>
			<point x="403" y="672" type="curve" smooth="yes"/>
			<point x="448" y="672"/>
			<point x="461" y="646"/>
			<point x="450" y="589" type="curve" smooth="yes"/>
			<point x="412" y="395" type="line"/>
			<point x="471" y="395" type="line"/>
			<point x="512" y="597" type="line" smooth="yes"/>
			<point x="528" y="679"/>
			<point x="503" y="724"/>
			<point x="429" y="724" type="curve" smooth="yes"/>
			<point x="381" y="724"/>
			<point x="337" y="699"/>
			<point x="299" y="665" type="curve"/>
			<point x="317" y="736" type="line"/>
			<point x="342" y="863" type="line"/>
			<point x="283" y="863" type="line"/>
		</contour>
	</outline>
</glyph>
<glyph name="verticallinelowmod" format="2">
	<unicode hex="02CC"/>
	<advance width="600"/>
	<outline>
		<contour>
			<point x="141" y="-252" type="line"/>
			<point x="238" y="-252" type="line"/>
			<point x="279" y="63" type="line"/>
			<point x="226" y="63" type="line"/>
		</contour>
	</outline>
</glyph>
<glyph name="colontriangularhalfmod" format="1">
	<unicode hex="02D1"/>
	<advance width="600"/>
	<outline>
		<contour>
			<point x="298" y="345" type="line"/>
			<point x="309" y="345" type="line"/>
			<point x="417" y="486" type="line"/>
			<point x="248" y="486" type="line"/>
		</contour>
	</outline>
</glyph>
<glyph name="hookrhoticmod" format="1">
	<unicode hex="02DE"/>
	<advance width="600"/>
	<outline>
		<contour>
			<point x="381" y="230" type="curve" smooth="yes"/>
			<point x="409" y="230"/>
			<point x="432" y="242"/>
			<point x="450" y="254" type="curve"/>
			<point x="438" y="297" type="line"/>
			<point x="427" y="289"/>
			<point x="413" y="282"/>
			<point x="398" y="282" type="curve" smooth="yes"/>
			<point x="372" y="282"/>
			<point x="357" y="304"/>
			<point x="363" y="406" type="curve"/>
			<point x="212" y="346" type="line"/>
			<point x="199" y="283" type="line"/>
			<point x="309" y="326" type="line"/>
			<point x="312" y="255"/>
			<point x="341" y="230"/>
		</contour>
	</outline>
</glyph>
<glyph name="gammalatinsupmod" format="1">
	<unicode hex="02E0"/>
	<advance width="600"/>
	<outline>
		<contour>
			<point x="293" y="422" type="line"/>
			<point x="361" y="422" type="line"/>
			<point x="551" y="716" type="line"/>
			<point x="492" y="716" type="line"/>
			<point x="390" y="551" type="line" smooth="yes"/>
			<point x="372" y="524"/>
			<point x="355" y="496"/>
			<point x="334" y="463" type="curve"/>
			<point x="332" y="463" type="line"/>
			<point x="324" y="495"/>
			<point x="318" y="524"/>
			<point x="311" y="551" type="curve" smooth="yes"/>
			<point x="272" y="716" type="line"/>
			<point x="215" y="716" type="line"/>
		</contour>
		<contour>
			<point x="294" y="248" type="curve" smooth="yes"/>
			<point x="351" y="248"/>
			<point x="386" y="290"/>
			<point x="386" y="347" type="curve" smooth="yes"/>
			<point x="386" y="376"/>
			<point x="376" y="408"/>
			<point x="361" y="450" type="curve"/>
			<point x="303" y="450" type="line"/>
			<point x="256" y="387"/>
			<point x="230" y="348"/>
			<point x="230" y="307" type="curve" smooth="yes"/>
			<point x="230" y="271"/>
			<point x="253" y="248"/>
		</contour>
		<contour>
			<point x="301" y="288" type="curve" smooth="yes"/>
			<point x="287" y="288"/>
			<point x="279" y="296"/>
			<point x="279" y="313" type="curve" smooth="yes"/>
			<point x="279" y="332"/>
			<point x="297" y="368"/>
			<point x="321" y="404" type="curve"/>
			<point x="324" y="404" type="line"/>
			<point x="331" y="383"/>
			<point x="336" y="362"/>
			<point x="336" y="338" type="curve" smooth="yes"/>
			<point x="336" y="308"/>
			<point x="322" y="288"/>
		</contour>
	</outline>
</glyph>
<glyph name="l.sups" format="2">
	<unicode hex="02E1"/>
	<advance width="600"/>
	<outline>
		<contour>
			<point x="383" y="387" type="curve" smooth="yes"/>
			<point x="414" y="387"/>
			<point x="443" y="395"/>
			<point x="465" y="405" type="curve"/>
			<point x="454" y="451" type="line"/>
			<point x="433" y="442"/>
			<point x="419" y="437"/>
			<point x="398" y="437" type="curve" smooth="yes"/>
			<point x="371" y="437"/>
			<point x="354" y="453"/>
			<point x="363" y="496" type="curve" smooth="yes"/>
			<point x="440" y="863" type="line"/>
			<point x="302" y="863" type="line"/>
			<point x="293" y="817" type="line"/>
			<point x="371" y="817" type="line"/>
			<point x="305" y="500" type="line" smooth="yes"/>
			<point x="290" y="426"/>
			<point x="316" y="387"/>
		</contour>
	</outline>
</glyph>
<glyph name="s.sups" format="2">
	<unicode hex="02E2"/>
	<advance width="600"/>
	<outline>
		<contour>
			<point x="321" y="387" type="curve" smooth="yes"/>
			<point x="401" y="387"/>
			<point x="463" y="420"/>
			<point x="463" y="484" type="curve" smooth="yes"/>
			<point x="463" y="542"/>
			<point x="424" y="561"/>
			<point x="374" y="579" type="curve" smooth="yes"/>
			<point x="325" y="597"/>
			<point x="302" y="609"/>
			<point x="302" y="635" type="curve" smooth="yes"/>
			<point x="302" y="663"/>
			<point x="332" y="678"/>
			<point x="369" y="678" type="curve" smooth="yes"/>
			<point x="413" y="678"/>
			<point x="440" y="661"/>
			<point x="462" y="640" type="curve"/>
			<point x="495" y="675" type="line"/>
			<point x="470" y="700"/>
			<point x="432" y="724"/>
			<point x="373" y="724" type="curve" smooth="yes"/>
			<point x="299" y="724"/>
			<point x="243" y="691"/>
			<point x="243" y="629" type="curve" smooth="yes"/>
			<point x="243" y="577"/>
			<point x="282" y="553"/>
			<point x="331" y="535" type="curve" smooth="yes"/>
			<point x="383" y="515"/>
			<point x="405" y="503"/>
			<point x="405" y="478" type="curve" smooth="yes"/>
			<point x="405" y="449"/>
			<point x="372" y="433"/>
			<point x="329" y="433" type="curve" smooth="yes"/>
			<point x="288" y="433"/>
			<point x="252" y="454"/>
			<point x="227" y="484" type="curve"/>
			<point x="193" y="447" type="line"/>
			<point x="222" y="414"/>
			<point x="270" y="387"/>
		</contour>
	</outline>
</glyph>
<glyph name="gravecmb" format="2">
	<unicode hex="0300"/>
	<advance width="600"/>
	<outline>
		<contour>
			<point x="389" y="570" type="line"/>
			<point x="437" y="606" type="line"/>
			<point x="323" y="783" type="line"/>
			<point x="257" y="734" type="line"/>
		</contour>
	</outline>
	<anchor name="_aboveLC" x="339" y="507"/>
	<anchor name="aboveLC" x="300" y="507"/>
</glyph>
<glyph name="acutecmb" format="2">
	<unicode hex="0301"/>
	<advance width="600"/>
	<outline>
		<contour>
			<point x="328" y="579" type="line"/>
			<point x="508" y="717" type="line"/>
			<point x="461" y="777" type="line"/>
			<point x="293" y="624" type="line"/>
		</contour>
	</outline>
	<anchor name="_aboveLC" x="339" y="507"/>
	<anchor name="aboveLC" x="300" y="507"/>
</glyph>
<glyph name="circumflexcmb" format="2">
	<unicode hex="0302"/>
	<advance width="600"/>
	<outline>
		<contour>
			<point x="232" y="568" type="line"/>
			<point x="374" y="684" type="line"/>
			<point x="378" y="684" type="line"/>
			<point x="472" y="568" type="line"/>
			<point x="511" y="599" type="line"/>
			<point x="422" y="740" type="line"/>
			<point x="339" y="740" type="line"/>
			<point x="201" y="602" type="line"/>
		</contour>
	</outline>
	<anchor name="_aboveLC" x="339" y="507"/>
	<anchor name="aboveLC" x="385" y="732"/>
</glyph>
<glyph name="macroncmb" format="2">
	<unicode hex="0304"/>
	<advance width="600"/>
	<outline>
		<contour>
			<point x="231" y="601" type="line"/>
			<point x="486" y="601" type="line"/>
			<point x="496" y="655" type="line"/>
			<point x="241" y="655" type="line"/>
		</contour>
	</outline>
	<anchor name="_aboveLC" x="339" y="507"/>
	<anchor name="aboveLC" x="337" y="571"/>
</glyph>
<glyph name="dotaccentcmb" format="2">
	<unicode hex="0307"/>
	<advance width="600"/>
	<outline>
		<contour>
			<point x="361" y="589" type="curve" smooth="yes"/>
			<point x="399" y="589"/>
			<point x="431" y="619"/>
			<point x="431" y="658" type="curve" smooth="yes"/>
			<point x="431" y="692"/>
			<point x="408" y="711"/>
			<point x="373" y="711" type="curve" smooth="yes"/>
			<point x="336" y="711"/>
			<point x="304" y="680"/>
			<point x="304" y="642" type="curve" smooth="yes"/>
			<point x="304" y="608"/>
			<point x="329" y="589"/>
		</contour>
	</outline>
	<anchor name="_aboveLC" x="339" y="507"/>
	<anchor name="aboveLC" x="377" y="706"/>
</glyph>
<glyph name="ringcmb" format="2">
	<unicode hex="030A"/>
	<advance width="600"/>
	<outline>
		<contour>
			<point x="357" y="556" type="curve" smooth="yes"/>
			<point x="427" y="556"/>
			<point x="476" y="607"/>
			<point x="476" y="667" type="curve" smooth="yes"/>
			<point x="476" y="720"/>
			<point x="435" y="749"/>
			<point x="380" y="749" type="curve" smooth="yes"/>
			<point x="311" y="749"/>
			<point x="262" y="698"/>
			<point x="262" y="638" type="curve" smooth="yes"/>
			<point x="262" y="585"/>
			<point x="303" y="556"/>
		</contour>
		<contour>
			<point x="362" y="592" type="curve" smooth="yes"/>
			<point x="331" y="592"/>
			<point x="314" y="612"/>
			<point x="314" y="641" type="curve" smooth="yes"/>
			<point x="314" y="680"/>
			<point x="342" y="713"/>
			<point x="375" y="713" type="curve" smooth="yes"/>
			<point x="406" y="713"/>
			<point x="424" y="692"/>
			<point x="424" y="664" type="curve" smooth="yes"/>
			<point x="424" y="625"/>
			<point x="396" y="592"/>
		</contour>
	</outline>
	<anchor name="_aboveLC" x="339" y="507"/>
	<anchor name="aboveLC" x="300" y="507"/>
</glyph>
<glyph name="hungarumlautcmb" format="1">
	<unicode hex="030B"/>
	<advance width="600"/>
	<outline>
		<contour>
			<point x="304" y="571" type="line"/>
			<point x="432" y="725" type="line"/>
			<point x="380" y="759" type="line"/>
			<point x="263" y="596" type="line"/>
		</contour>
		<contour>
			<point x="455" y="571" type="line"/>
			<point x="583" y="725" type="line"/>
			<point x="531" y="759" type="line"/>
			<point x="413" y="596" type="line"/>
		</contour>
		<contour>
			<point name="_aboveLC" x="339" y="507" type="move"/>
		</contour>
	</outline>
</glyph>
<glyph name="caroncmb" format="1">
	<unicode hex="030C"/>
	<advance width="600"/>
	<outline>
		<contour>
			<point x="315" y="575" type="line"/>
			<point x="398" y="575" type="line"/>
			<point x="536" y="713" type="line"/>
			<point x="505" y="747" type="line"/>
			<point x="363" y="631" type="line"/>
			<point x="359" y="631" type="line"/>
			<point x="265" y="747" type="line"/>
			<point x="226" y="716" type="line"/>
		</contour>
		<contour>
			<point name="_aboveLC" x="339" y="507" type="move"/>
		</contour>
	</outline>
</glyph>
<glyph name="candrabinducmb" format="1">
	<unicode hex="0310"/>
	<advance width="600"/>
	<outline>
		<contour>
			<point x="353" y="571" type="curve" smooth="yes"/>
			<point x="466" y="571"/>
			<point x="527" y="648"/>
			<point x="546" y="722" type="curve"/>
			<point x="499" y="730" type="line"/>
			<point x="481" y="677"/>
			<point x="434" y="622"/>
			<point x="364" y="622" type="curve" smooth="yes"/>
			<point x="293" y="622"/>
			<point x="268" y="677"/>
			<point x="272" y="730" type="curve"/>
			<point x="223" y="722" type="line"/>
			<point x="216" y="648"/>
			<point x="246" y="571"/>
		</contour>
		<contour>
			<point x="381" y="701" type="curve" smooth="yes"/>
			<point x="414" y="701"/>
			<point x="445" y="731"/>
			<point x="445" y="766" type="curve" smooth="yes"/>
			<point x="445" y="796"/>
			<point x="425" y="812"/>
			<point x="397" y="812" type="curve" smooth="yes"/>
			<point x="364" y="812"/>
			<point x="333" y="782"/>
			<point x="333" y="747" type="curve" smooth="yes"/>
			<point x="333" y="717"/>
			<point x="354" y="701"/>
		</contour>
		<contour>
			<point name="_aboveLC" x="339" y="507" type="move"/>
		</contour>
	</outline>
</glyph>
<glyph name="commaturnedabovecmb" format="1">
	<unicode hex="0312"/>
	<advance width="600"/>
	<outline>
		<contour>
			<point x="349" y="551" type="curve" smooth="yes"/>
			<point x="381" y="551"/>
			<point x="405" y="569"/>
			<point x="405" y="603" type="curve" smooth="yes"/>
			<point x="405" y="627"/>
			<point x="385" y="644"/>
			<point x="363" y="644" type="curve" smooth="yes"/>
			<point x="348" y="644"/>
			<point x="335" y="640"/>
			<point x="319" y="625" type="curve"/>
			<point x="347" y="587" type="line"/>
			<point x="348" y="636" type="line"/>
			<point x="356" y="669"/>
			<point x="377" y="692"/>
			<point x="426" y="710" type="curve"/>
			<point x="413" y="744" type="line"/>
			<point x="334" y="719"/>
			<point x="299" y="671"/>
			<point x="299" y="613" type="curve" smooth="yes"/>
			<point x="299" y="578"/>
			<point x="319" y="551"/>
		</contour>
		<contour>
			<point name="_aboveLC" x="339" y="507" type="move"/>
		</contour>
	</outline>
</glyph>
<glyph name="leftangleabovecmb" format="2">
	<unicode hex="031A"/>
	<advance width="600"/>
	<outline>
		<contour>
			<point x="429" y="573" type="line"/>
			<point x="478" y="573" type="line"/>
			<point x="505" y="714" type="line"/>
			<point x="347" y="714" type="line"/>
			<point x="338" y="667" type="line"/>
			<point x="447" y="667" type="line"/>
		</contour>
	</outline>
	<anchor name="_aboverightLC" x="382" y="507"/>
</glyph>
<glyph name="ringhalfleftbelowcmb" format="2">
	<unicode hex="031C"/>
	<advance width="600"/>
	<outline>
		<contour>
			<point x="236" y="-262" type="curve"/>
			<point x="243" y="-226" type="line"/>
			<point x="207" y="-226"/>
			<point x="185" y="-209"/>
			<point x="185" y="-174" type="curve" smooth="yes"/>
			<point x="185" y="-135"/>
			<point x="217" y="-108"/>
			<point x="267" y="-106" type="curve"/>
			<point x="274" y="-70" type="line"/>
			<point x="190" y="-70"/>
			<point x="133" y="-113"/>
			<point x="133" y="-179" type="curve" smooth="yes"/>
			<point x="133" y="-235"/>
			<point x="179" y="-265"/>
		</contour>
	</outline>
	<anchor name="_belowLC" x="234" y="-20"/>
</glyph>
<glyph name="uptackbelowcmb" format="1">
	<unicode hex="031D"/>
	<advance width="600"/>
	<outline>
		<contour>
			<point x="103" y="-211" type="line"/>
			<point x="290" y="-211" type="line"/>
			<point x="299" y="-164" type="line"/>
			<point x="230" y="-164" type="line"/>
			<point x="251" y="-58" type="line"/>
			<point x="202" y="-58" type="line"/>
			<point x="181" y="-164" type="line"/>
			<point x="112" y="-164" type="line"/>
		</contour>
		<contour>
			<point name="_belowLC" x="234" y="-20" type="move"/>
		</contour>
	</outline>
</glyph>
<glyph name="downtackbelowcmb" format="1">
	<unicode hex="031E"/>
	<advance width="600"/>
	<outline>
		<contour>
			<point x="165" y="-249" type="line"/>
			<point x="213" y="-249" type="line"/>
			<point x="234" y="-143" type="line"/>
			<point x="304" y="-143" type="line"/>
			<point x="313" y="-96" type="line"/>
			<point x="125" y="-96" type="line"/>
			<point x="116" y="-143" type="line"/>
			<point x="186" y="-143" type="line"/>
		</contour>
		<contour>
			<point name="_belowLC" x="234" y="-20" type="move"/>
		</contour>
	</outline>
</glyph>
<glyph name="minusbelowcmb" format="1">
	<unicode hex="0320"/>
	<advance width="600"/>
	<outline>
		<contour>
			<point x="109" y="-177" type="line"/>
			<point x="297" y="-177" type="line"/>
			<point x="306" y="-130" type="line"/>
			<point x="118" y="-130" type="line"/>
		</contour>
		<contour>
			<point name="_belowLC" x="234" y="-20" type="move"/>
		</contour>
	</outline>
</glyph>
<glyph name="cedillacmb" format="1">
	<unicode hex="0327"/>
	<advance width="600"/>
	<outline>
		<contour>
			<point x="105" y="-226" type="line"/>
			<point x="211" y="-224"/>
			<point x="281" y="-191"/>
			<point x="286" y="-128" type="curve" smooth="yes"/>
			<point x="288" y="-95"/>
			<point x="274" y="-77"/>
			<point x="226" y="-65" type="curve"/>
			<point x="271" y="7" type="line"/>
			<point x="217" y="7" type="line"/>
			<point x="153" y="-90" type="line"/>
			<point x="204" y="-95"/>
			<point x="223" y="-108"/>
			<point x="222" y="-133" type="curve" smooth="yes"/>
			<point x="220" y="-165"/>
			<point x="184" y="-184"/>
			<point x="104" y="-187" type="curve"/>
		</contour>
		<contour>
			<point name="_baseLC" x="240" y="0" type="move"/>
		</contour>
	</outline>
</glyph>
<glyph name="verticallinebelowcmb" format="1">
	<unicode hex="0329"/>
	<advance width="600"/>
	<outline>
		<contour>
			<point x="153" y="-266" type="line"/>
			<point x="220" y="-266" type="line"/>
			<point x="250" y="-71" type="line"/>
			<point x="198" y="-71" type="line"/>
		</contour>
		<contour>
			<point name="_belowLC" x="234" y="-20" type="move"/>
		</contour>
	</outline>
</glyph>
<glyph name="bridgebelowcmb" format="2">
	<unicode hex="032A"/>
	<advance width="600"/>
	<outline>
		<contour>
			<point x="75" y="-226" type="line"/>
			<point x="120" y="-226" type="line"/>
			<point x="140" y="-129" type="line"/>
			<point x="287" y="-129" type="line"/>
			<point x="268" y="-226" type="line"/>
			<point x="313" y="-226" type="line"/>
			<point x="342" y="-82" type="line"/>
			<point x="103" y="-82" type="line"/>
		</contour>
	</outline>
	<anchor name="_belowLC" x="234" y="-20"/>
</glyph>
<glyph name="tildeoverlaycmb" format="1">
	<unicode hex="0334"/>
	<advance width="600"/>
	<outline>
		<contour>
			<point x="364" y="171" type="curve" smooth="yes"/>
			<point x="428" y="171"/>
			<point x="464" y="229"/>
			<point x="480" y="306" type="curve"/>
			<point x="425" y="310" type="line"/>
			<point x="415" y="263"/>
			<point x="396" y="229"/>
			<point x="366" y="229" type="curve" smooth="yes"/>
			<point x="307" y="229"/>
			<point x="289" y="315"/>
			<point x="211" y="315" type="curve" smooth="yes"/>
			<point x="147" y="315"/>
			<point x="110" y="257"/>
			<point x="95" y="179" type="curve"/>
			<point x="150" y="176" type="line"/>
			<point x="159" y="224"/>
			<point x="179" y="256"/>
			<point x="209" y="256" type="curve" smooth="yes"/>
			<point x="268" y="256"/>
			<point x="286" y="171"/>
		</contour>
		<contour>
			<point name="_center" x="287" y="244" type="move"/>
		</contour>
	</outline>
</glyph>
<glyph name="bridgeinvertedbelowcmb" format="2">
	<unicode hex="033A"/>
	<advance width="600"/>
	<outline>
		<contour>
			<point x="76" y="-225" type="line"/>
			<point x="314" y="-225" type="line"/>
			<point x="342" y="-82" type="line"/>
			<point x="297" y="-82" type="line"/>
			<point x="278" y="-178" type="line"/>
			<point x="130" y="-178" type="line"/>
			<point x="149" y="-82" type="line"/>
			<point x="104" y="-82" type="line"/>
		</contour>
	</outline>
	<anchor name="_belowLC" x="234" y="-20"/>
</glyph>
<glyph name="squarebelowcmb" format="2">
	<unicode hex="033B"/>
	<advance width="600"/>
	<outline>
		<contour>
			<point x="73" y="-240" type="line"/>
			<point x="311" y="-240" type="line"/>
			<point x="343" y="-77" type="line"/>
			<point x="104" y="-77" type="line"/>
		</contour>
		<contour>
			<point x="126" y="-200" type="line"/>
			<point x="142" y="-116" type="line"/>
			<point x="290" y="-116" type="line"/>
			<point x="273" y="-200" type="line"/>
		</contour>
	</outline>
	<anchor name="_belowLC" x="234" y="-20"/>
</glyph>
<glyph name="seagullbelowcmb" format="1">
	<unicode hex="033C"/>
	<advance width="600"/>
	<outline>
		<contour>
			<point x="74" y="-234" type="line"/>
			<point x="91" y="-154"/>
			<point x="113" y="-134"/>
			<point x="143" y="-134" type="curve" smooth="yes"/>
			<point x="174" y="-134"/>
			<point x="184" y="-163"/>
			<point x="174" y="-214" type="curve" smooth="yes"/>
			<point x="170" y="-233" type="line"/>
			<point x="216" y="-233" type="line"/>
			<point x="220" y="-214" type="line" smooth="yes"/>
			<point x="230" y="-163"/>
			<point x="251" y="-134"/>
			<point x="281" y="-134" type="curve" smooth="yes"/>
			<point x="312" y="-134"/>
			<point x="327" y="-154"/>
			<point x="311" y="-234" type="curve"/>
			<point x="359" y="-228" type="line"/>
			<point x="380" y="-124"/>
			<point x="356" y="-80"/>
			<point x="296" y="-80" type="curve" smooth="yes"/>
			<point x="263" y="-80"/>
			<point x="231" y="-96"/>
			<point x="213" y="-138" type="curve"/>
			<point x="210" y="-138" type="line"/>
			<point x="209" y="-96"/>
			<point x="184" y="-80"/>
			<point x="151" y="-80" type="curve" smooth="yes"/>
			<point x="91" y="-80"/>
			<point x="48" y="-124"/>
			<point x="29" y="-228" type="curve"/>
		</contour>
		<contour>
			<point name="_belowLC" x="234" y="-20" type="move"/>
		</contour>
	</outline>
</glyph>
<glyph name="perispomenicmb" format="1">
	<unicode hex="0342"/>
	<advance width="600"/>
	<outline>
		<component base="tildecmb"/>
		<contour>
			<point name="_aboveLC" x="339" y="507" type="move"/>
		</contour>
	</outline>
</glyph>
<glyph name="macrondoublebelowcmb" format="2">
	<unicode hex="035F"/>
	<advance width="600"/>
	<outline>
		<contour>
			<point x="-282" y="-167" type="line"/>
			<point x="692" y="-167" type="line"/>
			<point x="703" y="-113" type="line"/>
			<point x="-272" y="-113" type="line"/>
		</contour>
	</outline>
</glyph>
<glyph name="breveinverteddoublecmb" format="1">
	<unicode hex="0361"/>
	<advance width="600"/>
	<outline>
		<contour>
			<point x="-66" y="600" type="line"/>
			<point x="75" y="677"/>
			<point x="238" y="711"/>
			<point x="380" y="711" type="curve" smooth="yes"/>
			<point x="523" y="711"/>
			<point x="673" y="677"/>
			<point x="783" y="600" type="curve"/>
			<point x="814" y="642" type="line"/>
			<point x="698" y="724"/>
			<point x="558" y="769"/>
			<point x="391" y="769" type="curve" smooth="yes"/>
			<point x="225" y="769"/>
			<point x="68" y="724"/>
			<point x="-81" y="642" type="curve"/>
		</contour>
	</outline>
</glyph>
<glyph name="pi" format="2">
	<unicode hex="03C0"/>
	<advance width="600"/>
	<outline>
		<contour>
			<point x="134" y="-5" type="line"/>
			<point x="172" y="139"/>
			<point x="207" y="295"/>
			<point x="235" y="433" type="curve"/>
			<point x="165" y="433" type="line"/>
			<point x="139" y="300"/>
			<point x="103" y="144"/>
			<point x="59" y="0" type="curve"/>
		</contour>
		<contour>
			<point x="68" y="425" type="line"/>
			<point x="583" y="425" type="line"/>
			<point x="596" y="486" type="line"/>
			<point x="149" y="486" type="line"/>
			<point x="79" y="481" type="line"/>
		</contour>
		<contour>
			<point x="429" y="-12" type="curve" smooth="yes"/>
			<point x="456" y="-12"/>
			<point x="481" y="-5"/>
			<point x="496" y="1" type="curve"/>
			<point x="487" y="58" type="line"/>
			<point x="476" y="54"/>
			<point x="465" y="50"/>
			<point x="452" y="50" type="curve" smooth="yes"/>
			<point x="434" y="50"/>
			<point x="422" y="60"/>
			<point x="422" y="82" type="curve" smooth="yes"/>
			<point x="422" y="115"/>
			<point x="462" y="295"/>
			<point x="497" y="432" type="curve"/>
			<point x="425" y="432" type="line"/>
			<point x="395" y="302"/>
			<point x="350" y="116"/>
			<point x="350" y="67" type="curve" smooth="yes"/>
			<point x="350" y="17"/>
			<point x="377" y="-12"/>
		</contour>
	</outline>
</glyph>
<glyph name="a.sups" format="2">
	<unicode hex="1D43"/>
	<advance width="600"/>
	<outline>
		<contour>
			<point x="283" y="387" type="curve" smooth="yes"/>
			<point x="329" y="387"/>
			<point x="369" y="408"/>
			<point x="400" y="433" type="curve"/>
			<point x="402" y="433" type="line"/>
			<point x="399" y="395" type="line"/>
			<point x="449" y="395" type="line"/>
			<point x="513" y="716" type="line"/>
			<point x="465" y="716" type="line"/>
			<point x="454" y="685" type="line"/>
			<point x="452" y="685" type="line"/>
			<point x="427" y="710"/>
			<point x="400" y="724"/>
			<point x="363" y="724" type="curve" smooth="yes"/>
			<point x="267" y="724"/>
			<point x="177" y="643"/>
			<point x="177" y="513" type="curve" smooth="yes"/>
			<point x="177" y="430"/>
			<point x="218" y="387"/>
		</contour>
		<contour>
			<point x="311" y="436" type="curve" smooth="yes"/>
			<point x="264" y="436"/>
			<point x="239" y="468"/>
			<point x="239" y="522" type="curve" smooth="yes"/>
			<point x="239" y="613"/>
			<point x="300" y="674"/>
			<point x="363" y="674" type="curve" smooth="yes"/>
			<point x="392" y="674"/>
			<point x="414" y="665"/>
			<point x="438" y="643" type="curve"/>
			<point x="407" y="479" type="line"/>
			<point x="374" y="452"/>
			<point x="341" y="436"/>
		</contour>
	</outline>
</glyph>
<glyph name="e.sups" format="2">
	<unicode hex="1D49"/>
	<advance width="600"/>
	<outline>
		<contour>
			<point x="328" y="387" type="curve" smooth="yes"/>
			<point x="382" y="387"/>
			<point x="435" y="409"/>
			<point x="467" y="434" type="curve"/>
			<point x="443" y="475" type="line"/>
			<point x="414" y="453"/>
			<point x="381" y="435"/>
			<point x="340" y="435" type="curve" smooth="yes"/>
			<point x="292" y="435"/>
			<point x="251" y="459"/>
			<point x="251" y="527" type="curve" smooth="yes"/>
			<point x="251" y="621"/>
			<point x="314" y="677"/>
			<point x="377" y="677" type="curve" smooth="yes"/>
			<point x="428" y="677"/>
			<point x="455" y="641"/>
			<point x="441" y="574" type="curve"/>
			<point x="460" y="580" type="line"/>
			<point x="241" y="580" type="line"/>
			<point x="239" y="541" type="line"/>
			<point x="487" y="541" type="line"/>
			<point x="491" y="555"/>
			<point x="498" y="580"/>
			<point x="498" y="610" type="curve" smooth="yes"/>
			<point x="498" y="678"/>
			<point x="458" y="724"/>
			<point x="382" y="724" type="curve" smooth="yes"/>
			<point x="288" y="724"/>
			<point x="193" y="649"/>
			<point x="193" y="522" type="curve" smooth="yes"/>
			<point x="193" y="432"/>
			<point x="252" y="387"/>
		</contour>
	</outline>
</glyph>
<glyph name="m.sups" format="2">
	<unicode hex="1D50"/>
	<advance width="600"/>
	<outline>
		<contour>
			<point x="95" y="395" type="line"/>
			<point x="152" y="395" type="line"/>
			<point x="196" y="617" type="line"/>
			<point x="231" y="654"/>
			<point x="265" y="675"/>
			<point x="288" y="675" type="curve" smooth="yes"/>
			<point x="316" y="675"/>
			<point x="330" y="658"/>
			<point x="330" y="626" type="curve" smooth="yes"/>
			<point x="330" y="616"/>
			<point x="328" y="606"/>
			<point x="325" y="591" type="curve" smooth="yes"/>
			<point x="286" y="395" type="line"/>
			<point x="342" y="395" type="line"/>
			<point x="387" y="617" type="line"/>
			<point x="420" y="654"/>
			<point x="454" y="675"/>
			<point x="478" y="675" type="curve" smooth="yes"/>
			<point x="506" y="675"/>
			<point x="518" y="658"/>
			<point x="518" y="628" type="curve" smooth="yes"/>
			<point x="518" y="617"/>
			<point x="517" y="606"/>
			<point x="514" y="591" type="curve" smooth="yes"/>
			<point x="475" y="395" type="line"/>
			<point x="532" y="395" type="line"/>
			<point x="572" y="598" type="line" smooth="yes"/>
			<point x="576" y="615"/>
			<point x="578" y="630"/>
			<point x="578" y="642" type="curve" smooth="yes"/>
			<point x="578" y="694"/>
			<point x="557" y="724"/>
			<point x="501" y="724" type="curve" smooth="yes"/>
			<point x="464" y="724"/>
			<point x="426" y="699"/>
			<point x="387" y="664" type="curve"/>
			<point x="380" y="697"/>
			<point x="364" y="724"/>
			<point x="313" y="724" type="curve" smooth="yes"/>
			<point x="275" y="724"/>
			<point x="238" y="700"/>
			<point x="205" y="670" type="curve"/>
			<point x="201" y="670" type="line"/>
			<point x="205" y="716" type="line"/>
			<point x="158" y="716" type="line"/>
		</contour>
	</outline>
</glyph>
<glyph name="o.sups" format="2">
	<unicode hex="1D52"/>
	<advance width="600"/>
	<outline>
		<contour>
			<point x="312" y="387" type="curve" smooth="yes"/>
			<point x="413" y="387"/>
			<point x="505" y="461"/>
			<point x="505" y="588" type="curve" smooth="yes"/>
			<point x="505" y="674"/>
			<point x="451" y="724"/>
			<point x="376" y="724" type="curve" smooth="yes"/>
			<point x="276" y="724"/>
			<point x="183" y="648"/>
			<point x="183" y="521" type="curve" smooth="yes"/>
			<point x="183" y="436"/>
			<point x="238" y="387"/>
		</contour>
		<contour>
			<point x="320" y="437" type="curve" smooth="yes"/>
			<point x="272" y="437"/>
			<point x="244" y="470"/>
			<point x="244" y="525" type="curve" smooth="yes"/>
			<point x="244" y="604"/>
			<point x="299" y="675"/>
			<point x="369" y="675" type="curve" smooth="yes"/>
			<point x="416" y="675"/>
			<point x="443" y="640"/>
			<point x="443" y="585" type="curve" smooth="yes"/>
			<point x="443" y="505"/>
			<point x="392" y="437"/>
		</contour>
	</outline>
</glyph>
<glyph name="p.sups" format="2">
	<unicode hex="1D56"/>
	<advance width="600"/>
	<outline>
		<contour>
			<point x="160" y="260" type="line"/>
			<point x="220" y="260" type="line"/>
			<point x="241" y="368" type="line"/>
			<point x="250" y="424" type="line"/>
			<point x="275" y="400"/>
			<point x="303" y="387"/>
			<point x="338" y="387" type="curve" smooth="yes"/>
			<point x="435" y="387"/>
			<point x="523" y="466"/>
			<point x="523" y="599" type="curve" smooth="yes"/>
			<point x="523" y="676"/>
			<point x="488" y="724"/>
			<point x="416" y="724" type="curve" smooth="yes"/>
			<point x="370" y="724"/>
			<point x="334" y="703"/>
			<point x="300" y="679" type="curve"/>
			<point x="298" y="679" type="line"/>
			<point x="299" y="716" type="line"/>
			<point x="250" y="716" type="line"/>
		</contour>
		<contour>
			<point x="336" y="436" type="curve" smooth="yes"/>
			<point x="308" y="436"/>
			<point x="285" y="444"/>
			<point x="261" y="468" type="curve"/>
			<point x="293" y="631" type="line"/>
			<point x="332" y="659"/>
			<point x="359" y="674"/>
			<point x="392" y="674" type="curve" smooth="yes"/>
			<point x="440" y="674"/>
			<point x="460" y="642"/>
			<point x="460" y="593" type="curve" smooth="yes"/>
			<point x="460" y="498"/>
			<point x="403" y="436"/>
		</contour>
	</outline>
</glyph>
<glyph name="underscoredbl" format="1">
	<unicode hex="2017"/>
	<advance width="600"/>
	<outline>
		<contour>
			<point x="-27" y="-130" type="line"/>
			<point x="453" y="-130" type="line"/>
			<point x="465" y="-71" type="line"/>
			<point x="-15" y="-71" type="line"/>
		</contour>
		<contour>
			<point x="-52" y="-250" type="line"/>
			<point x="428" y="-250" type="line"/>
			<point x="440" y="-190" type="line"/>
			<point x="-40" y="-190" type="line"/>
		</contour>
	</outline>
</glyph>
<glyph name="quoteleft" format="2">
	<unicode hex="2018"/>
	<advance width="600"/>
	<outline>
		<contour>
			<point x="331" y="373" type="curve" smooth="yes"/>
			<point x="377" y="373"/>
			<point x="415" y="412"/>
			<point x="415" y="461" type="curve" smooth="yes"/>
			<point x="415" y="499"/>
			<point x="393" y="522"/>
			<point x="362" y="522" type="curve" smooth="yes"/>
			<point x="337" y="522"/>
			<point x="313" y="511"/>
			<point x="295" y="494" type="curve"/>
			<point x="333" y="419" type="line"/>
			<point x="333" y="503" type="line"/>
			<point x="343" y="573"/>
			<point x="398" y="628"/>
			<point x="483" y="654" type="curve"/>
			<point x="471" y="698" type="line"/>
			<point x="340" y="662"/>
			<point x="256" y="571"/>
			<point x="256" y="462" type="curve" smooth="yes"/>
			<point x="256" y="401"/>
			<point x="288" y="373"/>
		</contour>
	</outline>
</glyph>
<glyph name="quotereversed" format="1">
	<unicode hex="201B"/>
	<advance width="600"/>
	<outline>
		<contour>
			<point x="373" y="375" type="curve"/>
			<point x="401" y="414" type="line"/>
			<point x="333" y="449"/>
			<point x="300" y="490"/>
			<point x="300" y="541" type="curve" smooth="yes"/>
			<point x="300" y="551"/>
			<point x="303" y="574"/>
			<point x="307" y="585" type="curve"/>
			<point x="337" y="653" type="line"/>
			<point x="270" y="588" type="line"/>
			<point x="278" y="566"/>
			<point x="295" y="549"/>
			<point x="325" y="549" type="curve" smooth="yes"/>
			<point x="371" y="549"/>
			<point x="407" y="591"/>
			<point x="407" y="635" type="curve" smooth="yes"/>
			<point x="407" y="672"/>
			<point x="378" y="699"/>
			<point x="341" y="699" type="curve" smooth="yes"/>
			<point x="284" y="699"/>
			<point x="231" y="642"/>
			<point x="231" y="559" type="curve" smooth="yes"/>
			<point x="231" y="485"/>
			<point x="285" y="415"/>
		</contour>
	</outline>
</glyph>
<glyph name="ellipsis" format="2">
	<unicode hex="2026"/>
	<advance width="600"/>
	<outline>
		<contour>
			<point x="41" y="-12" type="curve" smooth="yes"/>
			<point x="90" y="-12"/>
			<point x="124" y="25"/>
			<point x="124" y="75" type="curve" smooth="yes"/>
			<point x="124" y="112"/>
			<point x="103" y="134"/>
			<point x="71" y="134" type="curve" smooth="yes"/>
			<point x="28" y="134"/>
			<point x="-13" y="97"/>
			<point x="-13" y="47" type="curve" smooth="yes"/>
			<point x="-13" y="12"/>
			<point x="7" y="-12"/>
		</contour>
		<contour>
			<point x="239" y="-12" type="curve" smooth="yes"/>
			<point x="287" y="-12"/>
			<point x="321" y="25"/>
			<point x="321" y="75" type="curve" smooth="yes"/>
			<point x="321" y="112"/>
			<point x="301" y="134"/>
			<point x="269" y="134" type="curve" smooth="yes"/>
			<point x="225" y="134"/>
			<point x="185" y="97"/>
			<point x="185" y="47" type="curve" smooth="yes"/>
			<point x="185" y="12"/>
			<point x="204" y="-12"/>
		</contour>
		<contour>
			<point x="436" y="-12" type="curve" smooth="yes"/>
			<point x="484" y="-12"/>
			<point x="519" y="25"/>
			<point x="519" y="75" type="curve" smooth="yes"/>
			<point x="519" y="112"/>
			<point x="498" y="134"/>
			<point x="466" y="134" type="curve" smooth="yes"/>
			<point x="422" y="134"/>
			<point x="382" y="98"/>
			<point x="382" y="47" type="curve" smooth="yes"/>
			<point x="382" y="12"/>
			<point x="402" y="-12"/>
		</contour>
	</outline>
</glyph>
<glyph name="guilsinglleft" format="2">
	<unicode hex="2039"/>
	<advance width="600"/>
	<outline>
		<contour>
			<point x="304" y="52" type="line"/>
			<point x="346" y="82" type="line"/>
			<point x="260" y="247" type="line"/>
			<point x="411" y="415" type="line"/>
			<point x="381" y="449" type="line"/>
			<point x="197" y="286" type="line"/>
			<point x="185" y="222" type="line"/>
		</contour>
	</outline>
</glyph>
<glyph name="interrobang" format="1">
	<unicode hex="203D"/>
	<advance width="600"/>
	<outline>
		<contour>
			<point x="248" y="232" type="curve"/>
			<point x="301" y="232" type="line"/>
			<point x="320" y="371"/>
			<point x="521" y="393"/>
			<point x="521" y="550" type="curve" smooth="yes"/>
			<point x="521" y="629"/>
			<point x="451" y="682"/>
			<point x="357" y="682" type="curve" smooth="yes"/>
			<point x="275" y="682"/>
			<point x="205" y="645"/>
			<point x="158" y="588" type="curve"/>
			<point x="201" y="549" type="line"/>
			<point x="240" y="593"/>
			<point x="284" y="618"/>
			<point x="345" y="618" type="curve" smooth="yes"/>
			<point x="411" y="618"/>
			<point x="444" y="581"/>
			<point x="444" y="533" type="curve" smooth="yes"/>
			<point x="444" y="408"/>
			<point x="263" y="391"/>
		</contour>
		<contour>
			<point x="243" y="232" type="line"/>
			<point x="289" y="232" type="line"/>
			<point x="340" y="456" type="line"/>
			<point x="354" y="532" type="line"/>
			<point x="288" y="532" type="line"/>
			<point x="278" y="456" type="line"/>
		</contour>
		<contour>
			<point x="230" y="-12" type="curve" smooth="yes"/>
			<point x="276" y="-12"/>
			<point x="313" y="29"/>
			<point x="313" y="75" type="curve" smooth="yes"/>
			<point x="313" y="112"/>
			<point x="289" y="137"/>
			<point x="255" y="137" type="curve" smooth="yes"/>
			<point x="209" y="137"/>
			<point x="172" y="96"/>
			<point x="172" y="50" type="curve" smooth="yes"/>
			<point x="172" y="13"/>
			<point x="195" y="-12"/>
		</contour>
	</outline>
</glyph>
<glyph name="overline" format="1">
	<unicode hex="203E"/>
	<advance width="600"/>
	<outline>
		<contour>
			<point x="123" y="577" type="line"/>
			<point x="586" y="577" type="line"/>
			<point x="596" y="628" type="line"/>
			<point x="132" y="628" type="line"/>
		</contour>
	</outline>
</glyph>
<glyph name="undertie" format="1">
	<unicode hex="203F"/>
	<advance width="600"/>
	<outline>
		<contour>
			<point x="190" y="-233" type="curve" smooth="yes"/>
			<point x="352" y="-233"/>
			<point x="506" y="-188"/>
			<point x="651" y="-105" type="curve"/>
			<point x="634" y="-67" type="line"/>
			<point x="497" y="-144"/>
			<point x="340" y="-179"/>
			<point x="201" y="-179" type="curve" smooth="yes"/>
			<point x="61" y="-179"/>
			<point x="-84" y="-144"/>
			<point x="-191" y="-67" type="curve"/>
			<point x="-221" y="-105" type="line"/>
			<point x="-108" y="-188"/>
			<point x="28" y="-233"/>
		</contour>
	</outline>
</glyph>
<glyph name="questiondbl" format="1">
	<unicode hex="2047"/>
	<advance width="600"/>
	<outline>
		<contour>
			<point x="86" y="232" type="curve"/>
			<point x="151" y="232" type="line"/>
			<point x="154" y="375"/>
			<point x="337" y="408"/>
			<point x="337" y="565" type="curve" smooth="yes"/>
			<point x="337" y="637"/>
			<point x="279" y="682"/>
			<point x="207" y="682" type="curve" smooth="yes"/>
			<point x="156" y="682"/>
			<point x="109" y="659"/>
			<point x="71" y="620" type="curve"/>
			<point x="105" y="572" type="line"/>
			<point x="130" y="602"/>
			<point x="157" y="618"/>
			<point x="193" y="618" type="curve" smooth="yes"/>
			<point x="234" y="618"/>
			<point x="261" y="588"/>
			<point x="261" y="549" type="curve" smooth="yes"/>
			<point x="261" y="425"/>
			<point x="89" y="391"/>
		</contour>
		<contour>
			<point x="83" y="-12" type="curve" smooth="yes"/>
			<point x="129" y="-12"/>
			<point x="165" y="29"/>
			<point x="165" y="75" type="curve" smooth="yes"/>
			<point x="165" y="112"/>
			<point x="142" y="137"/>
			<point x="107" y="137" type="curve" smooth="yes"/>
			<point x="61" y="137"/>
			<point x="24" y="96"/>
			<point x="24" y="50" type="curve" smooth="yes"/>
			<point x="24" y="13"/>
			<point x="48" y="-12"/>
		</contour>
		<contour>
			<point x="366" y="232" type="curve"/>
			<point x="431" y="232" type="line"/>
			<point x="434" y="375"/>
			<point x="617" y="408"/>
			<point x="617" y="565" type="curve" smooth="yes"/>
			<point x="617" y="637"/>
			<point x="559" y="682"/>
			<point x="487" y="682" type="curve" smooth="yes"/>
			<point x="436" y="682"/>
			<point x="389" y="659"/>
			<point x="351" y="620" type="curve"/>
			<point x="385" y="572" type="line"/>
			<point x="410" y="602"/>
			<point x="437" y="618"/>
			<point x="473" y="618" type="curve" smooth="yes"/>
			<point x="514" y="618"/>
			<point x="541" y="588"/>
			<point x="541" y="549" type="curve" smooth="yes"/>
			<point x="541" y="425"/>
			<point x="369" y="391"/>
		</contour>
		<contour>
			<point x="363" y="-12" type="curve" smooth="yes"/>
			<point x="409" y="-12"/>
			<point x="445" y="29"/>
			<point x="445" y="75" type="curve" smooth="yes"/>
			<point x="445" y="112"/>
			<point x="422" y="137"/>
			<point x="387" y="137" type="curve" smooth="yes"/>
			<point x="341" y="137"/>
			<point x="304" y="96"/>
			<point x="304" y="50" type="curve" smooth="yes"/>
			<point x="304" y="13"/>
			<point x="328" y="-12"/>
		</contour>
	</outline>
</glyph>
<glyph name="questionexclam" format="1">
	<unicode hex="2048"/>
	<advance width="600"/>
	<outline>
		<contour>
			<point x="86" y="232" type="curve"/>
			<point x="151" y="232" type="line"/>
			<point x="154" y="375"/>
			<point x="337" y="408"/>
			<point x="337" y="565" type="curve" smooth="yes"/>
			<point x="337" y="637"/>
			<point x="279" y="682"/>
			<point x="207" y="682" type="curve" smooth="yes"/>
			<point x="156" y="682"/>
			<point x="109" y="659"/>
			<point x="71" y="620" type="curve"/>
			<point x="105" y="572" type="line"/>
			<point x="130" y="602"/>
			<point x="157" y="618"/>
			<point x="193" y="618" type="curve" smooth="yes"/>
			<point x="234" y="618"/>
			<point x="261" y="588"/>
			<point x="261" y="549" type="curve" smooth="yes"/>
			<point x="261" y="425"/>
			<point x="89" y="391"/>
		</contour>
		<contour>
			<point x="83" y="-12" type="curve" smooth="yes"/>
			<point x="129" y="-12"/>
			<point x="165" y="29"/>
			<point x="165" y="75" type="curve" smooth="yes"/>
			<point x="165" y="112"/>
			<point x="142" y="137"/>
			<point x="107" y="137" type="curve" smooth="yes"/>
			<point x="61" y="137"/>
			<point x="24" y="96"/>
			<point x="24" y="50" type="curve" smooth="yes"/>
			<point x="24" y="13"/>
			<point x="48" y="-12"/>
		</contour>
		<component base="exclam" xOffset="140"/>
	</outline>
</glyph>
<glyph name="n.sups" format="2">
	<unicode hex="207F"/>
	<advance width="600"/>
	<outline>
		<contour>
			<point x="186" y="395" type="line"/>
			<point x="246" y="395" type="line"/>
			<point x="292" y="621" type="line"/>
			<point x="330" y="654"/>
			<point x="362" y="672"/>
			<point x="400" y="672" type="curve" smooth="yes"/>
			<point x="446" y="672"/>
			<point x="459" y="646"/>
			<point x="448" y="590" type="curve" smooth="yes"/>
			<point x="409" y="395" type="line"/>
			<point x="469" y="395" type="line"/>
			<point x="509" y="599" type="line" smooth="yes"/>
			<point x="525" y="681"/>
			<point x="495" y="724"/>
			<point x="432" y="724" type="curve" smooth="yes"/>
			<point x="377" y="724"/>
			<point x="335" y="699"/>
			<point x="298" y="667" type="curve"/>
			<point x="295" y="667" type="line"/>
			<point x="300" y="716" type="line"/>
			<point x="250" y="716" type="line"/>
		</contour>
	</outline>
</glyph>
<glyph name="one.subs" format="2">
	<unicode hex="2081"/>
	<advance width="600"/>
	<outline>
		<contour>
			<point x="218" y="-177" type="line"/>
			<point x="277" y="-177" type="line"/>
			<point x="355" y="213" type="line"/>
			<point x="308" y="213" type="line"/>
			<point x="274" y="190"/>
			<point x="240" y="180"/>
			<point x="183" y="174" type="curve"/>
			<point x="176" y="135" type="line"/>
			<point x="280" y="135" type="line"/>
		</contour>
		<contour>
			<point x="97" y="-177" type="line"/>
			<point x="392" y="-177" type="line"/>
			<point x="402" y="-126" type="line"/>
			<point x="106" y="-126" type="line"/>
		</contour>
	</outline>
</glyph>
<glyph name="four.subs" format="2">
	<unicode hex="2084"/>
	<advance width="600"/>
	<outline>
		<contour>
			<point x="266" y="-177" type="line"/>
			<point x="319" y="-177" type="line"/>
			<point x="372" y="76" type="line"/>
			<point x="318" y="76" type="line"/>
		</contour>
		<contour>
			<point x="105" y="-71" type="line"/>
			<point x="397" y="-71" type="line"/>
			<point x="407" y="-28" type="line"/>
			<point x="178" y="-28" type="line"/>
			<point x="346" y="200" type="line"/>
			<point x="305" y="225" type="line"/>
			<point x="111" y="-38" type="line"/>
		</contour>
	</outline>
</glyph>
<glyph name="five.subs" format="2">
	<unicode hex="2085"/>
	<advance width="600"/>
	<outline>
		<contour>
			<point x="237" y="-189" type="curve" smooth="yes"/>
			<point x="316" y="-189"/>
			<point x="387" y="-129"/>
			<point x="387" y="-39" type="curve" smooth="yes"/>
			<point x="387" y="31"/>
			<point x="341" y="75"/>
			<point x="277" y="75" type="curve" smooth="yes"/>
			<point x="261" y="75"/>
			<point x="240" y="71"/>
			<point x="223" y="61" type="curve"/>
			<point x="252" y="161" type="line"/>
			<point x="409" y="161" type="line"/>
			<point x="420" y="213" type="line"/>
			<point x="213" y="213" type="line"/>
			<point x="160" y="25" type="line"/>
			<point x="184" y="3" type="line"/>
			<point x="209" y="21"/>
			<point x="227" y="31"/>
			<point x="257" y="31" type="curve" smooth="yes"/>
			<point x="300" y="31"/>
			<point x="328" y="3"/>
			<point x="328" y="-45" type="curve" smooth="yes"/>
			<point x="328" y="-102"/>
			<point x="282" y="-140"/>
			<point x="239" y="-140" type="curve" smooth="yes"/>
			<point x="189" y="-140"/>
			<point x="162" y="-115"/>
			<point x="143" y="-81" type="curve"/>
			<point x="101" y="-109" type="line"/>
			<point x="125" y="-152"/>
			<point x="171" y="-189"/>
		</contour>
	</outline>
</glyph>
<glyph name="nine.subs" format="2">
	<unicode hex="2089"/>
	<advance width="600"/>
	<outline>
		<contour>
			<point x="205" y="-189" type="curve" smooth="yes"/>
			<point x="308" y="-189"/>
			<point x="405" y="-98"/>
			<point x="405" y="73" type="curve" smooth="yes"/>
			<point x="405" y="166"/>
			<point x="349" y="225"/>
			<point x="278" y="225" type="curve" smooth="yes"/>
			<point x="208" y="225"/>
			<point x="141" y="167"/>
			<point x="141" y="76" type="curve" smooth="yes"/>
			<point x="141" y="15"/>
			<point x="181" y="-29"/>
			<point x="247" y="-29" type="curve" smooth="yes"/>
			<point x="288" y="-29"/>
			<point x="328" y="-5"/>
			<point x="348" y="22" type="curve"/>
			<point x="353" y="71" type="line"/>
			<point x="327" y="33"/>
			<point x="290" y="15"/>
			<point x="260" y="15" type="curve" smooth="yes"/>
			<point x="220" y="15"/>
			<point x="197" y="41"/>
			<point x="197" y="82" type="curve" smooth="yes"/>
			<point x="197" y="137"/>
			<point x="234" y="176"/>
			<point x="273" y="176" type="curve" smooth="yes"/>
			<point x="312" y="176"/>
			<point x="347" y="145"/>
			<point x="347" y="69" type="curve" smooth="yes"/>
			<point x="347" y="-67"/>
			<point x="283" y="-140"/>
			<point x="210" y="-140" type="curve" smooth="yes"/>
			<point x="181" y="-140"/>
			<point x="160" y="-132"/>
			<point x="141" y="-113" type="curve"/>
			<point x="107" y="-151" type="line"/>
			<point x="132" y="-176"/>
			<point x="165" y="-189"/>
		</contour>
	</outline>
</glyph>
<glyph name="won" format="2">
	<unicode hex="20A9"/>
	<advance width="600"/>
	<outline>
		<contour>
			<point x="95" y="0" type="line"/>
			<point x="179" y="0" type="line"/>
			<point x="286" y="340" type="line"/>
			<point x="349" y="536" type="line"/>
			<point x="352" y="536" type="line"/>
			<point x="338" y="340" type="line"/>
			<point x="311" y="0" type="line"/>
			<point x="398" y="0" type="line"/>
			<point x="603" y="638" type="line"/>
			<point x="533" y="638" type="line"/>
			<point x="440" y="309" type="line"/>
			<point x="366" y="61" type="line"/>
			<point x="362" y="61" type="line"/>
			<point x="381" y="309" type="line"/>
			<point x="401" y="598" type="line"/>
			<point x="329" y="598" type="line"/>
			<point x="235" y="309" type="line"/>
			<point x="156" y="61" type="line"/>
			<point x="152" y="61" type="line"/>
			<point x="178" y="309" type="line"/>
			<point x="214" y="638" type="line"/>
			<point x="139" y="638" type="line"/>
		</contour>
		<contour>
			<point x="47" y="306" type="line"/>
			<point x="559" y="306" type="line"/>
			<point x="568" y="344" type="line"/>
			<point x="132" y="344" type="line"/>
			<point x="55" y="340" type="line"/>
		</contour>
	</outline>
</glyph>
<glyph name="dong" format="2">
	<unicode hex="20AB"/>
	<advance width="600"/>
	<outline>
		<contour>
			<point x="230" y="110" type="curve" smooth="yes"/>
			<point x="282" y="110"/>
			<point x="332" y="133"/>
			<point x="370" y="166" type="curve"/>
			<point x="374" y="166" type="line"/>
			<point x="371" y="120" type="line"/>
			<point x="421" y="120" type="line"/>
			<point x="531" y="667" type="line"/>
			<point x="465" y="667" type="line"/>
			<point x="435" y="515" type="line"/>
			<point x="422" y="429" type="line"/>
			<point x="396" y="457"/>
			<point x="364" y="478"/>
			<point x="308" y="478" type="curve" smooth="yes"/>
			<point x="200" y="478"/>
			<point x="97" y="393"/>
			<point x="97" y="253" type="curve" smooth="yes"/>
			<point x="97" y="161"/>
			<point x="148" y="110"/>
		</contour>
		<contour>
			<point x="254" y="164" type="curve" smooth="yes"/>
			<point x="197" y="164"/>
			<point x="167" y="200"/>
			<point x="167" y="260" type="curve" smooth="yes"/>
			<point x="167" y="358"/>
			<point x="234" y="422"/>
			<point x="309" y="422" type="curve" smooth="yes"/>
			<point x="353" y="422"/>
			<point x="379" y="410"/>
			<point x="408" y="380" type="curve"/>
			<point x="375" y="220" type="line"/>
			<point x="333" y="181"/>
			<point x="293" y="164"/>
		</contour>
		<contour>
			<point x="287" y="553" type="line"/>
			<point x="508" y="553" type="line"/>
			<point x="587" y="558" type="line"/>
			<point x="595" y="597" type="line"/>
			<point x="296" y="597" type="line"/>
		</contour>
		<contour>
			<point x="54" y="0" type="line"/>
			<point x="428" y="0" type="line"/>
			<point x="437" y="44" type="line"/>
			<point x="64" y="44" type="line"/>
		</contour>
	</outline>
</glyph>
<glyph name="tugrik" format="1">
	<unicode hex="20AE"/>
	<advance width="600"/>
	<outline>
		<contour>
			<point x="202" y="0" type="line"/>
			<point x="280" y="0" type="line"/>
			<point x="395" y="574" type="line"/>
			<point x="574" y="574" type="line"/>
			<point x="587" y="638" type="line"/>
			<point x="148" y="638" type="line"/>
			<point x="135" y="575" type="line"/>
			<point x="316" y="575" type="line"/>
		</contour>
		<contour>
			<point x="134" y="267" type="line"/>
			<point x="271" y="330" type="line"/>
			<point x="347" y="352" type="line"/>
			<point x="509" y="427" type="line"/>
			<point x="493" y="464" type="line"/>
			<point x="356" y="401" type="line"/>
			<point x="280" y="379" type="line"/>
			<point x="118" y="304" type="line"/>
		</contour>
		<contour>
			<point x="111" y="143" type="line"/>
			<point x="248" y="206" type="line"/>
			<point x="324" y="229" type="line"/>
			<point x="486" y="303" type="line"/>
			<point x="470" y="340" type="line"/>
			<point x="332" y="277" type="line"/>
			<point x="257" y="255" type="line"/>
			<point x="95" y="180" type="line"/>
		</contour>
	</outline>
</glyph>
<glyph name="peso" format="2">
	<unicode hex="20B1"/>
	<advance width="600"/>
	<outline>
		<contour>
			<point x="68" y="0" type="line"/>
			<point x="140" y="0" type="line"/>
			<point x="191" y="250" type="line"/>
			<point x="263" y="250" type="line" smooth="yes"/>
			<point x="410" y="250"/>
			<point x="531" y="327"/>
			<point x="531" y="488" type="curve" smooth="yes"/>
			<point x="531" y="597"/>
			<point x="454" y="638"/>
			<point x="339" y="638" type="curve" smooth="yes"/>
			<point x="196" y="638" type="line"/>
		</contour>
		<contour>
			<point x="201" y="302" type="line"/>
			<point x="257" y="587" type="line"/>
			<point x="319" y="587" type="line" smooth="yes"/>
			<point x="409" y="587"/>
			<point x="459" y="558"/>
			<point x="459" y="481" type="curve" smooth="yes"/>
			<point x="459" y="366"/>
			<point x="389" y="302"/>
			<point x="262" y="302" type="curve" smooth="yes"/>
		</contour>
		<contour>
			<point x="88" y="480" type="line"/>
			<point x="595" y="480" type="line"/>
			<point x="602" y="518" type="line"/>
			<point x="176" y="518" type="line"/>
			<point x="94" y="513" type="line"/>
		</contour>
		<contour>
			<point x="68" y="380" type="line"/>
			<point x="574" y="380" type="line"/>
			<point x="582" y="417" type="line"/>
			<point x="156" y="417" type="line"/>
			<point x="75" y="413" type="line"/>
		</contour>
	</outline>
</glyph>
<glyph name="guarani" format="1">
	<unicode hex="20B2"/>
	<advance width="600"/>
	<outline>
		<contour>
			<point x="270" y="-12" type="curve" smooth="yes"/>
			<point x="341" y="-12"/>
			<point x="410" y="7"/>
			<point x="470" y="52" type="curve"/>
			<point x="523" y="328" type="line"/>
			<point x="333" y="328" type="line"/>
			<point x="321" y="266" type="line"/>
			<point x="442" y="266" type="line"/>
			<point x="408" y="93" type="line"/>
			<point x="382" y="72"/>
			<point x="332" y="54"/>
			<point x="280" y="55" type="curve" smooth="yes"/>
			<point x="197" y="56"/>
			<point x="150" y="126"/>
			<point x="150" y="240" type="curve" smooth="yes"/>
			<point x="150" y="431"/>
			<point x="254" y="587"/>
			<point x="398" y="587" type="curve" smooth="yes"/>
			<point x="453" y="587"/>
			<point x="485" y="561"/>
			<point x="513" y="517" type="curve"/>
			<point x="564" y="557" type="line"/>
			<point x="531" y="610"/>
			<point x="482" y="650"/>
			<point x="407" y="650" type="curve" smooth="yes"/>
			<point x="210" y="650"/>
			<point x="71" y="479"/>
			<point x="71" y="238" type="curve" smooth="yes"/>
			<point x="71" y="85"/>
			<point x="141" y="-12"/>
		</contour>
		<contour>
			<point x="372" y="621" type="line"/>
			<point x="428" y="621" type="line"/>
			<point x="455" y="748" type="line"/>
			<point x="399" y="748" type="line"/>
		</contour>
		<contour>
			<point x="222" y="-112" type="line"/>
			<point x="279" y="-112" type="line"/>
			<point x="304" y="12" type="line"/>
			<point x="248" y="12" type="line"/>
		</contour>
	</outline>
</glyph>
<glyph name="liraturkish" format="1">
	<unicode hex="20BA"/>
	<advance width="600"/>
	<outline>
		<contour>
			<point x="102" y="-12" type="line"/>
			<point x="371" y="-16"/>
			<point x="518" y="72"/>
			<point x="523" y="248" type="curve" smooth="yes"/>
			<point x="525" y="264"/>
			<point x="522" y="282"/>
			<point x="520" y="289" type="curve"/>
			<point x="455" y="277" type="line"/>
			<point x="456" y="269"/>
			<point x="458" y="258"/>
			<point x="457" y="249" type="curve" smooth="yes"/>
			<point x="454" y="124"/>
			<point x="346" y="63"/>
			<point x="194" y="59" type="curve"/>
			<point x="309" y="638" type="line"/>
			<point x="232" y="638" type="line"/>
		</contour>
		<contour>
			<point x="82" y="358" type="line"/>
			<point x="188" y="402" type="line"/>
			<point x="264" y="425" type="line"/>
			<point x="482" y="521" type="line"/>
			<point x="466" y="558" type="line"/>
			<point x="273" y="474" type="line"/>
			<point x="197" y="451" type="line"/>
			<point x="67" y="395" type="line"/>
		</contour>
		<contour>
			<point x="60" y="234" type="line"/>
			<point x="164" y="278" type="line"/>
			<point x="241" y="302" type="line"/>
			<point x="458" y="397" type="line"/>
			<point x="442" y="434" type="line"/>
			<point x="249" y="350" type="line"/>
			<point x="173" y="327" type="line"/>
			<point x="44" y="271" type="line"/>
		</contour>
	</outline>
</glyph>
<glyph name="careof" format="1">
	<unicode hex="2105"/>
	<advance width="600"/>
	<outline>
		<contour>
			<point x="121" y="321" type="curve" smooth="yes"/>
			<point x="155" y="321"/>
			<point x="191" y="335"/>
			<point x="220" y="356" type="curve"/>
			<point x="200" y="394" type="line"/>
			<point x="178" y="377"/>
			<point x="155" y="368"/>
			<point x="130" y="368" type="curve" smooth="yes"/>
			<point x="96" y="368"/>
			<point x="56" y="391"/>
			<point x="56" y="458" type="curve" smooth="yes"/>
			<point x="56" y="533"/>
			<point x="108" y="600"/>
			<point x="166" y="600" type="curve" smooth="yes"/>
			<point x="191" y="600"/>
			<point x="213" y="589"/>
			<point x="230" y="565" type="curve"/>
			<point x="266" y="596" type="line"/>
			<point x="244" y="626"/>
			<point x="213" y="648"/>
			<point x="167" y="648" type="curve" smooth="yes"/>
			<point x="75" y="648"/>
			<point x="-2" y="557"/>
			<point x="-2" y="452" type="curve" smooth="yes"/>
			<point x="-2" y="359"/>
			<point x="60" y="321"/>
		</contour>
		<component base="fraction" xOffset="1"/>
		<component base="zero.dnom" xOffset="134"/>
	</outline>
</glyph>
<glyph name="servicemark" format="2">
	<unicode hex="2120"/>
	<advance width="600"/>
	<outline>
		<contour>
			<point x="150" y="366" type="curve" smooth="yes"/>
			<point x="211" y="366"/>
			<point x="258" y="397"/>
			<point x="258" y="452" type="curve" smooth="yes"/>
			<point x="258" y="499"/>
			<point x="231" y="521"/>
			<point x="193" y="545" type="curve" smooth="yes"/>
			<point x="155" y="570"/>
			<point x="141" y="583"/>
			<point x="141" y="606" type="curve" smooth="yes"/>
			<point x="141" y="628"/>
			<point x="159" y="641"/>
			<point x="182" y="641" type="curve" smooth="yes"/>
			<point x="214" y="641"/>
			<point x="238" y="625"/>
			<point x="255" y="604" type="curve"/>
			<point x="286" y="634" type="line"/>
			<point x="268" y="660"/>
			<point x="237" y="684"/>
			<point x="189" y="684" type="curve" smooth="yes"/>
			<point x="130" y="684"/>
			<point x="90" y="653"/>
			<point x="90" y="604" type="curve" smooth="yes"/>
			<point x="90" y="561"/>
			<point x="114" y="535"/>
			<point x="154" y="509" type="curve" smooth="yes"/>
			<point x="192" y="484"/>
			<point x="207" y="472"/>
			<point x="207" y="449" type="curve" smooth="yes"/>
			<point x="207" y="424"/>
			<point x="185" y="409"/>
			<point x="154" y="409" type="curve" smooth="yes"/>
			<point x="118" y="409"/>
			<point x="94" y="429"/>
			<point x="74" y="452" type="curve"/>
			<point x="44" y="418" type="line"/>
			<point x="67" y="390"/>
			<point x="103" y="366"/>
		</contour>
		<contour>
			<point x="293" y="367" type="line"/>
			<point x="345" y="367" type="line"/>
			<point x="372" y="508" type="line" smooth="yes"/>
			<point x="377" y="534"/>
			<point x="383" y="588"/>
			<point x="387" y="612" type="curve"/>
			<point x="391" y="612" type="line"/>
			<point x="423" y="421" type="line"/>
			<point x="464" y="421" type="line"/>
			<point x="573" y="613" type="line"/>
			<point x="577" y="613" type="line"/>
			<point x="568" y="584"/>
			<point x="554" y="533"/>
			<point x="550" y="508" type="curve" smooth="yes"/>
			<point x="521" y="367" type="line"/>
			<point x="573" y="367" type="line"/>
			<point x="635" y="676" type="line"/>
			<point x="565" y="676" type="line"/>
			<point x="500" y="560" type="line"/>
			<point x="456" y="476" type="line"/>
			<point x="452" y="476" type="line"/>
			<point x="441" y="560" type="line"/>
			<point x="421" y="676" type="line"/>
			<point x="355" y="676" type="line"/>
		</contour>
	</outline>
</glyph>
<glyph name="arrowright" format="1">
	<unicode hex="2192"/>
	<advance width="600"/>
	<outline>
		<contour>
			<point x="309" y="-15" type="line"/>
			<point x="581" y="250" type="line"/>
			<point x="581" y="254" type="line"/>
			<point x="309" y="519" type="line"/>
			<point x="270" y="475" type="line"/>
			<point x="475" y="284" type="line"/>
			<point x="29" y="284" type="line"/>
			<point x="29" y="220" type="line"/>
			<point x="475" y="220" type="line"/>
			<point x="270" y="29" type="line"/>
		</contour>
	</outline>
</glyph>
<glyph name="arrowupdn" format="1">
	<unicode hex="2195"/>
	<advance width="600"/>
	<outline>
		<contour>
			<point x="302" y="-57" type="line"/>
			<point x="514" y="121" type="line"/>
			<point x="478" y="164" type="line"/>
			<point x="332" y="36" type="line"/>
			<point x="332" y="467" type="line"/>
			<point x="478" y="338" type="line"/>
			<point x="514" y="381" type="line"/>
			<point x="302" y="560" type="line"/>
			<point x="298" y="560" type="line"/>
			<point x="86" y="381" type="line"/>
			<point x="122" y="338" type="line"/>
			<point x="268" y="467" type="line"/>
			<point x="268" y="36" type="line"/>
			<point x="122" y="164" type="line"/>
			<point x="86" y="121" type="line"/>
			<point x="298" y="-57" type="line"/>
		</contour>
	</outline>
</glyph>
<glyph name="arrowdownleft" format="1">
	<unicode hex="2199"/>
	<advance width="600"/>
	<outline>
		<contour>
			<point x="106" y="55" type="line"/>
			<point x="486" y="59" type="line"/>
			<point x="483" y="118" type="line"/>
			<point x="202" y="109" type="line"/>
			<point x="517" y="424" type="line"/>
			<point x="473" y="469" type="line"/>
			<point x="158" y="154" type="line"/>
			<point x="166" y="435" type="line"/>
			<point x="108" y="437" type="line"/>
			<point x="103" y="58" type="line"/>
		</contour>
	</outline>
</glyph>
<glyph name="arrowdbldown" format="2">
	<unicode hex="21D3"/>
	<advance width="600"/>
	<outline>
		<contour>
			<point x="298" y="-25" type="line"/>
			<point x="302" y="-25" type="line"/>
			<point x="567" y="247" type="line"/>
			<point x="523" y="287" type="line"/>
			<point x="302" y="49" type="line"/>
			<point x="298" y="49" type="line"/>
			<point x="77" y="287" type="line"/>
			<point x="33" y="247" type="line"/>
		</contour>
		<contour>
			<point x="183" y="103" type="line"/>
			<point x="234" y="103" type="line"/>
			<point x="234" y="527" type="line"/>
			<point x="183" y="527" type="line"/>
		</contour>
		<contour>
			<point x="366" y="103" type="line"/>
			<point x="417" y="103" type="line"/>
			<point x="417" y="527" type="line"/>
			<point x="366" y="527" type="line"/>
		</contour>
	</outline>
</glyph>
<glyph name="Delta.math" format="1">
	<unicode hex="2206"/>
	<advance width="600"/>
	<outline>
		<contour>
			<point x="-21" y="0" type="line"/>
			<point x="503" y="0" type="line"/>
			<point x="512" y="45" type="line"/>
			<point x="415" y="657" type="line"/>
			<point x="329" y="657" type="line"/>
			<point x="-12" y="45" type="line"/>
		</contour>
		<contour>
			<point x="75" y="65" type="line"/>
			<point x="242" y="373" type="line"/>
			<point x="356" y="586" type="line"/>
			<point x="360" y="586" type="line"/>
			<point x="386" y="373" type="line"/>
			<point x="431" y="65" type="line"/>
		</contour>
	</outline>
</glyph>
<glyph name="product" format="1">
	<unicode hex="220F"/>
	<advance width="600"/>
	<outline>
		<contour>
			<point x="52" y="-120" type="line"/>
			<point x="130" y="-120" type="line"/>
			<point x="130" y="570" type="line"/>
			<point x="465" y="570" type="line"/>
			<point x="465" y="-120" type="line"/>
			<point x="542" y="-120" type="line"/>
			<point x="542" y="638" type="line"/>
			<point x="52" y="638" type="line"/>
		</contour>
	</outline>
</glyph>
<glyph name="minus" format="2">
	<unicode hex="2212"/>
	<advance width="600"/>
	<outline>
		<contour>
			<point x="87" y="301" type="line"/>
			<point x="513" y="301" type="line"/>
			<point x="513" y="359" type="line"/>
			<point x="87" y="359" type="line"/>
		</contour>
	</outline>
</glyph>
<glyph name="radical" format="1">
	<unicode hex="221A"/>
	<advance width="600"/>
	<outline>
		<contour>
			<point x="304" y="-97" type="line"/>
			<point x="364" y="-97" type="line"/>
			<point x="581" y="820" type="line"/>
			<point x="524" y="820" type="line"/>
			<point x="345" y="52" type="line" smooth="yes"/>
			<point x="340" y="31"/>
			<point x="337" y="10"/>
			<point x="333" y="-10" type="curve"/>
			<point x="329" y="-10" type="line"/>
			<point x="324" y="10"/>
			<point x="319" y="31"/>
			<point x="312" y="52" type="curve" smooth="yes"/>
			<point x="195" y="402" type="line"/>
			<point x="65" y="344" type="line"/>
			<point x="84" y="301" type="line"/>
			<point x="154" y="333" type="line"/>
		</contour>
	</outline>
</glyph>
<glyph name="intersection" format="1">
	<unicode hex="2229"/>
	<advance width="600"/>
	<outline>
		<contour>
			<point x="98" y="105" type="line"/>
			<point x="160" y="105" type="line"/>
			<point x="160" y="344" type="line" smooth="yes"/>
			<point x="160" y="448"/>
			<point x="215" y="506"/>
			<point x="300" y="506" type="curve" smooth="yes"/>
			<point x="385" y="506"/>
			<point x="440" y="448"/>
			<point x="440" y="344" type="curve" smooth="yes"/>
			<point x="440" y="105" type="line"/>
			<point x="502" y="105" type="line"/>
			<point x="502" y="356" type="line" smooth="yes"/>
			<point x="502" y="484"/>
			<point x="418" y="569"/>
			<point x="300" y="569" type="curve" smooth="yes"/>
			<point x="182" y="569"/>
			<point x="98" y="484"/>
			<point x="98" y="356" type="curve" smooth="yes"/>
		</contour>
	</outline>
</glyph>
<glyph name="lessequal" format="2">
	<unicode hex="2264"/>
	<advance width="600"/>
	<outline>
		<contour>
			<point x="87" y="0" type="line"/>
			<point x="513" y="0" type="line"/>
			<point x="513" y="59" type="line"/>
			<point x="87" y="59" type="line"/>
		</contour>
		<contour>
			<point x="513" y="153" type="line"/>
			<point x="513" y="221" type="line"/>
			<point x="300" y="295" type="line"/>
			<point x="165" y="340" type="line"/>
			<point x="165" y="344" type="line"/>
			<point x="300" y="389" type="line"/>
			<point x="513" y="464" type="line"/>
			<point x="513" y="531" type="line"/>
			<point x="87" y="377" type="line"/>
			<point x="87" y="307" type="line"/>
		</contour>
	</outline>
</glyph>
<glyph name="greaterequal" format="2">
	<unicode hex="2265"/>
	<advance width="600"/>
	<outline>
		<contour>
			<point x="87" y="0" type="line"/>
			<point x="513" y="0" type="line"/>
			<point x="513" y="59" type="line"/>
			<point x="87" y="59" type="line"/>
		</contour>
		<contour>
			<point x="87" y="153" type="line"/>
			<point x="513" y="307" type="line"/>
			<point x="513" y="377" type="line"/>
			<point x="87" y="531" type="line"/>
			<point x="87" y="464" type="line"/>
			<point x="300" y="389" type="line"/>
			<point x="435" y="344" type="line"/>
			<point x="435" y="340" type="line"/>
			<point x="300" y="295" type="line"/>
			<point x="87" y="221" type="line"/>
		</contour>
	</outline>
</glyph>
<glyph name="house" format="1">
	<unicode hex="2302"/>
	<advance width="600"/>
	<outline>
		<contour>
			<point x="50" y="0" type="line"/>
			<point x="550" y="0" type="line"/>
			<point x="550" y="360" type="line"/>
			<point x="334" y="667" type="line"/>
			<point x="266" y="667" type="line"/>
			<point x="50" y="360" type="line"/>
		</contour>
		<contour>
			<point x="117" y="56" type="line"/>
			<point x="117" y="339" type="line"/>
			<point x="214" y="484" type="line"/>
			<point x="298" y="609" type="line"/>
			<point x="302" y="609" type="line"/>
			<point x="386" y="484" type="line"/>
			<point x="483" y="339" type="line"/>
			<point x="483" y="56" type="line"/>
		</contour>
	</outline>
</glyph>
<glyph name="revlogicalnot" format="1">
	<unicode hex="2310"/>
	<advance width="600"/>
	<outline>
		<contour>
			<point x="87" y="105" type="line"/>
			<point x="149" y="105" type="line"/>
			<point x="149" y="301" type="line"/>
			<point x="513" y="301" type="line"/>
			<point x="513" y="359" type="line"/>
			<point x="87" y="359" type="line"/>
		</contour>
	</outline>
</glyph>
<glyph name="ceilingleft" format="1">
	<unicode hex="231C"/>
	<advance width="600"/>
	<outline>
		<contour>
			<point x="157" y="0" type="line"/>
			<point x="218" y="0" type="line"/>
			<point x="350" y="663" type="line"/>
			<point x="563" y="663" type="line"/>
			<point x="571" y="708" type="line"/>
			<point x="300" y="708" type="line"/>
		</contour>
	</outline>
</glyph>
<glyph name="floorright" format="1">
	<unicode hex="231F"/>
	<advance width="600"/>
	<outline>
		<contour>
			<point x="35" y="-52" type="line"/>
			<point x="307" y="-52" type="line"/>
			<point x="445" y="638" type="line"/>
			<point x="385" y="638" type="line"/>
			<point x="257" y="-7" type="line"/>
			<point x="44" y="-7" type="line"/>
		</contour>
	</outline>
</glyph>
<glyph name="integralbt" format="1">
	<unicode hex="2321"/>
	<advance width="600"/>
	<outline>
		<contour>
			<point x="203" y="-158" type="curve" smooth="yes"/>
			<point x="313" y="-158"/>
			<point x="338" y="-60"/>
			<point x="338" y="70" type="curve"/>
			<point x="338" y="1000" type="line"/>
			<point x="267" y="1000" type="line"/>
			<point x="267" y="66" type="line"/>
			<point x="267" y="-39"/>
			<point x="256" y="-97"/>
			<point x="200" y="-97" type="curve" smooth="yes"/>
			<point x="186" y="-97"/>
			<point x="174" y="-95"/>
			<point x="165" y="-93" type="curve"/>
			<point x="156" y="-151" type="line"/>
			<point x="165" y="-155"/>
			<point x="182" y="-158"/>
		</contour>
	</outline>
</glyph>
<glyph name="lightvertbxd" format="1">
	<unicode hex="2502"/>
	<advance width="600"/>
	<outline>
		<contour>
			<point x="261" y="-400" type="line"/>
			<point x="339" y="-400" type="line"/>
			<point x="339" y="1000" type="line"/>
			<point x="261" y="1000" type="line"/>
		</contour>
	</outline>
</glyph>
<glyph name="vertlightrightheavybxd" format="1">
	<unicode hex="251D"/>
	<advance width="600"/>
	<outline>
		<contour>
			<point x="639" y="222" type="line"/>
			<point x="639" y="378" type="line"/>
			<point x="339" y="378" type="line"/>
			<point x="339" y="1000" type="line"/>
			<point x="261" y="1000" type="line"/>
			<point x="261" y="-400" type="line"/>
			<point x="339" y="-400" type="line"/>
			<point x="339" y="222" type="line"/>
		</contour>
	</outline>
</glyph>
<glyph name="upheavyleftdnlightbxd" format="1">
	<unicode hex="2526"/>
	<advance width="600"/>
	<outline>
		<contour>
			<point x="339" y="-400" type="line"/>
			<point x="339" y="261" type="line"/>
			<point x="378" y="261" type="line"/>
			<point x="378" y="1000" type="line"/>
			<point x="222" y="1000" type="line"/>
			<point x="222" y="339" type="line"/>
			<point x="-39" y="339" type="line"/>
			<point x="-39" y="261" type="line"/>
			<point x="261" y="261" type="line"/>
			<point x="261" y="-400" type="line"/>
		</contour>
	</outline>
</glyph>
<glyph name="heavyuphorzbxd" format="1">
	<unicode hex="253B"/>
	<advance width="600"/>
	<outline>
		<contour>
			<point x="639" y="222" type="line"/>
			<point x="639" y="378" type="line"/>
			<point x="378" y="378" type="line"/>
			<point x="378" y="1000" type="line"/>
			<point x="222" y="1000" type="line"/>
			<point x="222" y="378" type="line"/>
			<point x="-39" y="378" type="line"/>
			<point x="-39" y="222" type="line"/>
		</contour>
	</outline>
</glyph>
<glyph name="heavydbldashvertbxd" format="1">
	<unicode hex="254F"/>
	<advance width="600"/>
	<outline>
		<contour>
			<point x="222" y="450" type="line"/>
			<point x="378" y="450" type="line"/>
			<point x="378" y="750" type="line"/>
			<point x="222" y="750" type="line"/>
		</contour>
		<contour>
			<point x="222" y="-150" type="line"/>
			<point x="378" y="-150" type="line"/>
			<point x="378" y="150" type="line"/>
			<point x="222" y="150" type="line"/>
		</contour>
	</outline>
</glyph>
<glyph name="dblupleftbxd" format="1">
	<unicode hex="255D"/>
	<advance width="600"/>
	<outline>
		<contour>
			<point x="261" y="339" type="line"/>
			<point x="261" y="1000" type="line"/>
			<point x="183" y="1000" type="line"/>
			<point x="183" y="417" type="line"/>
			<point x="-39" y="417" type="line"/>
			<point x="-39" y="339" type="line"/>
		</contour>
		<contour>
			<point x="417" y="183" type="line"/>
			<point x="417" y="1000" type="line"/>
			<point x="339" y="1000" type="line"/>
			<point x="339" y="261" type="line"/>
			<point x="-39" y="261" type="line"/>
			<point x="-39" y="183" type="line"/>
		</contour>
	</outline>
</glyph>
<glyph name="vertsngleftdblbxd" format="1">
	<unicode hex="2561"/>
	<advance width="600"/>
	<outline>
		<contour>
			<point x="339" y="-400" type="line"/>
			<point x="339" y="1000" type="line"/>
			<point x="261" y="1000" type="line"/>
			<point x="261" y="417" type="line"/>
			<point x="-39" y="417" type="line"/>
			<point x="-39" y="339" type="line"/>
			<point x="261" y="339" type="line"/>
			<point x="261" y="261" type="line"/>
			<point x="-39" y="261" type="line"/>
			<point x="-39" y="183" type="line"/>
			<point x="261" y="183" type="line"/>
			<point x="261" y="-400" type="line"/>
		</contour>
	</outline>
</glyph>
<glyph name="lightarcdnrightbxd" format="1">
	<unicode hex="256D"/>
	<advance width="600"/>
	<outline>
		<contour>
			<point x="261" y="-400" type="line"/>
			<point x="339" y="-400" type="line"/>
			<point x="339" y="0" type="line" smooth="yes"/>
			<point x="339" y="144"/>
			<point x="456" y="261"/>
			<point x="600" y="261" type="curve" smooth="yes"/>
			<point x="639" y="261" type="line"/>
			<point x="639" y="339" type="line"/>
			<point x="600" y="339" type="line" smooth="yes"/>
			<point x="413" y="339"/>
			<point x="261" y="187"/>
			<point x="261" y="0" type="curve" smooth="yes"/>
		</contour>
	</outline>
</glyph>
<glyph name="lightdiagcrossbxd" format="1">
	<unicode hex="2573"/>
	<advance width="600"/>
	<outline>
		<contour>
			<point x="557" y="-300" type="line"/>
			<point x="600" y="-300" type="line"/>
			<point x="600" y="-213" type="line"/>
			<point x="343" y="300" type="line"/>
			<point x="600" y="813" type="line"/>
			<point x="600" y="900" type="line"/>
			<point x="557" y="900" type="line"/>
			<point x="300" y="387" type="line"/>
			<point x="43" y="900" type="line"/>
			<point x="0" y="900" type="line"/>
			<point x="0" y="813" type="line"/>
			<point x="257" y="300" type="line"/>
			<point x="0" y="-213" type="line"/>
			<point x="0" y="-300" type="line"/>
			<point x="43" y="-300" type="line"/>
			<point x="300" y="213" type="line"/>
		</contour>
	</outline>
</glyph>
<glyph name="lightupbxd" format="1">
	<unicode hex="2575"/>
	<advance width="600"/>
	<outline>
		<contour>
			<point x="261" y="261" type="line"/>
			<point x="339" y="261" type="line"/>
			<point x="339" y="1000" type="line"/>
			<point x="261" y="1000" type="line"/>
		</contour>
	</outline>
</glyph>
<glyph name="heavyleftbxd" format="1">
	<unicode hex="2578"/>
	<advance width="600"/>
	<outline>
		<contour>
			<point x="-39" y="222" type="line"/>
			<point x="339" y="222" type="line"/>
			<point x="339" y="378" type="line"/>
			<point x="-39" y="378" type="line"/>
		</contour>
	</outline>
</glyph>
<glyph name="heavydnbxd" format="1">
	<unicode hex="257B"/>
	<advance width="600"/>
	<outline>
		<contour>
			<point x="222" y="-400" type="line"/>
			<point x="378" y="-400" type="line"/>
			<point x="378" y="339" type="line"/>
			<point x="222" y="339" type="line"/>
		</contour>
	</outline>
</glyph>
<glyph name="heavyuplightdnbxd" format="1">
	<unicode hex="257F"/>
	<advance width="600"/>
	<outline>
		<contour>
			<point x="378" y="261" type="line"/>
			<point x="378" y="1000" type="line"/>
			<point x="222" y="1000" type="line"/>
			<point x="222" y="261" type="line"/>
			<point x="261" y="261" type="line"/>
			<point x="261" y="-400" type="line"/>
			<point x="339" y="-400" type="line"/>
			<point x="339" y="261" type="line"/>
		</contour>
	</outline>
</glyph>
<glyph name="bulletsquare" format="2">
	<unicode hex="25AA"/>
	<advance width="600"/>
	<outline>
		<contour>
			<point x="165" y="128" type="line"/>
			<point x="435" y="128" type="line"/>
			<point x="435" y="396" type="line"/>
			<point x="165" y="396" type="line"/>
		</contour>
	</outline>
</glyph>
<glyph name="bulletsquarewhite" format="2">
	<unicode hex="25AB"/>
	<advance width="600"/>
	<outline>
		<contour>
			<point x="153" y="116" type="line"/>
			<point x="447" y="116" type="line"/>
			<point x="447" y="408" type="line"/>
			<point x="153" y="408" type="line"/>
		</contour>
		<contour>
			<point x="200" y="159" type="line"/>
			<point x="200" y="365" type="line"/>
			<point x="400" y="365" type="line"/>
			<point x="400" y="159" type="line"/>
		</contour>
	</outline>
</glyph>
<glyph name="trianglesmallupblack" format="1">
	<unicode hex="25B4"/>
	<advance width="600"/>
	<outline>
		<contour>
			<point x="140" y="131" type="line"/>
			<point x="460" y="131" type="line"/>
			<point x="460" y="133" type="line"/>
			<point x="301" y="424" type="line"/>
			<point x="299" y="424" type="line"/>
			<point x="140" y="133" type="line"/>
		</contour>
	</outline>
</glyph>
<glyph name="trianglesmallupwhite" format="1">
	<unicode hex="25B5"/>
	<advance width="600"/>
	<outline>
		<contour>
			<point x="119" y="119" type="line"/>
			<point x="481" y="119" type="line"/>
			<point x="481" y="122" type="line"/>
			<point x="301" y="444" type="line"/>
			<point x="299" y="444" type="line"/>
			<point x="119" y="122" type="line"/>
		</contour>
		<contour>
			<point x="190" y="160" type="line"/>
			<point x="300" y="364" type="line"/>
			<point x="410" y="160" type="line"/>
		</contour>
	</outline>
</glyph>
<glyph name="trianglesmallrightblack" format="1">
	<unicode hex="25B8"/>
	<advance width="600"/>
	<outline>
		<contour>
			<point x="168" y="102" type="line"/>
			<point x="170" y="102" type="line"/>
			<point x="460" y="261" type="line"/>
			<point x="460" y="264" type="line"/>
			<point x="170" y="423" type="line"/>
			<point x="168" y="423" type="line"/>
		</contour>
	</outline>
</glyph>
<glyph name="triangledownblack" format="1">
	<unicode hex="25BC"/>
	<advance width="600"/>
	<outline>
		<contour>
			<point x="299" y="85" type="line"/>
			<point x="301" y="85" type="line"/>
			<point x="538" y="579" type="line"/>
			<point x="538" y="581" type="line"/>
			<point x="62" y="581" type="line"/>
			<point x="62" y="579" type="line"/>
		</contour>
	</outline>
</glyph>
<glyph name="trianglesmalldownwhite" format="1">
	<unicode hex="25BF"/>
	<advance width="600"/>
	<outline>
		<contour>
			<point x="299" y="80" type="line"/>
			<point x="301" y="80" type="line"/>
			<point x="481" y="402" type="line"/>
			<point x="481" y="405" type="line"/>
			<point x="119" y="405" type="line"/>
			<point x="119" y="402" type="line"/>
		</contour>
		<contour>
			<point x="300" y="160" type="line"/>
			<point x="190" y="364" type="line"/>
			<point x="410" y="364" type="line"/>
		</contour>
	</outline>
</glyph>
<glyph name="triangleleftblack" format="1">
	<unicode hex="25C0"/>
	<advance width="600"/>
	<outline>
		<contour>
			<point x="535" y="109" type="line"/>
			<point x="538" y="109" type="line"/>
			<point x="538" y="584" type="line"/>
			<point x="535" y="584" type="line"/>
			<point x="42" y="348" type="line"/>
			<point x="42" y="345" type="line"/>
		</contour>
	</outline>
</glyph>
<glyph name="diamondblack" format="2">
	<unicode hex="25C6"/>
	<advance width="600"/>
	<outline>
		<contour>
			<point x="300" y="76" type="line"/>
			<point x="567" y="343" type="line"/>
			<point x="300" y="610" type="line"/>
			<point x="33" y="343" type="line"/>
		</contour>
	</outline>
</glyph>
<glyph name="circleblack" format="1">
	<unicode hex="25CF"/>
	<advance width="600"/>
	<outline>
		<contour>
			<point x="300" y="107" type="curve" smooth="yes"/>
			<point x="429" y="107"/>
			<point x="524" y="202"/>
			<point x="524" y="330" type="curve" smooth="yes"/>
			<point x="524" y="458"/>
			<point x="429" y="553"/>
			<point x="300" y="553" type="curve" smooth="yes"/>
			<point x="171" y="553"/>
			<point x="76" y="458"/>
			<point x="76" y="330" type="curve" smooth="yes"/>
			<point x="76" y="202"/>
			<point x="171" y="107"/>
		</contour>
	</outline>
</glyph>
<glyph name="invbullet" format="2">
	<unicode hex="25D8"/>
	<advance width="600"/>
	<outline>
		<contour>
			<point x="153" y="116" type="line"/>
			<point x="447" y="116" type="line"/>
			<point x="447" y="408" type="line"/>
			<point x="153" y="408" type="line"/>
		</contour>
		<contour>
			<point x="300" y="128" type="curve" smooth="yes"/>
			<point x="222" y="128"/>
			<point x="165" y="185"/>
			<point x="165" y="262" type="curve" smooth="yes"/>
			<point x="165" y="339"/>
			<point x="222" y="396"/>
			<point x="300" y="396" type="curve" smooth="yes"/>
			<point x="378" y="396"/>
			<point x="435" y="339"/>
			<point x="435" y="262" type="curve" smooth="yes"/>
			<point x="435" y="185"/>
			<point x="378" y="128"/>
		</contour>
	</outline>
</glyph>
<glyph name="bulletwhite" format="2">
	<unicode hex="25E6"/>
	<advance width="600"/>
	<outline>
		<contour>
			<point x="264" y="104" type="curve" smooth="yes"/>
			<point x="363" y="104"/>
			<point x="451" y="179"/>
			<point x="451" y="288" type="curve" smooth="yes"/>
			<point x="451" y="368"/>
			<point x="397" y="420"/>
			<point x="321" y="420" type="curve" smooth="yes"/>
			<point x="221" y="420"/>
			<point x="132" y="345"/>
			<point x="132" y="235" type="curve" smooth="yes"/>
			<point x="132" y="157"/>
			<point x="187" y="104"/>
		</contour>
		<contour>
			<point x="271" y="151" type="curve" smooth="yes"/>
			<point x="219" y="151"/>
			<point x="183" y="185"/>
			<point x="183" y="239" type="curve" smooth="yes"/>
			<point x="183" y="321"/>
			<point x="247" y="373"/>
			<point x="313" y="373" type="curve" smooth="yes"/>
			<point x="364" y="373"/>
			<point x="400" y="338"/>
			<point x="400" y="285" type="curve" smooth="yes"/>
			<point x="400" y="203"/>
			<point x="336" y="151"/>
		</contour>
	</outline>
</glyph>
<glyph name="checkedbox" format="1">
	<unicode hex="2611"/>
	<advance width="600"/>
	<outline>
		<contour>
			<point x="252" y="103" type="curve"/>
			<point x="333" y="113" type="line"/>
			<point x="407" y="375"/>
			<point x="550" y="600"/>
			<point x="706" y="746" type="curve"/>
			<point x="655" y="794" type="line"/>
			<point x="501" y="641"/>
			<point x="356" y="399"/>
			<point x="288" y="168" type="curve"/>
			<point x="284" y="168" type="line"/>
			<point x="257" y="252"/>
			<point x="214" y="340"/>
			<point x="165" y="417" type="curve"/>
			<point x="112" y="381" type="line"/>
			<point x="169" y="296"/>
			<point x="215" y="206"/>
		</contour>
		<component base="checkbox"/>
	</outline>
</glyph>
<glyph name="coffee" format="1">
	<unicode hex="2615"/>
	<advance width="600"/>
	<outline>
		<contour>
			<point x="249" y="40" type="curve" smooth="yes"/>
			<point x="337" y="40"/>
			<point x="416" y="75"/>
			<point x="463" y="152" type="curve"/>
			<point x="564" y="152"/>
			<point x="649" y="219"/>
			<point x="649" y="320" type="curve" smooth="yes"/>
			<point x="649" y="410"/>
			<point x="598" y="452"/>
			<point x="522" y="466" type="curve"/>
			<point x="503" y="566"/>
			<point x="410" y="620"/>
			<point x="249" y="620" type="curve" smooth="yes"/>
			<point x="74" y="620"/>
			<point x="-31" y="552"/>
			<point x="-31" y="428" type="curve" smooth="yes"/>
			<point x="-31" y="161"/>
			<point x="79" y="40"/>
		</contour>
		<contour>
			<point x="249" y="80" type="curve" smooth="yes"/>
			<point x="108" y="80"/>
			<point x="12" y="181"/>
			<point x="12" y="420" type="curve" smooth="yes"/>
			<point x="12" y="521"/>
			<point x="98" y="582"/>
			<point x="249" y="582" type="curve" smooth="yes"/>
			<point x="401" y="582"/>
			<point x="485" y="525"/>
			<point x="485" y="430" type="curve"/>
			<point x="564" y="430"/>
			<point x="603" y="381"/>
			<point x="603" y="320" type="curve" smooth="yes"/>
			<point x="603" y="248"/>
			<point x="550" y="186"/>
			<point x="437" y="186" type="curve"/>
			<point x="401" y="111"/>
			<point x="329" y="80"/>
		</contour>
		<contour>
			<point x="249" y="325" type="curve" smooth="yes"/>
			<point x="375" y="325"/>
			<point x="434" y="357"/>
			<point x="467" y="410" type="curve"/>
			<point x="447" y="471"/>
			<point x="367" y="513"/>
			<point x="249" y="513" type="curve" smooth="yes"/>
			<point x="131" y="513"/>
			<point x="50" y="472"/>
			<point x="30" y="410" type="curve"/>
			<point x="64" y="357"/>
			<point x="123" y="325"/>
		</contour>
		<contour>
			<point x="460" y="249" type="curve"/>
			<point x="503" y="249"/>
			<point x="538" y="272"/>
			<point x="538" y="314" type="curve" smooth="yes"/>
			<point x="538" y="351"/>
			<point x="520" y="363"/>
			<point x="481" y="363" type="curve"/>
			<point x="479" y="325"/>
			<point x="473" y="287"/>
		</contour>
		<contour>
			<point x="310" y="419" type="curve"/>
			<point x="310" y="419" type="line"/>
			<point x="253" y="380"/>
			<point x="216" y="367"/>
			<point x="178" y="367" type="curve" smooth="yes"/>
			<point x="145" y="367"/>
			<point x="126" y="381"/>
			<point x="126" y="395" type="curve" smooth="yes"/>
			<point x="126" y="406"/>
			<point x="134" y="413"/>
			<point x="158" y="419" type="curve"/>
			<point x="158" y="419" type="line"/>
			<point x="134" y="424"/>
			<point x="126" y="431"/>
			<point x="126" y="442" type="curve" smooth="yes"/>
			<point x="126" y="456"/>
			<point x="145" y="470"/>
			<point x="178" y="470" type="curve" smooth="yes"/>
			<point x="216" y="470"/>
			<point x="253" y="458"/>
		</contour>
		<contour>
			<point x="316" y="419" type="curve"/>
			<point x="316" y="419" type="line"/>
			<point x="346" y="437"/>
			<point x="370" y="441"/>
			<point x="382" y="441" type="curve" smooth="yes"/>
			<point x="396" y="441"/>
			<point x="409" y="433"/>
			<point x="409" y="419" type="curve" smooth="yes"/>
			<point x="409" y="404"/>
			<point x="396" y="396"/>
			<point x="382" y="396" type="curve" smooth="yes"/>
			<point x="370" y="396"/>
			<point x="346" y="401"/>
		</contour>
	</outline>
</glyph>
<glyph name="smileface" format="1">
	<unicode hex="263A"/>
	<advance width="600"/>
	<outline>
		<contour>
			<point x="300" y="40" type="curve" smooth="yes"/>
			<point x="469" y="40"/>
			<point x="590" y="162"/>
			<point x="590" y="330" type="curve" smooth="yes"/>
			<point x="590" y="498"/>
			<point x="469" y="620"/>
			<point x="300" y="620" type="curve" smooth="yes"/>
			<point x="131" y="620"/>
			<point x="10" y="498"/>
			<point x="10" y="330" type="curve" smooth="yes"/>
			<point x="10" y="162"/>
			<point x="131" y="40"/>
		</contour>
		<contour>
			<point x="300" y="83" type="curve" smooth="yes"/>
			<point x="158" y="83"/>
			<point x="59" y="184"/>
			<point x="59" y="330" type="curve" smooth="yes"/>
			<point x="59" y="476"/>
			<point x="158" y="577"/>
			<point x="300" y="577" type="curve" smooth="yes"/>
			<point x="442" y="577"/>
			<point x="541" y="476"/>
			<point x="541" y="330" type="curve" smooth="yes"/>
			<point x="541" y="184"/>
			<point x="442" y="83"/>
		</contour>
		<contour>
			<point x="221" y="340" type="curve" smooth="yes"/>
			<point x="251" y="340"/>
			<point x="269" y="367"/>
			<point x="269" y="404" type="curve" smooth="yes"/>
			<point x="269" y="441"/>
			<point x="251" y="468"/>
			<point x="221" y="468" type="curve" smooth="yes"/>
			<point x="191" y="468"/>
			<point x="173" y="441"/>
			<point x="173" y="404" type="curve" smooth="yes"/>
			<point x="173" y="367"/>
			<point x="191" y="340"/>
		</contour>
		<contour>
			<point x="379" y="340" type="curve" smooth="yes"/>
			<point x="409" y="340"/>
			<point x="427" y="367"/>
			<point x="427" y="404" type="curve" smooth="yes"/>
			<point x="427" y="441"/>
			<point x="409" y="468"/>
			<point x="379" y="468" type="curve" smooth="yes"/>
			<point x="349" y="468"/>
			<point x="331" y="441"/>
			<point x="331" y="404" type="curve" smooth="yes"/>
			<point x="331" y="367"/>
			<point x="349" y="340"/>
		</contour>
		<contour>
			<point x="300" y="152" type="curve" smooth="yes"/>
			<point x="388" y="152"/>
			<point x="445" y="201"/>
			<point x="455" y="282" type="curve"/>
			<point x="422" y="295" type="line"/>
			<point x="404" y="243"/>
			<point x="359" y="219"/>
			<point x="300" y="219" type="curve" smooth="yes"/>
			<point x="241" y="219"/>
			<point x="196" y="243"/>
			<point x="178" y="295" type="curve"/>
			<point x="145" y="282" type="line"/>
			<point x="155" y="201"/>
			<point x="212" y="152"/>
		</contour>
		<contour>
			<point x="236" y="397" type="curve" smooth="yes"/>
			<point x="228" y="397"/>
			<point x="223" y="403"/>
			<point x="223" y="412" type="curve" smooth="yes"/>
			<point x="223" y="421"/>
			<point x="228" y="427"/>
			<point x="236" y="427" type="curve" smooth="yes"/>
			<point x="244" y="427"/>
			<point x="249" y="421"/>
			<point x="249" y="412" type="curve" smooth="yes"/>
			<point x="249" y="403"/>
			<point x="244" y="397"/>
		</contour>
		<contour>
			<point x="393" y="397" type="curve" smooth="yes"/>
			<point x="385" y="397"/>
			<point x="381" y="403"/>
			<point x="381" y="412" type="curve" smooth="yes"/>
			<point x="381" y="421"/>
			<point x="385" y="427"/>
			<point x="393" y="427" type="curve" smooth="yes"/>
			<point x="401" y="427"/>
			<point x="406" y="421"/>
			<point x="406" y="412" type="curve" smooth="yes"/>
			<point x="406" y="403"/>
			<point x="401" y="397"/>
		</contour>
	</outline>
</glyph>
<glyph name="sun" format="1">
	<unicode hex="263C"/>
	<advance width="600"/>
	<outline>
		<contour>
			<point x="300" y="138" type="curve" smooth="yes"/>
			<point x="411" y="138"/>
			<point x="496" y="224"/>
			<point x="496" y="330" type="curve" smooth="yes"/>
			<point x="496" y="436"/>
			<point x="411" y="522"/>
			<point x="300" y="522" type="curve" smooth="yes"/>
			<point x="189" y="522"/>
			<point x="104" y="436"/>
			<point x="104" y="330" type="curve" smooth="yes"/>
			<point x="104" y="224"/>
			<point x="189" y="138"/>
		</contour>
		<contour>
			<point x="300" y="191" type="curve" smooth="yes"/>
			<point x="220" y="191"/>
			<point x="162" y="248"/>
			<point x="162" y="330" type="curve" smooth="yes"/>
			<point x="162" y="412"/>
			<point x="220" y="469"/>
			<point x="300" y="469" type="curve" smooth="yes"/>
			<point x="380" y="469"/>
			<point x="438" y="412"/>
			<point x="438" y="330" type="curve" smooth="yes"/>
			<point x="438" y="248"/>
			<point x="380" y="191"/>
		</contour>
		<contour>
			<point x="270" y="500" type="line"/>
			<point x="330" y="500" type="line"/>
			<point x="330" y="637" type="line"/>
			<point x="270" y="637" type="line"/>
		</contour>
		<contour>
			<point x="156" y="428" type="line"/>
			<point x="197" y="470" type="line"/>
			<point x="95" y="574" type="line"/>
			<point x="54" y="532" type="line"/>
		</contour>
		<contour>
			<point x="442" y="430" type="line"/>
			<point x="546" y="532" type="line"/>
			<point x="505" y="574" type="line"/>
			<point x="401" y="472" type="line"/>
		</contour>
		<contour>
			<point x="-3" y="301" type="line"/>
			<point x="141" y="301" type="line"/>
			<point x="134" y="359" type="line"/>
			<point x="-3" y="359" type="line"/>
		</contour>
		<contour>
			<point x="466" y="301" type="line"/>
			<point x="603" y="301" type="line"/>
			<point x="603" y="359" type="line"/>
			<point x="466" y="359" type="line"/>
		</contour>
		<contour>
			<point x="95" y="84" type="line"/>
			<point x="199" y="186" type="line"/>
			<point x="158" y="228" type="line"/>
			<point x="54" y="126" type="line"/>
		</contour>
		<contour>
			<point x="505" y="84" type="line"/>
			<point x="546" y="126" type="line"/>
			<point x="444" y="230" type="line"/>
			<point x="403" y="188" type="line"/>
		</contour>
		<contour>
			<point x="270" y="23" type="line"/>
			<point x="330" y="23" type="line"/>
			<point x="330" y="160" type="line"/>
			<point x="270" y="160" type="line"/>
		</contour>
	</outline>
</glyph>
<glyph name="female" format="1">
	<unicode hex="2640"/>
	<advance width="600"/>
	<outline>
		<contour>
			<point x="300" y="244" type="curve" smooth="yes"/>
			<point x="437" y="244"/>
			<point x="538" y="344"/>
			<point x="538" y="475" type="curve" smooth="yes"/>
			<point x="538" y="607"/>
			<point x="437" y="707"/>
			<point x="300" y="707" type="curve" smooth="yes"/>
			<point x="163" y="707"/>
			<point x="62" y="607"/>
			<point x="62" y="475" type="curve" smooth="yes"/>
			<point x="62" y="344"/>
			<point x="163" y="244"/>
		</contour>
		<contour>
			<point x="300" y="298" type="curve" smooth="yes"/>
			<point x="201" y="298"/>
			<point x="124" y="372"/>
			<point x="124" y="475" type="curve" smooth="yes"/>
			<point x="124" y="580"/>
			<point x="201" y="653"/>
			<point x="300" y="653" type="curve" smooth="yes"/>
			<point x="400" y="653"/>
			<point x="475" y="580"/>
			<point x="475" y="475" type="curve" smooth="yes"/>
			<point x="475" y="372"/>
			<point x="400" y="298"/>
		</contour>
		<contour>
			<point x="269" y="-45" type="line"/>
			<point x="331" y="-45" type="line"/>
			<point x="331" y="84" type="line"/>
			<point x="473" y="84" type="line"/>
			<point x="473" y="143" type="line"/>
			<point x="331" y="143" type="line"/>
			<point x="331" y="285" type="line"/>
			<point x="269" y="285" type="line"/>
			<point x="269" y="143" type="line"/>
			<point x="127" y="143" type="line"/>
			<point x="127" y="84" type="line"/>
			<point x="269" y="84" type="line"/>
		</contour>
	</outline>
</glyph>
<glyph name="club" format="1">
	<unicode hex="2663"/>
	<advance width="600"/>
	<outline>
		<contour>
			<point x="105" y="0" type="line"/>
			<point x="495" y="0" type="line"/>
			<point x="495" y="39" type="line"/>
			<point x="401" y="53"/>
			<point x="339" y="102"/>
			<point x="319" y="272" type="curve"/>
			<point x="281" y="272" type="line"/>
			<point x="261" y="102"/>
			<point x="199" y="53"/>
			<point x="105" y="39" type="curve"/>
		</contour>
		<contour>
			<point x="143" y="161" type="curve" smooth="yes"/>
			<point x="193" y="161"/>
			<point x="244" y="182"/>
			<point x="271" y="248" type="curve"/>
			<point x="329" y="248" type="line"/>
			<point x="356" y="182"/>
			<point x="407" y="161"/>
			<point x="457" y="161" type="curve" smooth="yes"/>
			<point x="537" y="161"/>
			<point x="591" y="223"/>
			<point x="591" y="314" type="curve" smooth="yes"/>
			<point x="591" y="407"/>
			<point x="528" y="454"/>
			<point x="449" y="454" type="curve" smooth="yes"/>
			<point x="427" y="454"/>
			<point x="407" y="449"/>
			<point x="376" y="434" type="curve"/>
			<point x="372" y="438" type="line"/>
			<point x="439" y="498"/>
			<point x="447" y="553"/>
			<point x="447" y="588" type="curve" smooth="yes"/>
			<point x="447" y="662"/>
			<point x="382" y="714"/>
			<point x="300" y="714" type="curve" smooth="yes"/>
			<point x="218" y="714"/>
			<point x="153" y="662"/>
			<point x="153" y="588" type="curve" smooth="yes"/>
			<point x="153" y="553"/>
			<point x="161" y="498"/>
			<point x="228" y="438" type="curve"/>
			<point x="224" y="434" type="line"/>
			<point x="193" y="449"/>
			<point x="173" y="454"/>
			<point x="151" y="454" type="curve" smooth="yes"/>
			<point x="72" y="454"/>
			<point x="9" y="407"/>
			<point x="9" y="314" type="curve" smooth="yes"/>
			<point x="9" y="223"/>
			<point x="63" y="161"/>
		</contour>
	</outline>
</glyph>
<glyph name="heart" format="1">
	<unicode hex="2665"/>
	<advance width="600"/>
	<outline>
		<contour>
			<point x="302" y="-12" type="line"/>
			<point x="543" y="246"/>
			<point x="591" y="372"/>
			<point x="591" y="516" type="curve" smooth="yes"/>
			<point x="591" y="646"/>
			<point x="528" y="714"/>
			<point x="446" y="714" type="curve" smooth="yes"/>
			<point x="382" y="714"/>
			<point x="330" y="683"/>
			<point x="302" y="594" type="curve"/>
			<point x="298" y="594" type="line"/>
			<point x="270" y="683"/>
			<point x="219" y="714"/>
			<point x="154" y="714" type="curve" smooth="yes"/>
			<point x="72" y="714"/>
			<point x="9" y="646"/>
			<point x="9" y="516" type="curve" smooth="yes"/>
			<point x="9" y="372"/>
			<point x="57" y="246"/>
			<point x="298" y="-12" type="curve"/>
		</contour>
	</outline>
</glyph>
<glyph name="squareshadow" format="1">
	<unicode hex="2752"/>
	<advance width="600"/>
	<outline>
		<contour>
			<point x="74" y="104" type="line"/>
			<point x="475" y="104" type="line"/>
			<point x="526" y="158" type="line"/>
			<point x="526" y="556" type="line"/>
			<point x="132" y="556" type="line"/>
			<point x="74" y="508" type="line"/>
		</contour>
		<contour>
			<point x="115" y="143" type="line"/>
			<point x="115" y="492" type="line"/>
			<point x="459" y="492" type="line"/>
			<point x="459" y="143" type="line"/>
		</contour>
	</outline>
</glyph>
<glyph name="heartblackheavy" format="1">
	<unicode hex="2764"/>
	<advance width="600"/>
	<outline>
		<contour>
			<point x="302" y="8" type="line"/>
			<point x="397" y="196"/>
			<point x="672" y="171"/>
			<point x="672" y="457" type="curve" smooth="yes"/>
			<point x="672" y="586"/>
			<point x="590" y="658"/>
			<point x="474" y="658" type="curve" smooth="yes"/>
			<point x="386" y="658"/>
			<point x="327" y="623"/>
			<point x="302" y="525" type="curve"/>
			<point x="298" y="525" type="line"/>
			<point x="273" y="623"/>
			<point x="214" y="658"/>
			<point x="126" y="658" type="curve" smooth="yes"/>
			<point x="10" y="658"/>
			<point x="-72" y="586"/>
			<point x="-72" y="457" type="curve" smooth="yes"/>
			<point x="-72" y="171"/>
			<point x="203" y="196"/>
			<point x="298" y="8" type="curve"/>
		</contour>
	</outline>
</glyph>
<glyph name="bracketleftwhite" format="2">
	<unicode hex="27E6"/>
	<advance width="600"/>
	<outline>
		<contour>
			<point x="87" y="-152" type="line"/>
			<point x="400" y="-152" type="line"/>
			<point x="408" y="-107" type="line"/>
			<point x="240" y="-107" type="line"/>
			<point x="394" y="663" type="line"/>
			<point x="563" y="663" type="line"/>
			<point x="571" y="708" type="line"/>
			<point x="260" y="708" type="line"/>
		</contour>
		<contour>
			<point x="149" y="-107" type="line"/>
			<point x="303" y="663" type="line"/>
			<point x="347" y="663" type="line"/>
			<point x="191" y="-107" type="line"/>
		</contour>
	</outline>
</glyph>
<glyph name="bracketrightwhite" format="1">
	<unicode hex="27E7"/>
	<advance width="600"/>
	<outline>
		<contour>
			<point x="15" y="-152" type="line"/>
			<point x="327" y="-152" type="line"/>
			<point x="500" y="708" type="line"/>
			<point x="187" y="708" type="line"/>
			<point x="178" y="663" type="line"/>
			<point x="346" y="663" type="line"/>
			<point x="193" y="-107" type="line"/>
			<point x="24" y="-107" type="line"/>
		</contour>
		<contour>
			<point x="240" y="-107" type="line"/>
			<point x="395" y="663" type="line"/>
			<point x="438" y="663" type="line"/>
			<point x="284" y="-107" type="line"/>
		</contour>
	</outline>
</glyph>
<glyph name="brackhalftopleft" format="1">
	<unicode hex="2E22"/>
	<advance width="600"/>
	<outline>
		<contour>
			<point x="213" y="278" type="line"/>
			<point x="274" y="278" type="line"/>
			<point x="350" y="663" type="line"/>
			<point x="563" y="663" type="line"/>
			<point x="571" y="708" type="line"/>
			<point x="300" y="708" type="line"/>
		</contour>
	</outline>
</glyph>
<glyph name="brackhalftopright" format="1">
	<unicode hex="2E23"/>
	<advance width="600"/>
	<outline>
		<contour>
			<point x="313" y="278" type="line"/>
			<point x="373" y="278" type="line"/>
			<point x="459" y="708" type="line"/>
			<point x="187" y="708" type="line"/>
			<point x="178" y="663" type="line"/>
			<point x="390" y="663" type="line"/>
		</contour>
	</outline>
</glyph>
<glyph name="brackhalfbotleft" format="1">
	<unicode hex="2E24"/>
	<advance width="600"/>
	<outline>
		<contour>
			<point x="127" y="-152" type="line"/>
			<point x="400" y="-152" type="line"/>
			<point x="408" y="-107" type="line"/>
			<point x="196" y="-107" type="line"/>
			<point x="274" y="278" type="line"/>
			<point x="213" y="278" type="line"/>
		</contour>
	</outline>
</glyph>
<glyph name="uniE0A0" format="2">
	<unicode hex="E0A0"/>
	<advance width="600"/>
	<outline>
		<contour>
			<point x="178" y="-280" type="line"/>
			<point x="178" y="-16" type="line" smooth="yes"/>
			<point x="178" y="264"/>
			<point x="493" y="157"/>
			<point x="493" y="475" type="curve" smooth="yes"/>
			<point x="493" y="718" type="line"/>
			<point x="610" y="718" type="line"/>
			<point x="456" y="914" type="line"/>
			<point x="300" y="718" type="line"/>
			<point x="417" y="718" type="line"/>
			<point x="417" y="492" type="line" smooth="yes"/>
			<point x="417" y="210"/>
			<point x="101" y="315"/>
			<point x="101" y="1" type="curve" smooth="yes"/>
			<point x="101" y="-280" type="line"/>
		</contour>
		<contour>
			<point x="178" y="382" type="line"/>
			<point x="178" y="1060" type="line"/>
			<point x="101" y="1060" type="line"/>
			<point x="101" y="333" type="line"/>
		</contour>
	</outline>
</glyph>
<glyph name="poop" format="2">
	<unicode hex="1F4A9"/>
	<advance width="600"/>
	<outline>
		<contour>
			<point x="300" y="14" type="curve" smooth="yes"/>
			<point x="511" y="14"/>
			<point x="603" y="41"/>
			<point x="603" y="160" type="curve" smooth="yes"/>
			<point x="603" y="224"/>
			<point x="575" y="262"/>
			<point x="512" y="278" type="curve"/>
			<point x="537" y="296"/>
			<point x="548" y="324"/>
			<point x="548" y="368" type="curve" smooth="yes"/>
			<point x="548" y="440"/>
			<point x="503" y="478"/>
			<point x="440" y="490" type="curve"/>
			<point x="453" y="504"/>
			<point x="461" y="518"/>
			<point x="461" y="544" type="curve" smooth="yes"/>
			<point x="461" y="598"/>
			<point x="413" y="636"/>
			<point x="319" y="662" type="curve"/>
			<point x="262" y="600"/>
			<point x="139" y="642"/>
			<point x="139" y="542" type="curve" smooth="yes"/>
			<point x="139" y="514"/>
			<point x="149" y="502"/>
			<point x="160" y="490" type="curve"/>
			<point x="97" y="478"/>
			<point x="52" y="440"/>
			<point x="52" y="368" type="curve" smooth="yes"/>
			<point x="52" y="324"/>
			<point x="63" y="296"/>
			<point x="88" y="278" type="curve"/>
			<point x="25" y="262"/>
			<point x="-3" y="224"/>
			<point x="-3" y="160" type="curve" smooth="yes"/>
			<point x="-3" y="41"/>
			<point x="89" y="14"/>
		</contour>
		<contour>
			<point x="300" y="109" type="curve" smooth="yes"/>
			<point x="217" y="109"/>
			<point x="165" y="146"/>
			<point x="157" y="224" type="curve"/>
			<point x="443" y="224" type="line"/>
			<point x="435" y="146"/>
			<point x="383" y="109"/>
		</contour>
		<contour>
			<point x="148" y="312" type="line"/>
			<point x="149" y="398"/>
			<point x="171" y="432"/>
			<point x="213" y="432" type="curve" smooth="yes"/>
			<point x="255" y="432"/>
			<point x="278" y="398"/>
			<point x="279" y="312" type="curve"/>
			<point x="251" y="310" type="line"/>
			<point x="249" y="357"/>
			<point x="237" y="376"/>
			<point x="213" y="376" type="curve" smooth="yes"/>
			<point x="189" y="376"/>
			<point x="178" y="357"/>
			<point x="176" y="310" type="curve"/>
		</contour>
		<contour>
			<point x="321" y="312" type="line"/>
			<point x="322" y="398"/>
			<point x="345" y="432"/>
			<point x="387" y="432" type="curve" smooth="yes"/>
			<point x="429" y="432"/>
			<point x="451" y="398"/>
			<point x="452" y="312" type="curve"/>
			<point x="424" y="310" type="line"/>
			<point x="422" y="357"/>
			<point x="411" y="376"/>
			<point x="387" y="376" type="curve" smooth="yes"/>
			<point x="363" y="376"/>
			<point x="351" y="357"/>
			<point x="349" y="310" type="curve"/>
		</contour>
	</outline>
</glyph>
<glyph name=".notdef" format="1">
	<advance width="600"/>
	<outline>
		<contour>
			<point x="65" y="0" type="line"/>
			<point x="535" y="0" type="line"/>
			<point x="535" y="660" type="line"/>
			<point x="65" y="660" type="line"/>
		</contour>
		<contour>
			<point x="165" y="55" type="line"/>
			<point x="243" y="193" type="line"/>
			<point x="298" y="295" type="line"/>
			<point x="302" y="295" type="line"/>
			<point x="356" y="193" type="line"/>
			<point x="432" y="55" type="line"/>
		</contour>
		<contour>
			<point x="127" y="105" type="line"/>
			<point x="127" y="577" type="line"/>
			<point x="257" y="340" type="line"/>
		</contour>
		<contour>
			<point x="298" y="385" type="line"/>
			<point x="247" y="478" type="line"/>
			<point x="177" y="603" type="line"/>
			<point x="421" y="603" type="line"/>
			<point x="351" y="478" type="line"/>
			<point x="302" y="385" type="line"/>
		</contour>
		<contour>
			<point x="343" y="340" type="line"/>
			<point x="472" y="577" type="line"/>
			<point x="472" y="105" type="line"/>
		</contour>
	</outline>
</glyph>
<glyph name="a.a" format="1">
	<advance width="600"/>
	<outline>
		<contour>
			<point x="188" y="-12" type="curve" smooth="yes"/>
			<point x="265" y="-12"/>
			<point x="341" y="28"/>
			<point x="396" y="81" type="curve"/>
			<point x="399" y="81" type="line"/>
			<point x="389" y="0" type="line"/>
			<point x="452" y="0" type="line"/>
			<point x="511" y="304" type="line" smooth="yes"/>
			<point x="515" y="325"/>
			<point x="516" y="341"/>
			<point x="516" y="358" type="curve" smooth="yes"/>
			<point x="516" y="447"/>
			<point x="462" y="498"/>
			<point x="358" y="498" type="curve" smooth="yes"/>
			<point x="264" y="498"/>
			<point x="179" y="464"/>
			<point x="120" y="432" type="curve"/>
			<point x="146" y="376" type="line"/>
			<point x="200" y="406"/>
			<point x="268" y="436"/>
			<point x="342" y="436" type="curve" smooth="yes"/>
			<point x="414" y="436"/>
			<point x="441" y="403"/>
			<point x="441" y="350" type="curve" smooth="yes"/>
			<point x="441" y="338"/>
			<point x="438" y="321"/>
			<point x="434" y="304" type="curve"/>
			<point x="163" y="289"/>
			<point x="51" y="227"/>
			<point x="51" y="101" type="curve" smooth="yes"/>
			<point x="51" y="28"/>
			<point x="111" y="-12"/>
		</contour>
		<contour>
			<point x="213" y="49" type="curve" smooth="yes"/>
			<point x="163" y="49"/>
			<point x="127" y="69"/>
			<point x="127" y="117" type="curve" smooth="yes"/>
			<point x="127" y="194"/>
			<point x="203" y="240"/>
			<point x="426" y="255" type="curve"/>
			<point x="404" y="142" type="line"/>
			<point x="343" y="83"/>
			<point x="274" y="49"/>
		</contour>
		<contour>
			<point name="ogonekLC" x="393" y="0" type="move"/>
		</contour>
		<contour>
			<point name="aboveLC" x="343" y="507" type="move"/>
		</contour>
		<contour>
			<point name="baseLC" x="419" y="0" type="move"/>
		</contour>
		<contour>
			<point name="belowLC" x="259" y="-20" type="move"/>
		</contour>
	</outline>
</glyph>
<glyph name="a.supa" format="2">
	<advance width="600"/>
	<outline>
		<contour>
			<point x="272" y="387" type="curve" smooth="yes"/>
			<point x="322" y="387"/>
			<point x="368" y="410"/>
			<point x="402" y="438" type="curve"/>
			<point x="404" y="438" type="line"/>
			<point x="401" y="395" type="line"/>
			<point x="448" y="395" type="line"/>
			<point x="487" y="590" type="line" smooth="yes"/>
			<point x="503" y="673"/>
			<point x="475" y="724"/>
			<point x="393" y="724" type="curve" smooth="yes"/>
			<point x="334" y="724"/>
			<point x="279" y="703"/>
			<point x="243" y="682" type="curve"/>
			<point x="262" y="641" type="line"/>
			<point x="294" y="660"/>
			<point x="333" y="676"/>
			<point x="375" y="676" type="curve" smooth="yes"/>
			<point x="429" y="676"/>
			<point x="438" y="641"/>
			<point x="429" y="598" type="curve"/>
			<point x="263" y="581"/>
			<point x="190" y="541"/>
			<point x="190" y="463" type="curve" smooth="yes"/>
			<point x="190" y="413"/>
			<point x="224" y="387"/>
		</contour>
		<contour>
			<point x="295" y="435" type="curve" smooth="yes"/>
			<point x="270" y="435"/>
			<point x="251" y="447"/>
			<point x="251" y="471" type="curve" smooth="yes"/>
			<point x="251" y="518"/>
			<point x="306" y="547"/>
			<point x="422" y="560" type="curve"/>
			<point x="406" y="479" type="line"/>
			<point x="370" y="452"/>
			<point x="338" y="435"/>
		</contour>
	</outline>
</glyph>
<glyph name="acutecmb.cap" format="1">
	<advance width="600"/>
	<outline>
		<contour>
			<point x="357" y="703" type="line"/>
			<point x="529" y="803" type="line"/>
			<point x="492" y="863" type="line"/>
			<point x="327" y="747" type="line"/>
		</contour>
		<contour>
			<point name="_aboveUC" x="373" y="676" type="move"/>
		</contour>
	</outline>
</glyph>
<glyph name="aringacute.a" format="2">
	<advance width="600"/>
	<outline>
		<contour>
			<point x="347" y="710" type="line"/>
			<point x="498" y="802" type="line"/>
			<point x="463" y="843" type="line"/>
			<point x="322" y="734" type="line"/>
		</contour>
		<component base="aring.a"/>
	</outline>
</glyph>
<glyph name="asperacutecmb" format="1">
	<advance width="600"/>
	<outline>
		<contour>
			<point x="298" y="577" type="curve"/>
			<point x="316" y="615" type="line"/>
			<point x="291" y="622"/>
			<point x="274" y="636"/>
			<point x="279" y="662" type="curve" smooth="yes"/>
			<point x="284" y="688"/>
			<point x="311" y="702"/>
			<point x="360" y="705" type="curve"/>
			<point x="366" y="756" type="line"/>
			<point x="289" y="753"/>
			<point x="232" y="725"/>
			<point x="222" y="671" type="curve" smooth="yes"/>
			<point x="211" y="612"/>
			<point x="254" y="588"/>
		</contour>
		<contour>
			<point x="357" y="569" type="line"/>
			<point x="403" y="559" type="line"/>
			<point x="508" y="756" type="line"/>
			<point x="439" y="770" type="line"/>
		</contour>
		<contour>
			<point name="_aboveLC" x="339" y="507" type="move"/>
		</contour>
	</outline>
</glyph>
